SplineFontDB: 3.0
FontName: TitilliumWeb-Italic
FullName: Titillium WebItalic
FamilyName: Titillium Web
Weight: Book
Copyright: Copyright (c) 2009-2011 by Accademia di Belle Arti di Urbino and students of MA course of Visual design. Some rights reserved.
Version: 1.001;PS 57.000;hotconv 1.0.70;makeotf.lib2.5.55311
ItalicAngle: -13
UnderlinePosition: -70
UnderlineWidth: 30
Ascent: 800
Descent: 200
sfntRevision: 0x00010000
LayerCount: 2
Layer: 0 1 "Back"  1
Layer: 1 1 "Fore"  0
XUID: [1021 531 584091100 10665639]
FSType: 8
OS2Version: 3
OS2_WeightWidthSlopeOnly: 0
OS2_UseTypoMetrics: 1
CreationTime: 1349090880
ModificationTime: 1349108892
PfmFamily: 81
TTFWeight: 400
TTFWidth: 5
LineGap: 0
VLineGap: 0
Panose: 0 0 5 0 0 0 0 0 0 0
OS2TypoAscent: 1133
OS2TypoAOffset: 0
OS2TypoDescent: -388
OS2TypoDOffset: 0
OS2TypoLinegap: 0
OS2WinAscent: 1133
OS2WinAOffset: 0
OS2WinDescent: 388
OS2WinDOffset: 0
HheadAscent: 1133
HheadAOffset: 0
HheadDescent: -388
HheadDOffset: 0
OS2SubXSize: 650
OS2SubYSize: 600
OS2SubXOff: -17
OS2SubYOff: 75
OS2SupXSize: 650
OS2SupYSize: 600
OS2SupXOff: 81
OS2SupYOff: 350
OS2StrikeYSize: 30
OS2StrikeYPos: 300
OS2Vendor: 'UKWN'
OS2CodePages: 20000093.00000000
OS2UnicodeRanges: 00000007.00000001.00000000.00000000
Lookup: 1 0 0 "'locl' Localized Forms in Latin lookup 0"  {"'locl' Localized Forms in Latin lookup 0 subtable"  } ['locl' ('DFLT' <'dflt' > 'latn' <'dflt' > ) ]
Lookup: 1 0 0 "'frac' Diagonal Fractions in Latin lookup 1"  {"'frac' Diagonal Fractions in Latin lookup 1 subtable"  } ['frac' ('DFLT' <'dflt' > 'latn' <'dflt' > ) ]
Lookup: 6 0 0 "'frac' Diagonal Fractions in Latin lookup 2"  {"'frac' Diagonal Fractions in Latin lookup 2 subtable"  } ['frac' ('DFLT' <'dflt' > 'latn' <'dflt' > ) ]
Lookup: 1 0 0 "'frac' Diagonal Fractions in Latin lookup 3"  {"'frac' Diagonal Fractions in Latin lookup 3 subtable"  } ['frac' ('DFLT' <'dflt' > 'latn' <'dflt' > ) ]

StartChar: exclam
Encoding: 33 33 4
Width: 189
GlyphClass: 2
Flags: W
LayerCount: 2
Fore
SplineSet
112 230 m 1,0,-1
 218 700 l 1,1,-1
 295 700 l 1,2,-1
 179 230 l 1,3,-1
 112 230 l 1,0,-1
59 0 m 1,4,-1
 84 111 l 1,5,-1
 160 111 l 1,6,-1
 135 0 l 1,7,-1
 59 0 l 1,4,-1
EndSplineSet
EndChar

StartChar: quotedbl
Encoding: 34 34 5
Width: 313
GlyphClass: 2
Flags: W
LayerCount: 2
Fore
SplineSet
303 466 m 1,0,-1
 221 466 l 1,1,-1
 273 694 l 1,2,-1
 360 694 l 1,3,-1
 303 466 l 1,0,-1
EndSplineSet
EndChar

StartChar: numbersign
Encoding: 35 35 6
Width: 560
GlyphClass: 2
Flags: W
LayerCount: 2
Fore
SplineSet
574 180 m 1,0,-1
 464 180 l 1,1,-1
 420 0 l 1,2,-1
 352 0 l 1,3,-1
 396 180 l 1,4,-1
 241 180 l 1,5,-1
 197 0 l 1,6,-1
 129 0 l 1,7,-1
 173 180 l 1,8,-1
 63 180 l 1,9,-1
 79 244 l 1,10,-1
 189 244 l 1,11,-1
 233 422 l 1,12,-1
 123 422 l 1,13,-1
 139 486 l 1,14,-1
 249 486 l 1,15,-1
 295 666 l 1,16,-1
 363 666 l 1,17,-1
 317 486 l 1,18,-1
 472 486 l 1,19,-1
 517 666 l 1,20,-1
 585 666 l 1,21,-1
 540 486 l 1,22,-1
 650 486 l 1,23,-1
 634 422 l 1,24,-1
 524 422 l 1,25,-1
 480 244 l 1,26,-1
 590 244 l 1,27,-1
 574 180 l 1,0,-1
412 244 m 1,28,-1
 456 422 l 1,29,-1
 301 422 l 1,30,-1
 257 244 l 1,31,-1
 412 244 l 1,28,-1
EndSplineSet
EndChar

StartChar: dollar
Encoding: 36 36 7
Width: 560
GlyphClass: 2
Flags: W
LayerCount: 2
Fore
SplineSet
524 219 m 0,0,1
 524 113 524 113 459.5 51.5 c 128,-1,2
 395 -10 395 -10 287 -10 c 0,3,4
 273 -10 273 -10 249 -8 c 1,5,-1
 205 -120 l 1,6,-1
 152 -120 l 1,7,-1
 197 -4 l 1,8,9
 156 1 156 1 108 12 c 2,10,-1
 95 15 l 1,11,-1
 107 73 l 1,12,13
 164 64 164 64 222 58 c 1,14,-1
 324 317 l 1,15,16
 256 341 256 341 226 372 c 128,-1,17
 196 403 196 403 196 462 c 0,18,19
 196 560 196 560 259 616 c 128,-1,20
 322 672 322 672 427 672 c 0,21,22
 451 672 451 672 463 671 c 1,23,-1
 507 782 l 1,24,-1
 561 782 l 1,25,-1
 514 665 l 1,26,27
 563 657 563 657 594 648 c 2,28,-1
 605 645 l 1,29,-1
 593 590 l 1,30,31
 542 598 542 598 490 603 c 1,32,-1
 397 366 l 1,33,34
 468 340 468 340 496 309.5 c 128,-1,35
 524 279 524 279 524 219 c 0,0,1
448 212 m 0,36,37
 448 247 448 247 432 264.5 c 128,-1,38
 416 282 416 282 371 300 c 1,39,-1
 274 55 l 1,40,-1
 290 55 l 2,41,42
 365 55 365 55 406.5 96 c 128,-1,43
 448 137 448 137 448 212 c 0,36,37
270 468 m 0,44,45
 270 436 270 436 287 418.5 c 128,-1,46
 304 401 304 401 350 383 c 1,47,-1
 438 607 l 1,48,-1
 424 607 l 2,49,50
 352 607 352 607 311 571.5 c 128,-1,51
 270 536 270 536 270 468 c 0,44,45
EndSplineSet
EndChar

StartChar: percent
Encoding: 37 37 8
Width: 560
GlyphClass: 2
Flags: W
LayerCount: 2
Fore
SplineSet
295 650 m 0,0,1
 247 650 247 650 226 572 c 0,2,3
 217 535 217 535 217 516 c 0,4,5
 217 473 217 473 251 473 c 0,6,7
 278 473 278 473 294.5 495 c 128,-1,8
 311 517 311 517 321 554.5 c 128,-1,9
 331 592 331 592 331 612 c 0,10,11
 331 650 331 650 295 650 c 0,0,1
155 6 m 1,12,-1
 515 709 l 1,13,-1
 565 694 l 1,14,-1
 206 -9 l 1,15,-1
 155 6 l 1,12,-1
164 564 m 0,16,17
 198 702 198 702 308 702 c 0,18,19
 391 702 391 702 391 621 c 0,20,21
 391 596 391 596 383 563 c 0,22,23
 365 493 365 493 327.5 457.5 c 128,-1,24
 290 422 290 422 238.5 422 c 128,-1,25
 187 422 187 422 166 458 c 0,26,27
 156 476 156 476 156 503.5 c 128,-1,28
 156 531 156 531 164 564 c 0,16,17
484 280 m 0,29,30
 568 280 568 280 568 199 c 0,31,32
 568 174 568 174 560 141 c 0,33,34
 542 71 542 71 504.5 35.5 c 128,-1,35
 467 0 467 0 415 0 c 128,-1,36
 363 0 363 0 342 36 c 0,37,38
 332 54 332 54 332 81.5 c 128,-1,39
 332 109 332 109 340 142 c 0,40,41
 374 280 374 280 484 280 c 0,29,30
507 189 m 0,42,43
 507 228 507 228 471 228 c 0,44,45
 445 228 445 228 428.5 207.5 c 128,-1,46
 412 187 412 187 402.5 150 c 128,-1,47
 393 113 393 113 393 94 c 0,48,49
 393 51 393 51 427 51 c 0,50,51
 454 51 454 51 470.5 73 c 128,-1,52
 487 95 487 95 497 132.5 c 128,-1,53
 507 170 507 170 507 189 c 0,42,43
EndSplineSet
EndChar

StartChar: ampersand
Encoding: 38 38 9
Width: 635
GlyphClass: 2
Flags: W
LayerCount: 2
Fore
SplineSet
443 702 m 0,0,1
 586 702 586 702 586 579 c 0,2,3
 586 503 586 503 538.5 451.5 c 128,-1,4
 491 400 491 400 389 361 c 1,5,-1
 500 209 l 1,6,7
 537 268 537 268 559 344 c 1,8,-1
 631 344 l 1,9,10
 601 241 601 241 542 157 c 1,11,-1
 635 39 l 1,12,-1
 583 -7 l 1,13,-1
 495 106 l 1,14,15
 398 -10 398 -10 264 -10 c 0,16,17
 164 -10 164 -10 119.5 30.5 c 128,-1,18
 75 71 75 71 75 159.5 c 128,-1,19
 75 248 75 248 123.5 308 c 128,-1,20
 172 368 172 368 281 409 c 1,21,22
 254 460 254 460 254 508 c 0,23,24
 254 600 254 600 305 651 c 128,-1,25
 356 702 356 702 443 702 c 0,0,1
275 56 m 0,26,27
 326 56 326 56 374 82.5 c 128,-1,28
 422 109 422 109 456 156 c 1,29,-1
 310 360 l 1,30,31
 223 327 223 327 188 279 c 128,-1,32
 153 231 153 231 153 157 c 0,33,34
 153 56 153 56 275 56 c 0,26,27
359 601.5 m 128,-1,36
 331 565 331 565 331 507.5 c 128,-1,37
 331 450 331 450 360 407 c 1,38,39
 442 441 442 441 475.5 479.5 c 128,-1,40
 509 518 509 518 509 575 c 0,41,42
 509 638 509 638 440 638 c 0,43,35
 387 638 387 638 359 601.5 c 128,-1,36
EndSplineSet
EndChar

StartChar: quotesingle
Encoding: 39 39 10
Width: 162
GlyphClass: 2
Flags: W
LayerCount: 2
Fore
SplineSet
220 466 m 1,0,-1
 154 466 l 1,1,-1
 206 694 l 1,2,-1
 277 694 l 1,3,-1
 220 466 l 1,0,-1
EndSplineSet
EndChar

StartChar: parenleft
Encoding: 40 40 11
Width: 227
GlyphClass: 2
Flags: W
LayerCount: 2
Fore
SplineSet
182 296 m 128,-1,1
 158 198 158 198 158 124 c 0,2,3
 158 -4 158 -4 170 -96 c 1,4,-1
 173 -124 l 1,5,-1
 102 -124 l 1,6,7
 81 -37 81 -37 81 83.5 c 128,-1,8
 81 204 81 204 104.5 303 c 128,-1,9
 128 402 128 402 161 478 c 0,10,11
 230 636 230 636 284 714 c 1,12,-1
 307 748 l 1,13,-1
 378 748 l 1,14,15
 299 625 299 625 235 466 c 0,16,0
 206 394 206 394 182 296 c 128,-1,1
EndSplineSet
Substitution2: "'case' Case-Sensitive Forms in Latin lookup 4 subtable" parenleft.cap
EndChar

StartChar: parenright
Encoding: 41 41 12
Width: 227
GlyphClass: 2
Flags: W
LayerCount: 2
Fore
SplineSet
190 334 m 128,-1,1
 214 432 214 432 214 506 c 0,2,3
 214 634 214 634 202 726 c 1,4,-1
 199 754 l 1,5,-1
 270 754 l 1,6,7
 291 667 291 667 291 546.5 c 128,-1,8
 291 426 291 426 267.5 327 c 128,-1,9
 244 228 244 228 211 152 c 0,10,11
 142 -6 142 -6 88 -84 c 1,12,-1
 65 -118 l 1,13,-1
 -6 -118 l 1,14,15
 73 5 73 5 137 164 c 0,16,0
 166 236 166 236 190 334 c 128,-1,1
EndSplineSet
Substitution2: "'case' Case-Sensitive Forms in Latin lookup 4 subtable" parenright.cap
EndChar

StartChar: asterisk
Encoding: 42 42 13
Width: 413
GlyphClass: 2
Flags: W
LayerCount: 2
Fore
SplineSet
492 511 m 1,0,-1
 361 511 l 1,1,-1
 401 386 l 1,2,-1
 353 371 l 1,3,-1
 311 497 l 1,4,-1
 204 418 l 1,5,-1
 174 458 l 1,6,-1
 282 537 l 1,7,-1
 176 614 l 1,8,-1
 206 656 l 1,9,-1
 313 578 l 1,10,-1
 353 704 l 1,11,-1
 403 688 l 1,12,-1
 362 561 l 1,13,-1
 492 561 l 1,14,-1
 492 511 l 1,0,-1
EndSplineSet
EndChar

StartChar: plus
Encoding: 43 43 14
Width: 560
GlyphClass: 2
Flags: W
LayerCount: 2
Fore
SplineSet
113 217 m 1,0,-1
 113 285 l 1,1,-1
 302 285 l 1,2,-1
 302 480 l 1,3,-1
 371 480 l 1,4,-1
 371 285 l 1,5,-1
 562 285 l 1,6,-1
 562 217 l 1,7,-1
 371 217 l 1,8,-1
 371 20 l 1,9,-1
 302 20 l 1,10,-1
 302 217 l 1,11,-1
 113 217 l 1,0,-1
EndSplineSet
EndChar

StartChar: comma
Encoding: 44 44 15
Width: 183
GlyphClass: 2
Flags: W
LayerCount: 2
Fore
SplineSet
49 -129 m 1,0,-1
 -12 -129 l 1,1,-1
 86 111 l 1,2,-1
 169 111 l 1,3,-1
 49 -129 l 1,0,-1
EndSplineSet
EndChar

StartChar: hyphen
Encoding: 45 45 16
Width: 337
GlyphClass: 2
Flags: W
LayerCount: 2
Fore
SplineSet
98 233 m 1,0,-1
 115 302 l 1,1,-1
 362 302 l 1,2,-1
 345 233 l 1,3,-1
 98 233 l 1,0,-1
EndSplineSet
EndChar

StartChar: period
Encoding: 46 46 17
Width: 168
GlyphClass: 2
Flags: W
LayerCount: 2
Fore
SplineSet
46 0 m 1,0,-1
 72 111 l 1,1,-1
 148 111 l 1,2,-1
 122 0 l 1,3,-1
 46 0 l 1,0,-1
EndSplineSet
EndChar

StartChar: slash
Encoding: 47 47 18
Width: 419
GlyphClass: 2
Flags: W
LayerCount: 2
Fore
SplineSet
112 -10 m 1,0,-1
 42 15 l 1,1,-1
 469 707 l 1,2,-1
 539 681 l 1,3,-1
 112 -10 l 1,0,-1
EndSplineSet
Substitution2: "'frac' Diagonal Fractions in Latin lookup 3 subtable" fraction
EndChar

StartChar: zero
Encoding: 48 48 19
Width: 560
GlyphClass: 2
Flags: W
LayerCount: 2
Fore
SplineSet
410 671 m 0,0,1
 610 671 610 671 610 475 c 0,2,3
 610 348 610 348 573.5 238.5 c 128,-1,4
 537 129 537 129 465 59.5 c 128,-1,5
 393 -10 393 -10 297.5 -10 c 128,-1,6
 202 -10 202 -10 152 39 c 128,-1,7
 102 88 102 88 102 182 c 0,8,9
 102 305 102 305 137 415 c 128,-1,10
 172 525 172 525 244 598 c 128,-1,11
 316 671 316 671 410 671 c 0,0,1
409 604 m 0,12,13
 354 604 354 604 308.5 563 c 128,-1,14
 263 522 263 522 236 458 c 0,15,16
 180 327 180 327 180 192 c 128,-1,17
 180 57 180 57 300 57 c 0,18,19
 372 57 372 57 426.5 124 c 128,-1,20
 481 191 481 191 506.5 282.5 c 128,-1,21
 532 374 532 374 532 467 c 0,22,23
 532 604 532 604 409 604 c 0,12,13
EndSplineSet
Substitution2: "'frac' Diagonal Fractions in Latin lookup 1 subtable" zerosuperior
EndChar

StartChar: one
Encoding: 49 49 20
Width: 560
GlyphClass: 2
Flags: W
LayerCount: 2
Fore
SplineSet
231 526 m 1,0,-1
 471 661 l 1,1,-1
 537 661 l 1,2,-1
 386 0 l 1,3,-1
 310 0 l 1,4,-1
 440 568 l 1,5,-1
 251 464 l 1,6,-1
 231 526 l 1,0,-1
EndSplineSet
Substitution2: "'frac' Diagonal Fractions in Latin lookup 1 subtable" onesuperior
EndChar

StartChar: two
Encoding: 50 50 21
Width: 560
GlyphClass: 2
Flags: W
LayerCount: 2
Fore
SplineSet
522 512 m 128,-1,1
 522 562 522 562 491.5 583 c 128,-1,2
 461 604 461 604 396 604 c 0,3,4
 324 604 324 604 244 588 c 1,5,-1
 215 583 l 1,6,-1
 223 642 l 1,7,8
 323 671 323 671 412 671 c 0,9,10
 600 671 600 671 600 526 c 0,11,12
 600 446 600 446 546 380 c 0,13,14
 501 325 501 325 418 259 c 2,15,-1
 177 67 l 1,16,-1
 506 67 l 1,17,-1
 490 0 l 1,18,-1
 67 0 l 1,19,-1
 82 63 l 1,20,-1
 338 278 l 2,21,22
 434 358 434 358 478 410 c 128,-1,0
 522 462 522 462 522 512 c 128,-1,1
EndSplineSet
Substitution2: "'frac' Diagonal Fractions in Latin lookup 1 subtable" twosuperior
EndChar

StartChar: three
Encoding: 51 51 22
Width: 560
GlyphClass: 2
Flags: W
LayerCount: 2
Fore
SplineSet
415 671 m 0,0,1
 593 671 593 671 593 535 c 0,2,3
 593 406 593 406 458 351 c 1,4,5
 498 332 498 332 517.5 302.5 c 128,-1,6
 537 273 537 273 537 218 c 0,7,8
 537 114 537 114 461 52 c 128,-1,9
 385 -10 385 -10 267 -10 c 0,10,11
 224 -10 224 -10 175.5 -1.5 c 128,-1,12
 127 7 127 7 100 16 c 1,13,-1
 72 24 l 1,14,-1
 89 81 l 1,15,16
 197 57 197 57 274 57 c 128,-1,17
 351 57 351 57 405 100 c 128,-1,18
 459 143 459 143 459 214 c 0,19,20
 459 308 459 308 343 309 c 1,21,-1
 214 309 l 1,22,-1
 229 370 l 1,23,-1
 359 372 l 2,24,25
 412 373 412 373 463.5 415 c 128,-1,26
 515 457 515 457 515 509.5 c 128,-1,27
 515 562 515 562 487.5 583 c 128,-1,28
 460 604 460 604 410 604 c 0,29,30
 328 604 328 604 241 590 c 1,31,-1
 214 585 l 1,32,-1
 221 641 l 1,33,34
 317 671 317 671 415 671 c 0,0,1
EndSplineSet
Substitution2: "'frac' Diagonal Fractions in Latin lookup 1 subtable" threesuperior
EndChar

StartChar: four
Encoding: 52 52 23
Width: 560
GlyphClass: 2
Flags: W
LayerCount: 2
Fore
SplineSet
359 -2 m 1,0,-1
 388 124 l 1,1,-1
 77 124 l 1,2,-1
 91 181 l 1,3,-1
 405 660 l 1,4,-1
 490 660 l 1,5,-1
 173 189 l 1,6,-1
 403 189 l 1,7,-1
 453 405 l 1,8,-1
 529 405 l 1,9,-1
 479 189 l 1,10,-1
 559 189 l 1,11,-1
 543 124 l 1,12,-1
 464 124 l 1,13,-1
 435 -2 l 1,14,-1
 359 -2 l 1,0,-1
EndSplineSet
Substitution2: "'frac' Diagonal Fractions in Latin lookup 1 subtable" foursuperior
EndChar

StartChar: five
Encoding: 53 53 24
Width: 560
GlyphClass: 2
Flags: W
LayerCount: 2
Fore
SplineSet
385 414 m 0,0,1
 556 414 556 414 556 268 c 0,2,3
 556 150 556 150 477 70.5 c 128,-1,4
 398 -9 398 -9 282 -9 c 0,5,6
 237 -9 237 -9 184 -0.5 c 128,-1,7
 131 8 131 8 100 16 c 1,8,-1
 70 25 l 1,9,-1
 89 86 l 1,10,11
 201 58 201 58 281.5 58 c 128,-1,12
 362 58 362 58 420 116 c 128,-1,13
 478 174 478 174 478 256 c 0,14,15
 478 347 478 347 363 347 c 0,16,17
 332 347 332 347 293 336.5 c 128,-1,18
 254 326 254 326 231 316 c 2,19,-1
 208 305 l 1,20,-1
 148 317 l 1,21,-1
 253 660 l 1,22,-1
 630 660 l 1,23,-1
 615 593 l 1,24,-1
 301 593 l 1,25,-1
 227 371 l 1,26,27
 318 414 318 414 385 414 c 0,0,1
EndSplineSet
Substitution2: "'frac' Diagonal Fractions in Latin lookup 1 subtable" fivesuperior
EndChar

StartChar: six
Encoding: 54 54 25
Width: 560
GlyphClass: 2
Flags: W
LayerCount: 2
Fore
SplineSet
610 588 m 1,0,1
 530 604 530 604 466.5 604 c 128,-1,2
 403 604 403 604 362 583.5 c 128,-1,3
 321 563 321 563 293 528 c 0,4,5
 240 460 240 460 214 371 c 1,6,7
 306 414 306 414 394 414 c 128,-1,8
 482 414 482 414 525.5 372 c 128,-1,9
 569 330 569 330 569 254 c 0,10,11
 569 135 569 135 498.5 62.5 c 128,-1,12
 428 -10 428 -10 303 -10 c 0,13,14
 212 -10 212 -10 162 48 c 128,-1,15
 112 106 112 106 112 217 c 0,16,17
 112 340 112 340 168 456 c 0,18,19
 231 589 231 589 339 642 c 0,20,21
 399 671 399 671 470 671 c 0,22,23
 539 671 539 671 610 656 c 2,24,-1
 633 651 l 1,25,-1
 610 588 l 1,0,1
371 347 m 0,26,27
 334 347 334 347 291.5 337 c 128,-1,28
 249 327 249 327 225 317 c 2,29,-1
 201 307 l 1,30,31
 191 271 191 271 191 207 c 128,-1,32
 191 143 191 143 219.5 100 c 128,-1,33
 248 57 248 57 306 57 c 0,34,35
 395 57 395 57 443 108 c 128,-1,36
 491 159 491 159 491 240 c 0,37,38
 491 295 491 295 462.5 321 c 128,-1,39
 434 347 434 347 371 347 c 0,26,27
EndSplineSet
Substitution2: "'frac' Diagonal Fractions in Latin lookup 1 subtable" sixsuperior
EndChar

StartChar: seven
Encoding: 55 55 26
Width: 560
GlyphClass: 2
Flags: W
LayerCount: 2
Fore
SplineSet
216 592 m 1,0,-1
 232 660 l 1,1,-1
 630 660 l 1,2,-1
 603 546 l 1,3,-1
 216 -13 l 1,4,-1
 146 10 l 1,5,-1
 529 556 l 1,6,-1
 537 592 l 1,7,-1
 216 592 l 1,0,-1
EndSplineSet
Substitution2: "'frac' Diagonal Fractions in Latin lookup 1 subtable" sevensuperior
EndChar

StartChar: eight
Encoding: 56 56 27
Width: 560
GlyphClass: 2
Flags: W
LayerCount: 2
Fore
SplineSet
440 671 m 0,0,1
 540 671 540 671 589.5 635.5 c 128,-1,2
 639 600 639 600 639 536.5 c 128,-1,3
 639 473 639 473 598 421 c 128,-1,4
 557 369 557 369 483 345 c 1,5,6
 534 324 534 324 552.5 292.5 c 128,-1,7
 571 261 571 261 571 227 c 128,-1,8
 571 193 571 193 562.5 164.5 c 128,-1,9
 554 136 554 136 532 104 c 128,-1,10
 510 72 510 72 477 47 c 128,-1,11
 444 22 444 22 390.5 5.5 c 128,-1,12
 337 -11 337 -11 270 -11 c 0,13,14
 66 -11 66 -11 66 131 c 128,-1,15
 66 273 66 273 230 345 c 1,16,17
 187 369 187 369 172.5 394 c 128,-1,18
 158 419 158 419 158 457 c 0,19,20
 158 542 158 542 230 606.5 c 128,-1,21
 302 671 302 671 440 671 c 0,0,1
287 56 m 0,22,23
 386 56 386 56 438.5 106 c 128,-1,24
 491 156 491 156 491 204.5 c 128,-1,25
 491 253 491 253 469.5 272.5 c 128,-1,26
 448 292 448 292 397 308 c 1,27,-1
 297 308 l 1,28,29
 235 290 235 290 192 250.5 c 128,-1,30
 149 211 149 211 149 145 c 0,31,32
 149 56 149 56 287 56 c 0,22,23
423 604 m 0,33,34
 329 604 329 604 282.5 562 c 128,-1,35
 236 520 236 520 236 463 c 0,36,37
 236 432 236 432 253 411 c 128,-1,38
 270 390 270 390 313 373 c 1,39,-1
 413 373 l 1,40,41
 465 388 465 388 510.5 424.5 c 128,-1,42
 556 461 556 461 556 513 c 0,43,44
 556 604 556 604 423 604 c 0,33,34
EndSplineSet
Substitution2: "'frac' Diagonal Fractions in Latin lookup 1 subtable" eightsuperior
EndChar

StartChar: nine
Encoding: 57 57 28
Width: 560
GlyphClass: 2
Flags: W
LayerCount: 2
Fore
SplineSet
427 671 m 0,0,1
 595 671 595 671 595 468 c 0,2,3
 595 420 595 420 585 362 c 1,4,5
 558 173 558 173 464.5 81.5 c 128,-1,6
 371 -10 371 -10 236 -10 c 0,7,8
 166 -10 166 -10 101 6 c 1,9,-1
 78 11 l 1,10,-1
 104 78 l 1,11,12
 176 61 176 61 258.5 61 c 128,-1,13
 341 61 341 61 403 117 c 128,-1,14
 465 173 465 173 494 285 c 1,15,16
 375 249 375 249 309 249 c 0,17,18
 143 249 143 249 143 394 c 0,19,20
 143 416 143 416 147 441 c 0,21,22
 164 538 164 538 239.5 604.5 c 128,-1,23
 315 671 315 671 427 671 c 0,0,1
220 406 m 0,24,25
 220 318 220 318 333 318 c 0,26,27
 390 318 390 318 482 342 c 2,28,-1
 512 350 l 1,29,30
 527 410 527 410 527 457 c 0,31,32
 527 600 527 600 410 600 c 0,33,34
 341 600 341 600 288.5 558 c 128,-1,35
 236 516 236 516 224 445 c 0,36,37
 220 424 220 424 220 406 c 0,24,25
EndSplineSet
Substitution2: "'frac' Diagonal Fractions in Latin lookup 1 subtable" ninesuperior
EndChar

StartChar: colon
Encoding: 58 58 29
Width: 171
GlyphClass: 2
Flags: W
LayerCount: 2
Fore
SplineSet
123 330 m 1,0,-1
 149 441 l 1,1,-1
 225 441 l 1,2,-1
 199 330 l 1,3,-1
 123 330 l 1,0,-1
47 0 m 1,4,-1
 73 111 l 1,5,-1
 149 111 l 1,6,-1
 123 0 l 1,7,-1
 47 0 l 1,4,-1
EndSplineSet
EndChar

StartChar: semicolon
Encoding: 59 59 30
Width: 201
GlyphClass: 2
Flags: W
LayerCount: 2
Fore
SplineSet
-2 -129 m 1,0,-1
 96 111 l 1,1,-1
 179 111 l 1,2,-1
 59 -129 l 1,3,-1
 -2 -129 l 1,0,-1
142 330 m 1,4,-1
 168 441 l 1,5,-1
 244 441 l 1,6,-1
 218 330 l 1,7,-1
 142 330 l 1,4,-1
EndSplineSet
EndChar

StartChar: less
Encoding: 60 60 31
Width: 560
GlyphClass: 2
Flags: W
LayerCount: 2
Fore
SplineSet
523 409 m 1,0,-1
 184 252 l 1,1,-1
 523 92 l 1,2,-1
 523 13 l 1,3,-1
 106 218 l 1,4,-1
 106 284 l 1,5,-1
 523 487 l 1,6,-1
 523 409 l 1,0,-1
EndSplineSet
EndChar

StartChar: equal
Encoding: 61 61 32
Width: 560
GlyphClass: 2
Flags: W
LayerCount: 2
Fore
SplineSet
122 309 m 1,0,-1
 122 378 l 1,1,-1
 554 378 l 1,2,-1
 554 309 l 1,3,-1
 122 309 l 1,0,-1
122 124 m 1,4,-1
 122 193 l 1,5,-1
 554 193 l 1,6,-1
 554 124 l 1,7,-1
 122 124 l 1,4,-1
EndSplineSet
EndChar

StartChar: greater
Encoding: 62 62 33
Width: 560
GlyphClass: 2
Flags: W
LayerCount: 2
Fore
SplineSet
490 252 m 1,0,-1
 151 409 l 1,1,-1
 151 487 l 1,2,-1
 568 284 l 1,3,-1
 568 218 l 1,4,-1
 151 13 l 1,5,-1
 151 92 l 1,6,-1
 490 252 l 1,0,-1
EndSplineSet
EndChar

StartChar: question
Encoding: 63 63 34
Width: 414
GlyphClass: 2
Flags: W
LayerCount: 2
Fore
SplineSet
504 571 m 0,0,1
 504 500 504 500 472 456.5 c 128,-1,2
 440 413 440 413 340 336 c 0,3,4
 271 283 271 283 262 235 c 2,5,-1
 254 196 l 1,6,-1
 183 196 l 1,7,8
 184 229 184 229 190 258 c 0,9,10
 201 319 201 319 291 388 c 1,11,12
 371 451 371 451 397.5 484.5 c 128,-1,13
 424 518 424 518 424 566 c 0,14,15
 424 634 424 634 323 634 c 0,16,17
 269 634 269 634 202 620 c 1,18,-1
 179 616 l 1,19,-1
 185 677 l 1,20,21
 273 702 273 702 339 702 c 0,22,23
 504 702 504 702 504 571 c 0,0,1
141 1 m 1,24,-1
 166 117 l 1,25,-1
 243 117 l 1,26,-1
 217 1 l 1,27,-1
 141 1 l 1,24,-1
EndSplineSet
EndChar

StartChar: at
Encoding: 64 64 35
Width: 933
GlyphClass: 2
Flags: W
LayerCount: 2
Fore
SplineSet
639 721 m 0,0,1
 734 721 734 721 802.5 698.5 c 128,-1,2
 871 676 871 676 910 638 c 0,3,4
 982 568 982 568 982 442 c 0,5,6
 982 378 982 378 957.5 275 c 128,-1,7
 933 172 933 172 896.5 103.5 c 128,-1,8
 860 35 860 35 821 12.5 c 128,-1,9
 782 -10 782 -10 724 -10 c 0,10,11
 638 -10 638 -10 626 46 c 1,12,13
 514 -10 514 -10 435 -10 c 0,14,15
 395 -10 395 -10 368.5 5 c 128,-1,16
 342 20 342 20 330 42 c 0,17,18
 310 76 310 76 310 138 c 0,19,20
 310 170 310 170 319 216 c 0,21,22
 373 510 373 510 573 510 c 0,23,24
 624 510 624 510 768 485 c 1,25,26
 687 155 687 155 687 100 c 0,27,28
 687 77 687 77 699.5 69 c 128,-1,29
 712 61 712 61 740 61 c 0,30,31
 790 61 790 61 825 111 c 128,-1,32
 860 161 860 161 894 307 c 1,33,34
 913 384 913 384 913 429.5 c 128,-1,35
 913 475 913 475 901.5 516.5 c 128,-1,36
 890 558 890 558 859 588 c 0,37,38
 790 655 790 655 626 655 c 0,39,40
 439 655 439 655 333.5 563 c 128,-1,41
 228 471 228 471 178 265 c 0,42,43
 159 184 159 184 159 120 c 0,44,45
 159 -135 159 -135 459 -135 c 1,46,-1
 595 -126 l 1,47,-1
 582 -192 l 1,48,49
 486 -201 486 -201 422 -201 c 128,-1,50
 358 -201 358 -201 293.5 -182 c 128,-1,51
 229 -163 229 -163 190 -129 c 0,52,53
 107 -58 107 -58 92 46 c 0,54,55
 87 85 87 85 87 111.5 c 128,-1,56
 87 138 87 138 89 172.5 c 128,-1,57
 91 207 91 207 105 265 c 0,58,59
 163 512 163 512 289 616.5 c 128,-1,60
 415 721 415 721 639 721 c 0,0,1
453 57 m 0,61,62
 519 57 519 57 613 109 c 1,63,64
 619 173 619 173 682 431 c 1,65,66
 621 445 621 445 570 445 c 0,67,68
 499 445 499 445 458.5 386.5 c 128,-1,69
 418 328 418 328 394 215 c 1,70,71
 386 168 386 168 386 135.5 c 128,-1,72
 386 103 386 103 402.5 80 c 128,-1,73
 419 57 419 57 453 57 c 0,61,62
EndSplineSet
EndChar

StartChar: A
Encoding: 65 65 36
Width: 554
GlyphClass: 2
Flags: W
LayerCount: 2
Fore
SplineSet
24 0 m 1,0,-1
 369 692 l 1,1,-1
 518 692 l 1,2,-1
 532 0 l 1,3,-1
 456 0 l 1,4,-1
 450 177 l 1,5,-1
 191 177 l 1,6,-1
 102 0 l 1,7,-1
 24 0 l 1,0,-1
414 624 m 1,8,-1
 223 244 l 1,9,-1
 451 244 l 1,10,-1
 444 624 l 1,11,-1
 414 624 l 1,8,-1
EndSplineSet
Position2: "'cpsp' Capital Spacing in Latin lookup 0 subtable" dx=5 dy=0 dh=10 dv=0
EndChar

StartChar: B
Encoding: 66 66 37
Width: 577
GlyphClass: 2
Flags: W
LayerCount: 2
Fore
SplineSet
460 692 m 2,0,1
 543 692 543 692 584.5 660 c 128,-1,2
 626 628 626 628 626 555.5 c 128,-1,3
 626 483 626 483 590.5 433 c 128,-1,4
 555 383 555 383 497 358 c 1,5,6
 581 325 581 325 581 239 c 0,7,8
 581 130 581 130 512 65 c 128,-1,9
 443 0 443 0 316 0 c 2,10,-1
 78 0 l 1,11,-1
 237 692 l 1,12,-1
 460 692 l 2,0,1
386 320 m 2,13,-1
 228 320 l 1,14,-1
 170 67 l 1,15,-1
 332 67 l 2,16,17
 411 67 411 67 456 113 c 128,-1,18
 501 159 501 159 501 237 c 0,19,20
 501 320 501 320 386 320 c 2,13,-1
447 625 m 2,21,-1
 298 625 l 1,22,-1
 243 386 l 1,23,-1
 397 386 l 2,24,25
 464 386 464 386 506 431.5 c 128,-1,26
 548 477 548 477 548 545 c 0,27,28
 548 589 548 589 524.5 607 c 128,-1,29
 501 625 501 625 447 625 c 2,21,-1
EndSplineSet
Position2: "'cpsp' Capital Spacing in Latin lookup 0 subtable" dx=5 dy=0 dh=10 dv=0
EndChar

StartChar: C
Encoding: 67 67 38
Width: 504
GlyphClass: 2
Flags: W
LayerCount: 2
Fore
SplineSet
305 -10 m 0,0,1
 112 -10 112 -10 112 188 c 0,2,3
 112 366 112 366 194 524 c 0,4,5
 234 602 234 602 303.5 652 c 128,-1,6
 373 702 373 702 461 702 c 0,7,8
 527 702 527 702 603 684 c 1,9,-1
 627 679 l 1,10,-1
 610 619 l 1,11,12
 533 634 533 634 464 634 c 128,-1,13
 395 634 395 634 343 592.5 c 128,-1,14
 291 551 291 551 259 486 c 0,15,16
 192 348 192 348 192 192 c 0,17,18
 192 124 192 124 221.5 91 c 128,-1,19
 251 58 251 58 315 58 c 0,20,21
 391 58 391 58 455 70 c 1,22,-1
 478 75 l 1,23,-1
 473 12 l 1,24,25
 384 -10 384 -10 305 -10 c 0,0,1
EndSplineSet
Position2: "'cpsp' Capital Spacing in Latin lookup 0 subtable" dx=5 dy=0 dh=10 dv=0
EndChar

StartChar: D
Encoding: 68 68 39
Width: 607
GlyphClass: 2
Flags: W
LayerCount: 2
Fore
SplineSet
317 0 m 2,0,-1
 78 0 l 1,1,-1
 238 692 l 1,2,-1
 460 692 l 2,3,4
 555 692 555 692 603.5 643 c 128,-1,5
 652 594 652 594 652 486 c 0,6,7
 652 347 652 347 600 224 c 0,8,9
 573 160 573 160 535 110.5 c 128,-1,10
 497 61 497 61 440.5 30.5 c 128,-1,11
 384 0 384 0 317 0 c 2,0,-1
556.5 351.5 m 128,-1,13
 572 422 572 422 572 490.5 c 128,-1,14
 572 559 572 559 542 591.5 c 128,-1,15
 512 624 512 624 445 624 c 2,16,-1
 298 624 l 1,17,-1
 171 68 l 1,18,-1
 328 68 l 2,19,20
 387 68 387 68 435.5 110 c 128,-1,21
 484 152 484 152 512.5 216.5 c 128,-1,12
 541 281 541 281 556.5 351.5 c 128,-1,13
EndSplineSet
Position2: "'cpsp' Capital Spacing in Latin lookup 0 subtable" dx=5 dy=0 dh=10 dv=0
EndChar

StartChar: E
Encoding: 69 69 40
Width: 505
GlyphClass: 2
Flags: W
LayerCount: 2
Fore
SplineSet
78 0 m 1,0,-1
 237 692 l 1,1,-1
 623 692 l 1,2,-1
 607 624 l 1,3,-1
 298 624 l 1,4,-1
 243 386 l 1,5,-1
 497 386 l 1,6,-1
 481 318 l 1,7,-1
 228 318 l 1,8,-1
 170 68 l 1,9,-1
 479 68 l 1,10,-1
 464 0 l 1,11,-1
 78 0 l 1,0,-1
EndSplineSet
Position2: "'cpsp' Capital Spacing in Latin lookup 0 subtable" dx=5 dy=0 dh=10 dv=0
EndChar

StartChar: F
Encoding: 70 70 41
Width: 482
GlyphClass: 2
Flags: W
LayerCount: 2
Fore
SplineSet
78 0 m 1,0,-1
 238 692 l 1,1,-1
 615 692 l 1,2,-1
 599 624 l 1,3,-1
 298 624 l 1,4,-1
 236 351 l 1,5,-1
 492 351 l 1,6,-1
 476 284 l 1,7,-1
 220 284 l 1,8,-1
 154 0 l 1,9,-1
 78 0 l 1,0,-1
EndSplineSet
Position2: "'cpsp' Capital Spacing in Latin lookup 0 subtable" dx=5 dy=0 dh=10 dv=0
EndChar

StartChar: G
Encoding: 71 71 42
Width: 572
GlyphClass: 2
Flags: W
LayerCount: 2
Fore
SplineSet
322 -10 m 0,0,1
 113 -10 113 -10 113 186 c 0,2,3
 113 383 113 383 198 536 c 0,4,5
 240 611 240 611 310.5 656.5 c 128,-1,6
 381 702 381 702 469 702 c 0,7,8
 554 702 554 702 640 678 c 1,9,-1
 668 671 l 1,10,-1
 649 613 l 1,11,12
 549 634 549 634 459 634 c 0,13,14
 405 634 405 634 360 605.5 c 128,-1,15
 315 577 315 577 285 530.5 c 128,-1,16
 255 484 255 484 234 424 c 0,17,18
 193 312 193 312 193 185 c 128,-1,19
 193 58 193 58 330 58 c 0,20,21
 374 58 374 58 433 70 c 1,22,-1
 451 73 l 1,23,-1
 503 293 l 1,24,-1
 398 293 l 1,25,-1
 413 359 l 1,26,-1
 595 359 l 1,27,-1
 515 17 l 1,28,29
 427 -10 427 -10 322 -10 c 0,0,1
EndSplineSet
Position2: "'cpsp' Capital Spacing in Latin lookup 0 subtable" dx=5 dy=0 dh=10 dv=0
EndChar

StartChar: H
Encoding: 72 72 43
Width: 624
GlyphClass: 2
Flags: W
LayerCount: 2
Fore
SplineSet
469 0 m 1,0,-1
 542 316 l 1,1,-1
 227 316 l 1,2,-1
 154 0 l 1,3,-1
 78 0 l 1,4,-1
 238 692 l 1,5,-1
 314 692 l 1,6,-1
 243 383 l 1,7,-1
 558 383 l 1,8,-1
 629 692 l 1,9,-1
 706 692 l 1,10,-1
 546 0 l 1,11,-1
 469 0 l 1,0,-1
EndSplineSet
Position2: "'cpsp' Capital Spacing in Latin lookup 0 subtable" dx=5 dy=0 dh=10 dv=0
EndChar

StartChar: I
Encoding: 73 73 44
Width: 232
GlyphClass: 2
Flags: W
LayerCount: 2
Fore
SplineSet
78 0 m 1,0,-1
 238 692 l 1,1,-1
 314 692 l 1,2,-1
 154 0 l 1,3,-1
 78 0 l 1,0,-1
EndSplineSet
Position2: "'cpsp' Capital Spacing in Latin lookup 0 subtable" dx=5 dy=0 dh=10 dv=0
EndChar

StartChar: J
Encoding: 74 74 45
Width: 265
GlyphClass: 2
Flags: W
LayerCount: 2
Fore
SplineSet
350 692 m 1,0,-1
 218 118 l 2,1,2
 198 32 198 32 179 -4 c 128,-1,3
 160 -40 160 -40 123 -55 c 128,-1,4
 86 -70 86 -70 7 -70 c 1,5,-1
 19 -2 l 1,6,7
 81 -2 81 -2 102 19.5 c 128,-1,8
 123 41 123 41 142 124 c 2,9,-1
 274 692 l 1,10,-1
 350 692 l 1,0,-1
EndSplineSet
Position2: "'cpsp' Capital Spacing in Latin lookup 0 subtable" dx=5 dy=0 dh=10 dv=0
EndChar

StartChar: K
Encoding: 75 75 46
Width: 521
GlyphClass: 2
Flags: W
LayerCount: 2
Fore
SplineSet
422 0 m 1,0,-1
 324 307 l 1,1,-1
 224 304 l 1,2,-1
 154 0 l 1,3,-1
 78 0 l 1,4,-1
 238 692 l 1,5,-1
 314 692 l 1,6,-1
 240 372 l 1,7,-1
 331 375 l 1,8,-1
 576 692 l 1,9,-1
 662 692 l 1,10,-1
 393 343 l 1,11,-1
 503 0 l 1,12,-1
 422 0 l 1,0,-1
EndSplineSet
Position2: "'cpsp' Capital Spacing in Latin lookup 0 subtable" dx=5 dy=0 dh=10 dv=0
EndChar

StartChar: L
Encoding: 76 76 47
Width: 433
GlyphClass: 2
Flags: W
LayerCount: 2
Fore
SplineSet
427 0 m 1,0,-1
 78 0 l 1,1,-1
 238 692 l 1,2,-1
 314 692 l 1,3,-1
 170 68 l 1,4,-1
 442 68 l 1,5,-1
 427 0 l 1,0,-1
EndSplineSet
Position2: "'cpsp' Capital Spacing in Latin lookup 0 subtable" dx=5 dy=0 dh=10 dv=0
EndChar

StartChar: M
Encoding: 77 77 48
Width: 780
GlyphClass: 2
Flags: W
LayerCount: 2
Fore
SplineSet
78 0 m 1,0,-1
 238 692 l 1,1,-1
 367 692 l 1,2,-1
 411 106 l 1,3,-1
 731 692 l 1,4,-1
 862 692 l 1,5,-1
 702 0 l 1,6,-1
 626 0 l 1,7,-1
 771 624 l 1,8,-1
 760 624 l 1,9,-1
 434 25 l 1,10,-1
 354 25 l 1,11,-1
 308 624 l 1,12,-1
 298 624 l 1,13,-1
 154 0 l 1,14,-1
 78 0 l 1,0,-1
EndSplineSet
Position2: "'cpsp' Capital Spacing in Latin lookup 0 subtable" dx=5 dy=0 dh=10 dv=0
EndChar

StartChar: N
Encoding: 78 78 49
Width: 631
GlyphClass: 2
Flags: W
LayerCount: 2
Fore
SplineSet
78 0 m 1,0,-1
 238 692 l 1,1,-1
 374 692 l 1,2,-1
 478 79 l 1,3,-1
 497 79 l 1,4,-1
 638 692 l 1,5,-1
 713 692 l 1,6,-1
 553 0 l 1,7,-1
 422 0 l 1,8,-1
 314 617 l 1,9,-1
 294 617 l 1,10,-1
 151 0 l 1,11,-1
 78 0 l 1,0,-1
EndSplineSet
Position2: "'cpsp' Capital Spacing in Latin lookup 0 subtable" dx=5 dy=0 dh=10 dv=0
EndChar

StartChar: O
Encoding: 79 79 50
Width: 628
GlyphClass: 2
Flags: W
LayerCount: 2
Fore
SplineSet
225 90.5 m 128,-1,1
 257 58 257 58 329.5 58 c 128,-1,2
 402 58 402 58 451 98 c 0,3,4
 519 154 519 154 555.5 266 c 128,-1,5
 592 378 592 378 592 490 c 0,6,7
 592 565 592 565 558.5 599.5 c 128,-1,8
 525 634 525 634 456.5 634 c 128,-1,9
 388 634 388 634 342 597 c 0,10,11
 273 540 273 540 233 424 c 128,-1,12
 193 308 193 308 193 215.5 c 128,-1,0
 193 123 193 123 225 90.5 c 128,-1,1
629.5 239 m 128,-1,14
 587 118 587 118 509 54 c 128,-1,15
 431 -10 431 -10 323.5 -10 c 128,-1,16
 216 -10 216 -10 165 38.5 c 128,-1,17
 114 87 114 87 114 206 c 128,-1,18
 114 325 114 325 155.5 443 c 128,-1,19
 197 561 197 561 274 631.5 c 128,-1,20
 351 702 351 702 457 702 c 0,21,22
 672 702 672 702 672 495 c 0,23,13
 672 360 672 360 629.5 239 c 128,-1,14
EndSplineSet
Position2: "'cpsp' Capital Spacing in Latin lookup 0 subtable" dx=5 dy=0 dh=10 dv=0
EndChar

StartChar: P
Encoding: 80 80 51
Width: 547
GlyphClass: 2
Flags: W
LayerCount: 2
Fore
SplineSet
359 232 m 2,0,-1
 208 232 l 1,1,-1
 154 0 l 1,2,-1
 78 0 l 1,3,-1
 238 692 l 1,4,-1
 456 692 l 2,5,6
 545 692 545 692 586 651.5 c 128,-1,7
 627 611 627 611 627 528 c 0,8,9
 627 395 627 395 556.5 313.5 c 128,-1,10
 486 232 486 232 359 232 c 2,0,-1
371 300 m 2,11,12
 456 300 456 300 501.5 364 c 128,-1,13
 547 428 547 428 547 527 c 0,14,15
 547 576 547 576 523.5 600 c 128,-1,16
 500 624 500 624 447 624 c 2,17,-1
 298 624 l 1,18,-1
 224 300 l 1,19,-1
 371 300 l 2,11,12
EndSplineSet
Position2: "'cpsp' Capital Spacing in Latin lookup 0 subtable" dx=5 dy=0 dh=10 dv=0
EndChar

StartChar: Q
Encoding: 81 81 52
Width: 628
GlyphClass: 2
Flags: W
LayerCount: 2
Fore
SplineSet
326 -10 m 0,0,1
 216 -10 216 -10 165 38.5 c 128,-1,2
 114 87 114 87 114 206 c 128,-1,3
 114 325 114 325 155.5 443 c 128,-1,4
 197 561 197 561 274 631.5 c 128,-1,5
 351 702 351 702 457 702 c 0,6,7
 672 702 672 702 672 495 c 0,8,9
 672 360 672 360 629.5 239 c 128,-1,10
 587 118 587 118 506 51 c 0,11,12
 486 34 486 34 460 21 c 1,13,-1
 508 -121 l 1,14,-1
 435 -145 l 1,15,-1
 390 -3 l 1,16,17
 355 -10 355 -10 326 -10 c 0,0,1
225 90.5 m 128,-1,19
 257 58 257 58 329.5 58 c 128,-1,20
 402 58 402 58 451 98 c 0,21,22
 519 154 519 154 555.5 266 c 128,-1,23
 592 378 592 378 592 490 c 0,24,25
 592 565 592 565 558.5 599.5 c 128,-1,26
 525 634 525 634 456.5 634 c 128,-1,27
 388 634 388 634 342 597 c 0,28,29
 273 540 273 540 233 424 c 128,-1,30
 193 308 193 308 193 215.5 c 128,-1,18
 193 123 193 123 225 90.5 c 128,-1,19
EndSplineSet
Position2: "'cpsp' Capital Spacing in Latin lookup 0 subtable" dx=5 dy=0 dh=10 dv=0
EndChar

StartChar: R
Encoding: 82 82 53
Width: 564
GlyphClass: 2
Flags: W
LayerCount: 2
Fore
SplineSet
449 692 m 2,0,1
 540 692 540 692 584.5 653 c 128,-1,2
 629 614 629 614 629 515.5 c 128,-1,3
 629 417 629 417 575.5 353 c 128,-1,4
 522 289 522 289 451 269 c 1,5,-1
 527 0 l 1,6,-1
 450 0 l 1,7,-1
 379 259 l 1,8,-1
 215 259 l 1,9,-1
 154 0 l 1,10,-1
 78 0 l 1,11,-1
 238 692 l 1,12,-1
 449 692 l 2,0,1
549 523 m 0,13,14
 549 579 549 579 524 602 c 128,-1,15
 499 625 499 625 441 625 c 2,16,-1
 299 625 l 1,17,-1
 230 326 l 1,18,-1
 377 326 l 2,19,20
 455 326 455 326 502 381 c 128,-1,21
 549 436 549 436 549 523 c 0,13,14
EndSplineSet
Position2: "'cpsp' Capital Spacing in Latin lookup 0 subtable" dx=5 dy=0 dh=10 dv=0
EndChar

StartChar: S
Encoding: 83 83 54
Width: 499
GlyphClass: 2
Flags: W
LayerCount: 2
Fore
SplineSet
577 617 m 1,0,1
 471 635 471 635 398 635 c 128,-1,2
 325 635 325 635 282.5 597.5 c 128,-1,3
 240 560 240 560 240 489 c 0,4,5
 240 449 240 449 264.5 431 c 128,-1,6
 289 413 289 413 366.5 385.5 c 128,-1,7
 444 358 444 358 474.5 326 c 128,-1,8
 505 294 505 294 505 229 c 0,9,10
 505 117 505 117 438 53.5 c 128,-1,11
 371 -10 371 -10 257 -10 c 0,12,13
 172 -10 172 -10 85 10 c 1,14,-1
 56 16 l 1,15,-1
 69 76 l 1,16,17
 185 58 185 58 262 58 c 128,-1,18
 339 58 339 58 382.5 100.5 c 128,-1,19
 426 143 426 143 426 222 c 0,20,21
 426 263 426 263 404 282.5 c 128,-1,22
 382 302 382 302 307 328 c 128,-1,23
 232 354 232 354 197 386 c 128,-1,24
 162 418 162 418 162 483 c 0,25,26
 162 585 162 585 227.5 643.5 c 128,-1,27
 293 702 293 702 404 702 c 0,28,29
 486 702 486 702 564 681 c 2,30,-1
 590 674 l 1,31,-1
 577 617 l 1,0,1
EndSplineSet
Position2: "'cpsp' Capital Spacing in Latin lookup 0 subtable" dx=5 dy=0 dh=10 dv=0
EndChar

StartChar: T
Encoding: 84 84 55
Width: 469
GlyphClass: 2
Flags: W
LayerCount: 2
Fore
SplineSet
154 624 m 1,0,-1
 170 692 l 1,1,-1
 617 692 l 1,2,-1
 601 624 l 1,3,-1
 415 624 l 1,4,-1
 271 0 l 1,5,-1
 195 0 l 1,6,-1
 339 624 l 1,7,-1
 154 624 l 1,0,-1
EndSplineSet
Position2: "'cpsp' Capital Spacing in Latin lookup 0 subtable" dx=5 dy=0 dh=10 dv=0
EndChar

StartChar: U
Encoding: 85 85 56
Width: 594
GlyphClass: 2
Flags: W
LayerCount: 2
Fore
SplineSet
189 144 m 0,0,1
 189 58 189 58 317 58 c 0,2,3
 396 58 396 58 435.5 95 c 128,-1,4
 475 132 475 132 493 211 c 2,5,-1
 604 692 l 1,6,-1
 681 692 l 1,7,-1
 570 211 l 2,8,9
 544 97 544 97 483.5 43.5 c 128,-1,10
 423 -10 423 -10 320 -10 c 0,11,12
 113 -10 113 -10 113 134 c 0,13,14
 113 183 113 183 124 225 c 1,15,-1
 232 692 l 1,16,-1
 309 692 l 1,17,-1
 199 217 l 2,18,19
 189 177 189 177 189 144 c 0,0,1
EndSplineSet
Position2: "'cpsp' Capital Spacing in Latin lookup 0 subtable" dx=5 dy=0 dh=10 dv=0
EndChar

StartChar: V
Encoding: 86 86 57
Width: 545
GlyphClass: 2
Flags: W
LayerCount: 2
Fore
SplineSet
601 692 m 1,0,-1
 678 692 l 1,1,-1
 348 0 l 1,2,-1
 190 0 l 1,3,-1
 181 692 l 1,4,-1
 258 692 l 1,5,-1
 261 68 l 1,6,-1
 306 68 l 1,7,-1
 601 692 l 1,0,-1
EndSplineSet
Position2: "'cpsp' Capital Spacing in Latin lookup 0 subtable" dx=5 dy=0 dh=10 dv=0
EndChar

StartChar: W
Encoding: 87 87 58
Width: 829
GlyphClass: 2
Flags: W
LayerCount: 2
Fore
SplineSet
187 692 m 1,0,-1
 263 692 l 1,1,-1
 232 71 l 1,2,-1
 258 71 l 1,3,-1
 527 682 l 1,4,-1
 611 682 l 1,5,-1
 592 71 l 1,6,-1
 618 71 l 1,7,-1
 880 692 l 1,8,-1
 957 692 l 1,9,-1
 659 0 l 1,10,-1
 526 0 l 1,11,-1
 545 570 l 1,12,-1
 297 0 l 1,13,-1
 160 0 l 1,14,-1
 187 692 l 1,0,-1
EndSplineSet
Position2: "'cpsp' Capital Spacing in Latin lookup 0 subtable" dx=5 dy=0 dh=10 dv=0
EndChar

StartChar: X
Encoding: 88 88 59
Width: 513
GlyphClass: 2
Flags: W
LayerCount: 2
Fore
SplineSet
261 692 m 1,0,-1
 351 404 l 1,1,-1
 575 692 l 1,2,-1
 659 692 l 1,3,-1
 383 343 l 1,4,-1
 495 0 l 1,5,-1
 416 0 l 1,6,-1
 324 287 l 1,7,-1
 97 0 l 1,8,-1
 12 0 l 1,9,-1
 292 347 l 1,10,-1
 181 692 l 1,11,-1
 261 692 l 1,0,-1
EndSplineSet
Position2: "'cpsp' Capital Spacing in Latin lookup 0 subtable" dx=5 dy=0 dh=10 dv=0
EndChar

StartChar: Y
Encoding: 89 89 60
Width: 493
GlyphClass: 2
Flags: W
LayerCount: 2
Fore
SplineSet
641 692 m 1,0,-1
 348 296 l 1,1,-1
 279 0 l 1,2,-1
 206 0 l 1,3,-1
 276 302 l 1,4,-1
 170 692 l 1,5,-1
 248 692 l 1,6,-1
 329 369 l 1,7,-1
 558 692 l 1,8,-1
 641 692 l 1,0,-1
EndSplineSet
Position2: "'cpsp' Capital Spacing in Latin lookup 0 subtable" dx=5 dy=0 dh=10 dv=0
EndChar

StartChar: Z
Encoding: 90 90 61
Width: 495
GlyphClass: 2
Flags: W
LayerCount: 2
Fore
SplineSet
184 624 m 1,0,-1
 200 692 l 1,1,-1
 616 692 l 1,2,-1
 592 590 l 1,3,-1
 144 92 l 1,4,-1
 138 68 l 1,5,-1
 470 68 l 1,6,-1
 454 0 l 1,7,-1
 38 0 l 1,8,-1
 60 99 l 1,9,-1
 508 597 l 1,10,-1
 514 624 l 1,11,-1
 184 624 l 1,0,-1
EndSplineSet
Position2: "'cpsp' Capital Spacing in Latin lookup 0 subtable" dx=5 dy=0 dh=10 dv=0
EndChar

StartChar: bracketleft
Encoding: 91 91 62
Width: 276
GlyphClass: 2
Flags: W
LayerCount: 2
Fore
SplineSet
228 747 m 1,0,-1
 423 747 l 1,1,-1
 408 682 l 1,2,-1
 289 682 l 1,3,-1
 116 -57 l 1,4,-1
 235 -57 l 1,5,-1
 218 -122 l 1,6,-1
 25 -122 l 1,7,-1
 228 747 l 1,0,-1
EndSplineSet
Substitution2: "'case' Case-Sensitive Forms in Latin lookup 4 subtable" bracketleft.cap
EndChar

StartChar: backslash
Encoding: 92 92 63
Width: 426
GlyphClass: 2
Flags: W
LayerCount: 2
Fore
SplineSet
398 8 m 1,0,-1
 320 0 l 1,1,-1
 188 693 l 1,2,-1
 267 701 l 1,3,-1
 398 8 l 1,0,-1
EndSplineSet
EndChar

StartChar: bracketright
Encoding: 93 93 64
Width: 276
GlyphClass: 2
Flags: W
LayerCount: 2
Fore
SplineSet
193 -121 m 1,0,-1
 -2 -121 l 1,1,-1
 13 -56 l 1,2,-1
 132 -56 l 1,3,-1
 305 683 l 1,4,-1
 186 683 l 1,5,-1
 203 748 l 1,6,-1
 396 748 l 1,7,-1
 193 -121 l 1,0,-1
EndSplineSet
Substitution2: "'case' Case-Sensitive Forms in Latin lookup 4 subtable" bracketright.cap
EndChar

StartChar: asciicircum
Encoding: 94 94 65
Width: 560
GlyphClass: 2
Flags: W
LayerCount: 2
Fore
SplineSet
480 319 m 1,0,-1
 336 586 l 1,1,-1
 196 319 l 1,2,-1
 116 319 l 1,3,-1
 302 660 l 1,4,-1
 369 660 l 1,5,-1
 560 319 l 1,6,-1
 480 319 l 1,0,-1
EndSplineSet
EndChar

StartChar: underscore
Encoding: 95 95 66
Width: 577
GlyphClass: 2
Flags: W
LayerCount: 2
Fore
SplineSet
46 -79 m 1,0,-1
 494 -79 l 1,1,-1
 477 -152 l 1,2,-1
 30 -152 l 1,3,-1
 46 -79 l 1,0,-1
EndSplineSet
EndChar

StartChar: grave
Encoding: 96 96 67
Width: 518
GlyphClass: 2
Flags: W
LayerCount: 2
Fore
SplineSet
316 741 m 1,0,-1
 501 648 l 1,1,-1
 468 596 l 1,2,-1
 280 682 l 1,3,-1
 316 741 l 1,0,-1
EndSplineSet
EndChar

StartChar: a
Encoding: 97 97 68
Width: 500
GlyphClass: 2
Flags: W
LayerCount: 2
Fore
SplineSet
217 -10 m 0,0,1
 89 -10 89 -10 89 139 c 0,2,3
 89 222 89 222 115.5 304.5 c 128,-1,4
 142 387 142 387 202 448.5 c 128,-1,5
 262 510 262 510 341 510 c 0,6,7
 402 510 402 510 508 492 c 1,8,-1
 546 485 l 1,9,-1
 470 160 l 2,10,11
 456 104 456 104 446 28 c 1,12,-1
 442 2 l 1,13,-1
 369 -1 l 1,14,15
 383 85 383 85 387 106 c 1,16,17
 382 97 382 97 357.5 71.5 c 128,-1,18
 333 46 333 46 314 30.5 c 128,-1,19
 295 15 295 15 268 2.5 c 128,-1,20
 241 -10 241 -10 217 -10 c 0,0,1
459 431 m 1,21,22
 389 445 389 445 338.5 445 c 128,-1,23
 288 445 288 445 246 393.5 c 128,-1,24
 204 342 204 342 185 273.5 c 128,-1,25
 166 205 166 205 166 151 c 128,-1,26
 166 97 166 97 183 76 c 128,-1,27
 200 55 200 55 234 55 c 128,-1,28
 268 55 268 55 308.5 87.5 c 128,-1,29
 349 120 349 120 376 153 c 2,30,-1
 402 186 l 1,31,-1
 459 431 l 1,21,22
EndSplineSet
EndChar

StartChar: b
Encoding: 98 98 69
Width: 499
GlyphClass: 2
Flags: W
LayerCount: 2
Fore
SplineSet
392 510 m 0,0,1
 467 510 467 510 496 470 c 128,-1,2
 525 430 525 430 525 357 c 0,3,4
 525 262 525 262 487 168 c 0,5,6
 443 60 443 60 366 15 c 0,7,8
 322 -10 322 -10 278 -10 c 0,9,10
 194 -10 194 -10 102 8 c 1,11,-1
 69 15 l 1,12,-1
 231 718 l 1,13,-1
 305 718 l 1,14,-1
 240 434 l 1,15,16
 289 483 289 483 346 502 c 0,17,18
 370 510 370 510 392 510 c 0,0,1
155 68 m 1,19,20
 225 55 225 55 271 55 c 128,-1,21
 317 55 317 55 354 90 c 128,-1,22
 391 125 391 125 410 176 c 0,23,24
 448 280 448 280 448 339 c 128,-1,25
 448 398 448 398 432.5 421.5 c 128,-1,26
 417 445 417 445 370 445 c 0,27,28
 342 445 342 445 305 423.5 c 128,-1,29
 268 402 268 402 246 380 c 1,30,-1
 223 359 l 1,31,-1
 155 68 l 1,19,20
EndSplineSet
EndChar

StartChar: c
Encoding: 99 99 70
Width: 405
GlyphClass: 2
Flags: W
LayerCount: 2
Fore
SplineSet
355 510 m 0,0,1
 402 510 402 510 462 496 c 1,2,-1
 480 491 l 1,3,-1
 461 433 l 1,4,5
 396 445 396 445 353 445 c 0,6,7
 293 445 293 445 250 401 c 0,8,9
 169 320 169 320 169 156 c 0,10,11
 169 106 169 106 193 80.5 c 128,-1,12
 217 55 217 55 272 55 c 0,13,14
 311 55 311 55 364 66 c 2,15,-1
 384 70 l 1,16,-1
 379 11 l 1,17,18
 310 -10 310 -10 240.5 -10 c 128,-1,19
 171 -10 171 -10 131.5 29.5 c 128,-1,20
 92 69 92 69 92 142 c 0,21,22
 92 356 92 356 208 457 c 0,23,24
 269 510 269 510 355 510 c 0,0,1
EndSplineSet
EndChar

StartChar: d
Encoding: 100 100 71
Width: 500
GlyphClass: 2
Flags: W
LayerCount: 2
Fore
SplineSet
215 -10 m 0,0,1
 89 -10 89 -10 89 136 c 0,2,3
 89 224 89 224 117 308 c 128,-1,4
 145 392 145 392 204 451 c 128,-1,5
 263 510 263 510 339 510 c 0,6,7
 390 510 390 510 452 496 c 1,8,-1
 472 492 l 1,9,-1
 525 718 l 1,10,-1
 600 718 l 1,11,-1
 433 0 l 1,12,-1
 361 0 l 1,13,-1
 380 89 l 1,14,15
 371 76 371 76 350.5 56.5 c 128,-1,16
 330 37 330 37 312 24 c 0,17,18
 263 -10 263 -10 215 -10 c 0,0,1
459 430 m 1,19,20
 393 445 393 445 339.5 445 c 128,-1,21
 286 445 286 445 245 393 c 128,-1,22
 204 341 204 341 185 272 c 128,-1,23
 166 203 166 203 166 137 c 0,24,25
 166 55 166 55 238 55 c 0,26,27
 268 55 268 55 308 84.5 c 128,-1,28
 348 114 348 114 374 144 c 2,29,-1
 399 173 l 1,30,-1
 459 430 l 1,19,20
EndSplineSet
EndChar

StartChar: e
Encoding: 101 101 72
Width: 462
GlyphClass: 2
Flags: W
LayerCount: 2
Fore
SplineSet
192 79.5 m 128,-1,1
 218 56 218 56 256 56 c 0,2,3
 327 56 327 56 402 72 c 1,4,-1
 427 78 l 1,5,-1
 421 19 l 1,6,7
 332 -10 332 -10 250 -10 c 0,8,9
 91 -10 91 -10 91 142 c 0,10,11
 91 281 91 281 154 390 c 0,12,13
 186 444 186 444 239.5 477 c 128,-1,14
 293 510 293 510 360 510 c 0,15,16
 508 510 508 510 508 388 c 0,17,18
 508 299 508 299 441 263.5 c 128,-1,19
 374 228 374 228 228 228 c 2,20,-1
 177 228 l 1,21,22
 166 189 166 189 166 146 c 128,-1,0
 166 103 166 103 192 79.5 c 128,-1,1
242 287 m 2,23,24
 344 287 344 287 389 308.5 c 128,-1,25
 434 330 434 330 434 387 c 0,26,27
 434 447 434 447 357 447 c 0,28,29
 234 447 234 447 187 287 c 1,30,-1
 242 287 l 2,23,24
EndSplineSet
EndChar

StartChar: f
Encoding: 102 102 73
Width: 309
GlyphClass: 2
Flags: W
LayerCount: 2
Fore
SplineSet
380 728 m 0,0,1
 414 728 414 728 452 718 c 1,2,-1
 464 714 l 1,3,-1
 450 656 l 1,4,5
 410 663 410 663 375 663 c 128,-1,6
 340 663 340 663 320.5 635 c 128,-1,7
 301 607 301 607 284 542 c 1,8,-1
 274 500 l 1,9,-1
 408 500 l 1,10,-1
 392 435 l 1,11,-1
 260 435 l 1,12,-1
 159 0 l 1,13,-1
 98 -222 l 1,14,-1
 33 -222 l 1,15,-1
 185 434 l 1,16,-1
 128 434 l 1,17,-1
 144 500 l 1,18,-1
 199 500 l 1,19,-1
 210 543 l 1,20,21
 234 645 234 645 271.5 686.5 c 128,-1,22
 309 728 309 728 380 728 c 0,0,1
EndSplineSet
EndChar

StartChar: g
Encoding: 103 103 74
Width: 468
GlyphClass: 2
Flags: W
LayerCount: 2
Fore
SplineSet
197 -235 m 0,0,1
 114 -235 114 -235 66 -200.5 c 128,-1,2
 18 -166 18 -166 18 -104 c 0,3,4
 18 -19 18 -19 150 49 c 1,5,6
 134 65 134 65 134 88.5 c 128,-1,7
 134 112 134 112 148 136 c 128,-1,8
 162 160 162 160 176 174 c 1,9,-1
 189 189 l 1,10,11
 120 221 120 221 120 304 c 128,-1,12
 120 387 120 387 175 448.5 c 128,-1,13
 230 510 230 510 321 510 c 0,14,15
 367 510 367 510 404 498 c 2,16,-1
 417 494 l 1,17,-1
 565 500 l 1,18,-1
 550 436 l 1,19,-1
 461 436 l 1,20,21
 478 408 478 408 478 367 c 0,22,23
 478 292 478 292 421.5 231 c 128,-1,24
 365 170 365 170 267 170 c 1,25,-1
 234 173 l 1,26,27
 203 133 203 133 203 112 c 128,-1,28
 203 91 203 91 222 83.5 c 128,-1,29
 241 76 241 76 308 67.5 c 128,-1,30
 375 59 375 59 411 32.5 c 128,-1,31
 447 6 447 6 447 -50 c 0,32,33
 447 -127 447 -127 378.5 -181 c 128,-1,34
 310 -235 310 -235 197 -235 c 0,0,1
119 -27 m 128,-1,36
 89 -57 89 -57 89 -91 c 128,-1,37
 89 -125 89 -125 117 -148 c 128,-1,38
 145 -171 145 -171 208.5 -171 c 128,-1,39
 272 -171 272 -171 323 -140 c 128,-1,40
 374 -109 374 -109 374 -56 c 0,41,42
 374 -26 374 -26 352.5 -13 c 128,-1,43
 331 0 331 0 273 7 c 128,-1,44
 215 14 215 14 189 23 c 1,45,35
 149 3 149 3 119 -27 c 128,-1,36
274 232 m 0,46,47
 337 232 337 232 372 274.5 c 128,-1,48
 407 317 407 317 407 361 c 128,-1,49
 407 405 407 405 386 426 c 128,-1,50
 365 447 365 447 312.5 447 c 128,-1,51
 260 447 260 447 225.5 404.5 c 128,-1,52
 191 362 191 362 191 312 c 0,53,54
 191 232 191 232 274 232 c 0,46,47
EndSplineSet
EndChar

StartChar: h
Encoding: 104 104 75
Width: 499
GlyphClass: 2
Flags: W
LayerCount: 2
Fore
SplineSet
398 510 m 0,0,1
 456 510 456 510 486 476 c 128,-1,2
 516 442 516 442 516 390 c 128,-1,3
 516 338 516 338 495 252 c 1,4,-1
 437 0 l 1,5,-1
 363 0 l 1,6,-1
 421 249 l 1,7,8
 439 331 439 331 439 369 c 0,9,10
 439 444 439 444 372 444 c 0,11,12
 323 444 323 444 252 371 c 0,13,14
 236 354 236 354 226 342 c 2,15,-1
 217 331 l 1,16,-1
 141 0 l 1,17,-1
 66 0 l 1,18,-1
 232 718 l 1,19,-1
 307 718 l 1,20,-1
 236 412 l 1,21,22
 245 423 245 423 260 439.5 c 128,-1,23
 275 456 275 456 317.5 483 c 128,-1,24
 360 510 360 510 398 510 c 0,0,1
EndSplineSet
EndChar

StartChar: i
Encoding: 105 105 76
Width: 206
GlyphClass: 2
Flags: W
LayerCount: 2
Fore
SplineSet
66 0 m 1,0,-1
 181 500 l 1,1,-1
 256 500 l 1,2,-1
 140 0 l 1,3,-1
 66 0 l 1,0,-1
204 604 m 1,4,-1
 226 694 l 1,5,-1
 301 694 l 1,6,-1
 280 604 l 1,7,-1
 204 604 l 1,4,-1
EndSplineSet
EndChar

StartChar: j
Encoding: 106 106 77
Width: 206
GlyphClass: 2
Flags: W
LayerCount: 2
Fore
SplineSet
66 0 m 2,0,-1
 181 500 l 1,1,-1
 256 500 l 1,2,-1
 140 0 l 2,3,4
 115 -111 115 -111 84 -146.5 c 128,-1,5
 53 -182 53 -182 -63 -235 c 1,6,-1
 -87 -175 l 1,7,8
 2 -129 2 -129 25 -103 c 128,-1,9
 48 -77 48 -77 66 0 c 2,0,-1
205 602 m 1,10,-1
 226 692 l 1,11,-1
 301 692 l 1,12,-1
 281 602 l 1,13,-1
 205 602 l 1,10,-1
EndSplineSet
EndChar

StartChar: k
Encoding: 107 107 78
Width: 445
GlyphClass: 2
Flags: W
LayerCount: 2
Fore
SplineSet
141 0 m 1,0,-1
 66 0 l 1,1,-1
 232 718 l 1,2,-1
 307 718 l 1,3,-1
 210 300 l 1,4,-1
 274 303 l 1,5,-1
 455 500 l 1,6,-1
 542 500 l 1,7,-1
 330 268 l 1,8,-1
 425 0 l 1,9,-1
 346 0 l 1,10,-1
 262 239 l 1,11,-1
 195 237 l 1,12,-1
 141 0 l 1,0,-1
EndSplineSet
EndChar

StartChar: l
Encoding: 108 108 79
Width: 215
GlyphClass: 2
Flags: W
LayerCount: 2
Fore
SplineSet
70 0 m 1,0,-1
 236 718 l 1,1,-1
 310 718 l 1,2,-1
 145 0 l 1,3,-1
 70 0 l 1,0,-1
EndSplineSet
EndChar

StartChar: m
Encoding: 109 109 80
Width: 775
GlyphClass: 2
Flags: W
LayerCount: 2
Fore
SplineSet
438 369 m 0,0,1
 438 444 438 444 370 444 c 0,2,3
 341 444 341 444 302.5 416 c 128,-1,4
 264 388 264 388 240 360 c 2,5,-1
 217 332 l 1,6,-1
 140 0 l 1,7,-1
 66 0 l 1,8,-1
 181 500 l 1,9,-1
 254 500 l 1,10,-1
 236 413 l 1,11,12
 259 443 259 443 290 466 c 0,13,14
 351 510 351 510 399 510 c 0,15,16
 455 510 455 510 480 479 c 0,17,18
 503 451 503 451 508 421 c 1,19,20
 517 431 517 431 533.5 446 c 128,-1,21
 550 461 550 461 594 485.5 c 128,-1,22
 638 510 638 510 675 510 c 0,23,24
 733 510 733 510 762.5 476 c 128,-1,25
 792 442 792 442 792 392 c 128,-1,26
 792 342 792 342 772 252 c 2,27,-1
 714 0 l 1,28,-1
 639 0 l 1,29,-1
 697 249 l 1,30,31
 716 325 716 325 716 368 c 0,32,33
 716 444 716 444 650 444 c 0,34,35
 622 444 622 444 587.5 421.5 c 128,-1,36
 553 399 553 399 532 376 c 2,37,-1
 511 354 l 1,38,39
 508 307 508 307 494 252 c 1,40,-1
 436 0 l 1,41,-1
 361 0 l 1,42,-1
 419 249 l 1,43,44
 438 325 438 325 438 369 c 0,0,1
EndSplineSet
EndChar

StartChar: n
Encoding: 110 110 81
Width: 498
GlyphClass: 2
Flags: W
LayerCount: 2
Fore
SplineSet
397 510 m 0,0,1
 455 510 455 510 485 476 c 128,-1,2
 515 442 515 442 515 388 c 128,-1,3
 515 334 515 334 495 254 c 1,4,-1
 436 0 l 1,5,-1
 362 0 l 1,6,-1
 420 249 l 1,7,8
 439 325 439 325 439 369 c 0,9,10
 439 444 439 444 371 444 c 0,11,12
 341 444 341 444 302.5 416 c 128,-1,13
 264 388 264 388 240 360 c 2,14,-1
 217 332 l 1,15,-1
 140 0 l 1,16,-1
 66 0 l 1,17,-1
 181 500 l 1,18,-1
 254 500 l 1,19,-1
 236 413 l 1,20,21
 245 424 245 424 259.5 440 c 128,-1,22
 274 456 274 456 316.5 483 c 128,-1,23
 359 510 359 510 397 510 c 0,0,1
EndSplineSet
EndChar

StartChar: o
Encoding: 111 111 82
Width: 494
GlyphClass: 2
Flags: W
LayerCount: 2
Fore
SplineSet
343 510 m 0,0,1
 516 510 516 510 516 340 c 0,2,3
 516 247 516 247 486.5 168 c 128,-1,4
 457 89 457 89 398 39.5 c 128,-1,5
 339 -10 339 -10 262 -10 c 0,6,7
 91 -10 91 -10 91 154 c 0,8,9
 91 298 91 298 162.5 404 c 128,-1,10
 234 510 234 510 343 510 c 0,0,1
262 55 m 0,11,12
 342 55 342 55 391.5 139.5 c 128,-1,13
 441 224 441 224 441 341 c 0,14,15
 441 389 441 389 416.5 417 c 128,-1,16
 392 445 392 445 343 445 c 0,17,18
 265 445 265 445 215.5 357.5 c 128,-1,19
 166 270 166 270 166 153 c 0,20,21
 166 55 166 55 262 55 c 0,11,12
EndSplineSet
EndChar

StartChar: p
Encoding: 112 112 83
Width: 499
GlyphClass: 2
Flags: W
LayerCount: 2
Fore
SplineSet
396 510 m 0,0,1
 526 510 526 510 526 363 c 0,2,3
 526 231 526 231 462 116 c 1,4,5
 432 60 432 60 383 25 c 128,-1,6
 334 -10 334 -10 276 -10 c 128,-1,7
 218 -10 218 -10 162 4 c 2,8,-1
 142 9 l 1,9,-1
 89 -222 l 1,10,-1
 15 -222 l 1,11,-1
 181 500 l 1,12,-1
 254 500 l 1,13,-1
 235 411 l 1,14,15
 244 422 244 422 259 438.5 c 128,-1,16
 274 455 274 455 316.5 482.5 c 128,-1,17
 359 510 359 510 396 510 c 0,0,1
375 445 m 0,18,19
 347 445 347 445 307 415.5 c 128,-1,20
 267 386 267 386 242 356 c 1,21,-1
 216 327 l 1,22,-1
 156 70 l 1,23,24
 221 55 221 55 275 55 c 128,-1,25
 329 55 329 55 370.5 108 c 128,-1,26
 412 161 412 161 430.5 229 c 128,-1,27
 449 297 449 297 449 360 c 0,28,29
 449 445 449 445 375 445 c 0,18,19
EndSplineSet
EndChar

StartChar: q
Encoding: 113 113 84
Width: 498
GlyphClass: 2
Flags: W
LayerCount: 2
Fore
SplineSet
217 -10 m 0,0,1
 153 -10 153 -10 120.5 28.5 c 128,-1,2
 88 67 88 67 88 145 c 128,-1,3
 88 223 88 223 116 306.5 c 128,-1,4
 144 390 144 390 203 450 c 128,-1,5
 262 510 262 510 338 510 c 0,6,7
 410 510 410 510 510 492 c 1,8,-1
 545 485 l 1,9,-1
 383 -216 l 1,10,-1
 309 -216 l 1,11,-1
 379 89 l 1,12,13
 370 77 370 77 350 57 c 128,-1,14
 330 37 330 37 312 24 c 0,15,16
 263 -10 263 -10 217 -10 c 0,0,1
458 430 m 1,17,18
 394 445 394 445 340.5 445 c 128,-1,19
 287 445 287 445 245.5 394 c 128,-1,20
 204 343 204 343 184.5 274.5 c 128,-1,21
 165 206 165 206 165 140 c 0,22,23
 165 55 165 55 240 55 c 0,24,25
 268 55 268 55 308 84 c 128,-1,26
 348 113 348 113 374 142 c 1,27,-1
 399 172 l 1,28,-1
 458 430 l 1,17,18
EndSplineSet
EndChar

StartChar: r
Encoding: 114 114 85
Width: 316
GlyphClass: 2
Flags: W
LayerCount: 2
Fore
SplineSet
66 0 m 1,0,-1
 182 500 l 1,1,-1
 256 500 l 1,2,-1
 238 426 l 1,3,4
 331 493 331 493 419 511 c 1,5,-1
 399 434 l 1,6,7
 345 420 345 420 254 374 c 2,8,-1
 224 359 l 1,9,-1
 141 0 l 1,10,-1
 66 0 l 1,0,-1
EndSplineSet
EndChar

StartChar: s
Encoding: 115 115 86
Width: 429
GlyphClass: 2
Flags: W
LayerCount: 2
Fore
SplineSet
470 431 m 1,0,1
 375 445 375 445 317.5 445 c 128,-1,2
 260 445 260 445 229 416.5 c 128,-1,3
 198 388 198 388 198 348 c 0,4,5
 198 324 198 324 216 312 c 128,-1,6
 234 300 234 300 299.5 283 c 128,-1,7
 365 266 365 266 396 244.5 c 128,-1,8
 427 223 427 223 427 172 c 0,9,10
 427 84 427 84 366 37 c 128,-1,11
 305 -10 305 -10 209 -10 c 0,12,13
 145 -10 145 -10 74 8 c 1,14,-1
 51 13 l 1,15,-1
 65 71 l 1,16,17
 157 55 157 55 217.5 55 c 128,-1,18
 278 55 278 55 314 81 c 128,-1,19
 350 107 350 107 350 157 c 0,20,21
 350 185 350 185 331 196.5 c 128,-1,22
 312 208 312 208 248.5 223.5 c 128,-1,23
 185 239 185 239 154 261 c 128,-1,24
 123 283 123 283 123 330 c 0,25,26
 123 410 123 410 179 460 c 128,-1,27
 235 510 235 510 320 510 c 0,28,29
 395 510 395 510 462 494 c 1,30,-1
 485 489 l 1,31,-1
 470 431 l 1,0,1
EndSplineSet
EndChar

StartChar: t
Encoding: 116 116 87
Width: 318
GlyphClass: 2
Flags: W
LayerCount: 2
Fore
SplineSet
191 101 m 0,0,1
 191 55 191 55 241 55 c 1,2,-1
 318 61 l 1,3,-1
 313 4 l 1,4,5
 261 -10 261 -10 214 -10 c 128,-1,6
 167 -10 167 -10 140 15 c 128,-1,7
 113 40 113 40 113 82 c 128,-1,8
 113 124 113 124 129 188 c 2,9,-1
 187 435 l 1,10,-1
 121 435 l 1,11,-1
 138 500 l 1,12,-1
 203 500 l 1,13,-1
 238 648 l 1,14,-1
 313 648 l 1,15,-1
 277 500 l 1,16,-1
 417 500 l 1,17,-1
 401 435 l 1,18,-1
 261 435 l 1,19,-1
 203 184 l 2,20,21
 191 136 191 136 191 101 c 0,0,1
EndSplineSet
EndChar

StartChar: u
Encoding: 117 117 88
Width: 498
GlyphClass: 2
Flags: W
LayerCount: 2
Fore
SplineSet
216 -10 m 0,0,1
 158 -10 158 -10 128 24 c 128,-1,2
 98 58 98 58 98 112 c 128,-1,3
 98 166 98 166 118 246 c 1,4,-1
 177 500 l 1,5,-1
 251 500 l 1,6,-1
 193 251 l 1,7,8
 174 175 174 175 174 131 c 0,9,10
 174 56 174 56 242 56 c 0,11,12
 272 56 272 56 310.5 84 c 128,-1,13
 349 112 349 112 372 140 c 2,14,-1
 396 168 l 1,15,-1
 473 500 l 1,16,-1
 547 500 l 1,17,-1
 432 0 l 1,18,-1
 359 0 l 1,19,-1
 377 87 l 1,20,21
 368 76 368 76 353.5 60 c 128,-1,22
 339 44 339 44 296.5 17 c 128,-1,23
 254 -10 254 -10 216 -10 c 0,0,1
EndSplineSet
EndChar

StartChar: v
Encoding: 118 118 89
Width: 454
GlyphClass: 2
Flags: W
LayerCount: 2
Fore
SplineSet
139 500 m 1,0,-1
 213 500 l 1,1,-1
 221 64 l 1,2,-1
 252 64 l 1,3,-1
 469 500 l 1,4,-1
 546 500 l 1,5,-1
 292 0 l 1,6,-1
 152 0 l 1,7,-1
 139 500 l 1,0,-1
EndSplineSet
EndChar

StartChar: w
Encoding: 119 119 90
Width: 731
GlyphClass: 2
Flags: W
LayerCount: 2
Fore
SplineSet
144 500 m 1,0,-1
 219 500 l 1,1,-1
 210 65 l 1,2,-1
 229 65 l 1,3,-1
 434 490 l 1,4,-1
 522 490 l 1,5,-1
 526 65 l 1,6,-1
 545 65 l 1,7,-1
 741 500 l 1,8,-1
 817 500 l 1,9,-1
 590 0 l 1,10,-1
 457 0 l 1,11,-1
 454 393 l 1,12,-1
 267 0 l 1,13,-1
 137 0 l 1,14,-1
 144 500 l 1,0,-1
EndSplineSet
EndChar

StartChar: x
Encoding: 120 120 91
Width: 419
GlyphClass: 2
Flags: W
LayerCount: 2
Fore
SplineSet
137 500 m 1,0,-1
 214 500 l 1,1,-1
 281 303 l 1,2,-1
 437 500 l 1,3,-1
 517 500 l 1,4,-1
 308 244 l 1,5,-1
 397 0 l 1,6,-1
 319 0 l 1,7,-1
 254 193 l 1,8,-1
 100 0 l 1,9,-1
 19 0 l 1,10,-1
 225 250 l 1,11,-1
 137 500 l 1,0,-1
EndSplineSet
EndChar

StartChar: y
Encoding: 121 121 92
Width: 454
GlyphClass: 2
Flags: W
LayerCount: 2
Fore
SplineSet
139 500 m 1,0,-1
 213 500 l 1,1,-1
 221 64 l 1,2,-1
 251 64 l 1,3,-1
 469 500 l 1,4,-1
 546 500 l 1,5,-1
 181 -221 l 1,6,-1
 105 -221 l 1,7,-1
 220 0 l 1,8,-1
 152 0 l 1,9,-1
 139 500 l 1,0,-1
EndSplineSet
EndChar

StartChar: z
Encoding: 122 122 93
Width: 418
GlyphClass: 2
Flags: W
LayerCount: 2
Fore
SplineSet
138 435 m 1,0,-1
 154 500 l 1,1,-1
 495 500 l 1,2,-1
 481 436 l 1,3,-1
 140 65 l 1,4,-1
 395 65 l 1,5,-1
 380 0 l 1,6,-1
 38 0 l 1,7,-1
 50 64 l 1,8,-1
 390 435 l 1,9,-1
 138 435 l 1,0,-1
EndSplineSet
EndChar

StartChar: braceleft
Encoding: 123 123 94
Width: 313
GlyphClass: 2
Flags: W
LayerCount: 2
Fore
SplineSet
230 222 m 0,0,1
 230 204 230 204 206 121 c 128,-1,2
 182 38 182 38 182 10 c 0,3,4
 182 -59 182 -59 271 -59 c 1,5,-1
 252 -127 l 1,6,7
 108 -124 108 -124 108 -12 c 0,8,9
 108 19 108 19 131.5 103 c 128,-1,10
 155 187 155 187 155 210 c 0,11,12
 155 258 155 258 83 285 c 1,13,-1
 97 344 l 1,14,15
 162 361 162 361 184.5 385 c 128,-1,16
 207 409 207 409 218 459 c 0,17,18
 221 472 221 472 227 504 c 0,19,20
 242 587 242 587 247 599 c 1,21,22
 272 679 272 679 320.5 714 c 128,-1,23
 369 749 369 749 460 753 c 1,24,-1
 448 685 l 1,25,26
 384 681 384 681 353.5 653.5 c 128,-1,27
 323 626 323 626 310 570 c 0,28,29
 309 564 309 564 299.5 512.5 c 128,-1,30
 290 461 290 461 288 450 c 0,31,32
 274 388 274 388 247.5 359 c 128,-1,33
 221 330 221 330 167 312 c 1,34,35
 230 283 230 283 230 222 c 0,0,1
EndSplineSet
Substitution2: "'case' Case-Sensitive Forms in Latin lookup 4 subtable" braceleft.cap
EndChar

StartChar: bar
Encoding: 124 124 95
Width: 312
GlyphClass: 2
Flags: W
LayerCount: 2
Fore
SplineSet
176 -222 m 1,0,-1
 176 718 l 1,1,-1
 250 718 l 1,2,-1
 250 -222 l 1,3,-1
 176 -222 l 1,0,-1
EndSplineSet
EndChar

StartChar: braceright
Encoding: 125 125 96
Width: 312
GlyphClass: 2
Flags: W
LayerCount: 2
Fore
SplineSet
226 401 m 0,0,1
 226 420 226 420 250 503 c 128,-1,2
 274 586 274 586 274 613 c 0,3,4
 274 682 274 682 185 682 c 1,5,-1
 204 750 l 1,6,7
 348 747 348 747 348 635 c 0,8,9
 348 604 348 604 324.5 520 c 128,-1,10
 301 436 301 436 301 412 c 0,11,12
 301 365 301 365 373 338 c 1,13,-1
 359 279 l 1,14,15
 294 262 294 262 271.5 238 c 128,-1,16
 249 214 249 214 238 164 c 0,17,18
 235 151 235 151 229 118 c 0,19,20
 214 36 214 36 209 24 c 1,21,22
 184 -56 184 -56 135.5 -91 c 128,-1,23
 87 -126 87 -126 -4 -130 c 1,24,-1
 8 -62 l 1,25,26
 72 -58 72 -58 102.5 -30.5 c 128,-1,27
 133 -3 133 -3 146 53 c 0,28,29
 147 59 147 59 156.5 110.5 c 128,-1,30
 166 162 166 162 168 173 c 0,31,32
 182 235 182 235 208.5 264 c 128,-1,33
 235 293 235 293 289 311 c 1,34,35
 226 340 226 340 226 401 c 0,0,1
EndSplineSet
Substitution2: "'case' Case-Sensitive Forms in Latin lookup 4 subtable" braceright.cap
EndChar

StartChar: asciitilde
Encoding: 126 126 97
Width: 560
GlyphClass: 2
Flags: W
LayerCount: 2
Fore
SplineSet
439 195 m 0,0,1
 412 195 412 195 336.5 226 c 128,-1,2
 261 257 261 257 242.5 257 c 128,-1,3
 224 257 224 257 197.5 245.5 c 128,-1,4
 171 234 171 234 154 222 c 2,5,-1
 137 210 l 1,6,-1
 127 272 l 1,7,8
 189 325 189 325 243 325 c 0,9,10
 272 325 272 325 346.5 294.5 c 128,-1,11
 421 264 421 264 440 264 c 0,12,13
 476 264 476 264 527 298 c 1,14,-1
 544 310 l 1,15,-1
 554 249 l 1,16,17
 491 195 491 195 439 195 c 0,0,1
EndSplineSet
EndChar

StartChar: exclamdown
Encoding: 161 161 99
Width: 178
GlyphClass: 2
Flags: W
LayerCount: 2
Fore
SplineSet
187 270 m 1,0,-1
 81 -200 l 1,1,-1
 4 -200 l 1,2,-1
 120 270 l 1,3,-1
 187 270 l 1,0,-1
240 500 m 1,4,-1
 215 389 l 1,5,-1
 139 389 l 1,6,-1
 164 500 l 1,7,-1
 240 500 l 1,4,-1
EndSplineSet
Substitution2: "'case' Case-Sensitive Forms in Latin lookup 4 subtable" exclamdown.cap
EndChar

StartChar: cent
Encoding: 162 162 100
Width: 560
GlyphClass: 2
Flags: W
LayerCount: 2
Fore
SplineSet
207 55.5 m 128,-1,1
 177 74 177 74 166.5 103.5 c 128,-1,2
 156 133 156 133 156 151 c 128,-1,3
 156 169 156 169 156.5 188 c 128,-1,4
 157 207 157 207 167 248 c 0,5,6
 194 352 194 352 250 406 c 128,-1,7
 306 460 306 460 385 463 c 1,8,-1
 413 582 l 1,9,-1
 476 582 l 1,10,-1
 447 462 l 1,11,-1
 539 452 l 1,12,-1
 519 386 l 1,13,14
 438 393 438 393 402 393 c 0,15,16
 277 393 277 393 241 248 c 0,17,18
 231 204 231 204 231 174 c 128,-1,19
 231 144 231 144 256.5 125.5 c 128,-1,20
 282 107 282 107 335 107 c 1,21,-1
 459 113 l 1,22,-1
 445 48 l 1,23,24
 388 41 388 41 348 40 c 1,25,-1
 320 -80 l 1,26,-1
 257 -80 l 1,27,-1
 284 36 l 1,28,0
 237 37 237 37 207 55.5 c 128,-1,1
EndSplineSet
EndChar

StartChar: sterling
Encoding: 163 163 101
Width: 560
GlyphClass: 2
Flags: W
LayerCount: 2
Fore
SplineSet
591 604 m 1,0,1
 521 612 521 612 485 612 c 128,-1,2
 449 612 449 612 432 604 c 128,-1,3
 415 596 415 596 405 586 c 128,-1,4
 395 576 395 576 386 553 c 0,5,6
 375 526 375 526 358 464 c 1,7,-1
 348 421 l 1,8,-1
 542 421 l 1,9,-1
 527 355 l 1,10,-1
 333 355 l 1,11,-1
 267 65 l 1,12,-1
 405 65 l 1,13,-1
 481 82 l 1,14,-1
 480 18 l 1,15,-1
 402 0 l 1,16,-1
 80 0 l 1,17,-1
 95 65 l 1,18,-1
 191 65 l 1,19,-1
 256 355 l 1,20,-1
 181 355 l 1,21,-1
 197 421 l 1,22,-1
 272 421 l 1,23,-1
 284 472 l 2,24,25
 310 582 310 582 348.5 630.5 c 128,-1,26
 387 679 387 679 473 679 c 0,27,28
 516 679 516 679 586 666 c 2,29,-1
 607 662 l 1,30,-1
 591 604 l 1,0,1
EndSplineSet
EndChar

StartChar: currency
Encoding: 164 164 102
Width: 560
GlyphClass: 2
Flags: W
LayerCount: 2
Fore
SplineSet
338 71 m 128,-1,1
 284 71 284 71 238 101 c 1,2,-1
 168 30 l 1,3,-1
 116 83 l 1,4,-1
 186 153 l 1,5,6
 157 198 157 198 157 252 c 128,-1,7
 157 306 157 306 186 351 c 1,8,-1
 116 421 l 1,9,-1
 168 474 l 1,10,-1
 238 403 l 1,11,12
 284 432 284 432 338 432 c 128,-1,13
 392 432 392 432 437 403 c 1,14,-1
 507 474 l 1,15,-1
 560 421 l 1,16,-1
 489 350 l 1,17,18
 518 305 518 305 518 251.5 c 128,-1,19
 518 198 518 198 489 153 c 1,20,-1
 560 83 l 1,21,-1
 507 30 l 1,22,-1
 437 101 l 1,23,0
 392 71 392 71 338 71 c 128,-1,1
338 142 m 128,-1,25
 384 142 384 142 416 174 c 128,-1,26
 448 206 448 206 448 252 c 128,-1,27
 448 298 448 298 416 330 c 128,-1,28
 384 362 384 362 338 362 c 128,-1,29
 292 362 292 362 260 330 c 128,-1,30
 228 298 228 298 228 252 c 128,-1,31
 228 206 228 206 260 174 c 128,-1,24
 292 142 292 142 338 142 c 128,-1,25
EndSplineSet
EndChar

StartChar: yen
Encoding: 165 165 103
Width: 560
GlyphClass: 2
Flags: W
LayerCount: 2
Fore
SplineSet
141 310 m 1,0,-1
 157 377 l 1,1,-1
 282 377 l 1,2,-1
 168 661 l 1,3,-1
 250 661 l 1,4,-1
 363 382 l 1,5,-1
 594 661 l 1,6,-1
 693 661 l 1,7,-1
 454 377 l 1,8,-1
 576 377 l 1,9,-1
 561 310 l 1,10,-1
 401 310 l 1,11,-1
 387 293 l 1,12,-1
 372 227 l 1,13,-1
 542 227 l 1,14,-1
 526 160 l 1,15,-1
 356 160 l 1,16,-1
 319 0 l 1,17,-1
 243 0 l 1,18,-1
 280 160 l 1,19,-1
 106 160 l 1,20,-1
 122 227 l 1,21,-1
 295 227 l 1,22,-1
 311 294 l 1,23,-1
 307 310 l 1,24,-1
 141 310 l 1,0,-1
EndSplineSet
EndChar

StartChar: brokenbar
Encoding: 166 166 104
Width: 318
GlyphClass: 2
Flags: W
LayerCount: 2
Fore
SplineSet
179 718 m 1,0,-1
 253 718 l 1,1,-1
 253 344 l 1,2,-1
 179 344 l 1,3,-1
 179 718 l 1,0,-1
179 156 m 1,4,-1
 253 156 l 1,5,-1
 253 -222 l 1,6,-1
 179 -222 l 1,7,-1
 179 156 l 1,4,-1
EndSplineSet
EndChar

StartChar: section
Encoding: 167 167 105
Width: 470
GlyphClass: 2
Flags: W
LayerCount: 2
Fore
SplineSet
528 567 m 1,0,1
 429 581 429 581 373 581 c 128,-1,2
 317 581 317 581 281.5 550.5 c 128,-1,3
 246 520 246 520 246 468 c 0,4,5
 246 449 246 449 252.5 437 c 128,-1,6
 259 425 259 425 277 417 c 0,7,8
 305 405 305 405 358 395 c 0,9,10
 483 371 483 371 483 283 c 0,11,12
 483 209 483 209 404 119 c 1,13,14
 421 97 421 97 421 69 c 128,-1,15
 421 41 421 41 416 17.5 c 128,-1,16
 411 -6 411 -6 395.5 -36.5 c 128,-1,17
 380 -67 380 -67 356 -91 c 128,-1,18
 332 -115 332 -115 290 -131.5 c 128,-1,19
 248 -148 248 -148 208 -148 c 0,20,21
 141 -148 141 -148 60 -136 c 2,22,-1
 33 -132 l 1,23,-1
 55 -66 l 1,24,25
 156 -80 156 -80 212.5 -80 c 128,-1,26
 269 -80 269 -80 307 -43.5 c 128,-1,27
 345 -7 345 -7 345 29.5 c 128,-1,28
 345 66 345 66 324.5 78 c 128,-1,29
 304 90 304 90 232.5 105 c 128,-1,30
 161 120 161 120 132 147.5 c 128,-1,31
 103 175 103 175 103 216 c 128,-1,32
 103 257 103 257 123 296 c 0,33,34
 155 356 155 356 190 380 c 1,35,36
 170 404 170 404 170 456 c 0,37,38
 170 530 170 530 230.5 590 c 128,-1,39
 291 650 291 650 396 650 c 0,40,41
 457 650 457 650 522 638 c 1,42,-1
 546 633 l 1,43,-1
 528 567 l 1,0,1
180 242 m 0,44,45
 180 214 180 214 199 199.5 c 128,-1,46
 218 185 218 185 267 176 c 1,47,48
 330 162 330 162 354 149 c 1,49,50
 363 156 363 156 384.5 197 c 128,-1,51
 406 238 406 238 406 264 c 128,-1,52
 406 290 406 290 385 305 c 128,-1,53
 364 320 364 320 306 331 c 128,-1,54
 248 342 248 342 235 352 c 1,55,56
 180 283 180 283 180 242 c 0,44,45
EndSplineSet
EndChar

StartChar: dieresis
Encoding: 168 168 106
Width: 680
GlyphClass: 2
Flags: W
LayerCount: 2
Fore
SplineSet
242 620 m 1,0,-1
 263 713 l 1,1,-1
 325 713 l 1,2,-1
 303 620 l 1,3,-1
 242 620 l 1,0,-1
425 620 m 1,4,-1
 445 713 l 1,5,-1
 507 713 l 1,6,-1
 485 620 l 1,7,-1
 425 620 l 1,4,-1
EndSplineSet
EndChar

StartChar: copyright
Encoding: 169 169 107
Width: 644
GlyphClass: 2
Flags: W
LayerCount: 2
Fore
SplineSet
234 240 m 128,-1,1
 159 319 159 319 159 434.5 c 128,-1,2
 159 550 159 550 234 628.5 c 128,-1,3
 309 707 309 707 423 707 c 128,-1,4
 537 707 537 707 611.5 628 c 128,-1,5
 686 549 686 549 686 433.5 c 128,-1,6
 686 318 686 318 611.5 239.5 c 128,-1,7
 537 161 537 161 423 161 c 128,-1,0
 309 161 309 161 234 240 c 128,-1,1
203 434 m 128,-1,9
 203 338 203 338 265.5 271.5 c 128,-1,10
 328 205 328 205 422 205 c 128,-1,11
 516 205 516 205 579 271.5 c 128,-1,12
 642 338 642 338 642 434 c 128,-1,13
 642 530 642 530 579 597 c 128,-1,14
 516 664 516 664 422.5 664 c 128,-1,15
 329 664 329 664 266 597 c 128,-1,8
 203 530 203 530 203 434 c 128,-1,9
427 591 m 0,16,17
 465 591 465 591 503 581 c 1,18,-1
 500 528 l 1,19,20
 461 534 461 534 426.5 534 c 128,-1,21
 392 534 392 534 380.5 511.5 c 128,-1,22
 369 489 369 489 369 435.5 c 128,-1,23
 369 382 369 382 382 357.5 c 128,-1,24
 395 333 395 333 429 333 c 1,25,-1
 500 340 l 1,26,-1
 503 288 l 1,27,28
 466 276 466 276 425 276 c 0,29,30
 361 276 361 276 335 313.5 c 128,-1,31
 309 351 309 351 309 433.5 c 128,-1,32
 309 516 309 516 335 553.5 c 128,-1,33
 361 591 361 591 427 591 c 0,16,17
EndSplineSet
EndChar

StartChar: ordfeminine
Encoding: 170 170 108
Width: 344
GlyphClass: 2
Flags: W
LayerCount: 2
Fore
SplineSet
348 577 m 0,0,1
 348 603 348 603 308 603 c 1,2,-1
 192 596 l 1,3,-1
 200 644 l 1,4,5
 274 659 274 659 327.5 659 c 128,-1,6
 381 659 381 659 402 637 c 0,7,8
 416 623 416 623 416 601.5 c 128,-1,9
 416 580 416 580 412 560 c 2,10,-1
 380 422 l 1,11,12
 386 410 386 410 405 406 c 1,13,-1
 392 357 l 1,14,15
 354 357 354 357 339 363 c 128,-1,16
 324 369 324 369 315 383 c 1,17,18
 254 357 254 357 208 357 c 128,-1,19
 162 357 162 357 145 382 c 0,20,21
 134 398 134 398 134 415.5 c 128,-1,22
 134 433 134 433 138 449 c 0,23,24
 149 491 149 491 175.5 511.5 c 128,-1,25
 202 532 202 532 253 535 c 2,26,-1
 340 541 l 1,27,-1
 346 563 l 2,28,29
 348 571 348 571 348 577 c 0,0,1
202 436 m 0,30,31
 202 411 202 411 231 411 c 0,32,33
 259 411 259 411 301 424 c 2,34,-1
 314 428 l 1,35,-1
 330 495 l 1,36,-1
 255 490 l 2,37,38
 212 487 212 487 204 450 c 0,39,40
 202 442 202 442 202 436 c 0,30,31
EndSplineSet
EndChar

StartChar: guillemotleft
Encoding: 171 171 109
Width: 446
GlyphClass: 2
Flags: W
LayerCount: 2
Fore
SplineSet
497 409 m 1,0,-1
 475 332 l 1,1,-1
 344 245 l 1,2,-1
 432 149 l 1,3,-1
 412 80 l 1,4,-1
 270 229 l 1,5,-1
 284 267 l 1,6,-1
 497 409 l 1,0,-1
307 409 m 1,7,-1
 285 332 l 1,8,-1
 154 245 l 1,9,-1
 242 149 l 1,10,-1
 222 80 l 1,11,-1
 80 229 l 1,12,-1
 94 267 l 1,13,-1
 307 409 l 1,7,-1
EndSplineSet
EndChar

StartChar: logicalnot
Encoding: 172 172 110
Width: 560
GlyphClass: 2
Flags: W
LayerCount: 2
Fore
SplineSet
123 342 m 1,0,-1
 551 342 l 1,1,-1
 551 117 l 1,2,-1
 481 117 l 1,3,-1
 481 274 l 1,4,-1
 123 274 l 1,5,-1
 123 342 l 1,0,-1
EndSplineSet
EndChar

StartChar: registered
Encoding: 174 174 111
Width: 644
GlyphClass: 2
Flags: W
LayerCount: 2
Fore
SplineSet
234 240 m 128,-1,1
 159 319 159 319 159 434.5 c 128,-1,2
 159 550 159 550 234 628.5 c 128,-1,3
 309 707 309 707 423 707 c 128,-1,4
 537 707 537 707 611.5 628 c 128,-1,5
 686 549 686 549 686 433.5 c 128,-1,6
 686 318 686 318 612 239.5 c 128,-1,7
 538 161 538 161 423.5 161 c 128,-1,0
 309 161 309 161 234 240 c 128,-1,1
266 597 m 128,-1,9
 203 530 203 530 203 434.5 c 128,-1,10
 203 339 203 339 266 272 c 128,-1,11
 329 205 329 205 422.5 205 c 128,-1,12
 516 205 516 205 579 271.5 c 128,-1,13
 642 338 642 338 642 434 c 128,-1,14
 642 530 642 530 579 597 c 128,-1,15
 516 664 516 664 422.5 664 c 128,-1,8
 329 664 329 664 266 597 c 128,-1,9
370 389 m 1,16,-1
 370 282 l 1,17,-1
 313 282 l 1,18,-1
 313 585 l 1,19,-1
 423 585 l 2,20,21
 479 585 479 585 507.5 563 c 128,-1,22
 536 541 536 541 536 496.5 c 128,-1,23
 536 452 536 452 525 430.5 c 128,-1,24
 514 409 514 409 486 397 c 1,25,-1
 541 282 l 1,26,-1
 479 282 l 1,27,-1
 430 389 l 1,28,-1
 370 389 l 1,16,-1
370 538 m 1,29,-1
 370 436 l 1,30,-1
 429 436 l 2,31,32
 480 436 480 436 480 487 c 128,-1,33
 480 538 480 538 418 538 c 2,34,-1
 370 538 l 1,29,-1
EndSplineSet
EndChar

StartChar: macron
Encoding: 175 175 112
Width: 439
GlyphClass: 2
Flags: W
LayerCount: 2
Fore
SplineSet
229 639 m 1,0,-1
 243 698 l 1,1,-1
 518 698 l 1,2,-1
 503 639 l 1,3,-1
 229 639 l 1,0,-1
EndSplineSet
EndChar

StartChar: degree
Encoding: 176 176 113
Width: 560
GlyphClass: 2
Flags: W
LayerCount: 2
Fore
SplineSet
306 458.5 m 128,-1,1
 267 497 267 497 267 560.5 c 128,-1,2
 267 624 267 624 306 663 c 128,-1,3
 345 702 345 702 408.5 702 c 128,-1,4
 472 702 472 702 511 663 c 128,-1,5
 550 624 550 624 550 560.5 c 128,-1,6
 550 497 550 497 511 458.5 c 128,-1,7
 472 420 472 420 408.5 420 c 128,-1,0
 345 420 345 420 306 458.5 c 128,-1,1
317 561 m 128,-1,9
 317 519 317 519 342 493.5 c 128,-1,10
 367 468 367 468 408.5 468 c 128,-1,11
 450 468 450 468 476 493.5 c 128,-1,12
 502 519 502 519 502 560.5 c 128,-1,13
 502 602 502 602 476 628 c 128,-1,14
 450 654 450 654 408.5 654 c 128,-1,15
 367 654 367 654 342 628.5 c 128,-1,8
 317 603 317 603 317 561 c 128,-1,9
EndSplineSet
EndChar

StartChar: plusminus
Encoding: 177 177 114
Width: 560
GlyphClass: 2
Flags: W
LayerCount: 2
Fore
SplineSet
103 293 m 1,0,-1
 103 361 l 1,1,-1
 291 361 l 1,2,-1
 291 487 l 1,3,-1
 361 487 l 1,4,-1
 361 361 l 1,5,-1
 552 361 l 1,6,-1
 552 293 l 1,7,-1
 361 293 l 1,8,-1
 361 166 l 1,9,-1
 291 166 l 1,10,-1
 291 293 l 1,11,-1
 103 293 l 1,0,-1
103 106 m 1,12,-1
 552 106 l 1,13,-1
 552 38 l 1,14,-1
 103 38 l 1,15,-1
 103 106 l 1,12,-1
EndSplineSet
EndChar

StartChar: twosuperior
Encoding: 178 178 115
Width: 280
GlyphClass: 2
Flags: W
LayerCount: 2
Fore
SplineSet
327 800 m 0,0,1
 409 800 409 800 409 742 c 0,2,3
 409 665 409 665 314 596 c 1,4,-1
 238 536 l 1,5,-1
 365 536 l 1,6,-1
 351 478 l 1,7,-1
 141 478 l 1,8,-1
 155 534 l 1,9,-1
 265 620 l 2,10,11
 327 669 327 669 336 703 c 0,12,13
 341 722 341 722 330 730.5 c 128,-1,14
 319 739 319 739 296 739 c 1,15,-1
 209 729 l 1,16,-1
 221 788 l 1,17,18
 284 800 284 800 327 800 c 0,0,1
EndSplineSet
Substitution2: "Single Substitution lookup 5 subtable" twoinferior
EndChar

StartChar: threesuperior
Encoding: 179 179 116
Width: 280
GlyphClass: 2
Flags: W
LayerCount: 2
Fore
SplineSet
413 742 m 0,0,1
 413 680 413 680 351 641 c 1,2,3
 374 633 374 633 379 622.5 c 128,-1,4
 384 612 384 612 384 599 c 128,-1,5
 384 586 384 586 380 565 c 1,6,7
 355 468 355 468 248 468 c 0,8,9
 204 468 204 468 154 476 c 1,10,-1
 138 478 l 1,11,-1
 156 534 l 1,12,13
 212 527 212 527 258 527 c 128,-1,14
 304 527 304 527 314 568 c 0,15,16
 316 577 316 577 316 583 c 0,17,18
 316 610 316 610 279 610 c 2,19,-1
 213 610 l 1,20,-1
 226 664 l 1,21,-1
 291 664 l 2,22,23
 305 664 305 664 320.5 677 c 128,-1,24
 336 690 336 690 340.5 707.5 c 128,-1,25
 345 725 345 725 336 733 c 128,-1,26
 327 741 327 741 303 741 c 1,27,-1
 210 734 l 1,28,-1
 220 790 l 1,29,30
 282 800 282 800 325 800 c 0,31,32
 413 800 413 800 413 742 c 0,0,1
EndSplineSet
Substitution2: "Single Substitution lookup 5 subtable" threeinferior
EndChar

StartChar: acute
Encoding: 180 180 117
Width: 546
GlyphClass: 2
Flags: W
LayerCount: 2
Fore
SplineSet
279 596 m 1,0,-1
 272 654 l 1,1,-1
 500 748 l 1,2,-1
 507 682 l 1,3,-1
 279 596 l 1,0,-1
EndSplineSet
EndChar

StartChar: mu
Encoding: 181 181 118
Width: 560
GlyphClass: 2
Flags: W
LayerCount: 2
Fore
SplineSet
207 131 m 0,0,1
 207 56 207 56 275 56 c 0,2,3
 305 56 305 56 343.5 84 c 128,-1,4
 382 112 382 112 406 140 c 2,5,-1
 429 168 l 1,6,-1
 506 500 l 1,7,-1
 580 500 l 1,8,-1
 465 0 l 1,9,-1
 392 0 l 1,10,-1
 410 87 l 1,11,12
 401 76 401 76 386.5 60 c 128,-1,13
 372 44 372 44 329.5 17 c 128,-1,14
 287 -10 287 -10 244.5 -10 c 128,-1,15
 202 -10 202 -10 172 14 c 1,16,-1
 117 -222 l 1,17,-1
 43 -222 l 1,18,-1
 210 500 l 1,19,-1
 284 500 l 1,20,-1
 232 278 l 1,21,-1
 233 278 l 1,22,-1
 215 200 l 2,23,24
 207 162 207 162 207 131 c 0,0,1
EndSplineSet
EndChar

StartChar: paragraph
Encoding: 182 182 119
Width: 557
GlyphClass: 2
Flags: W
LayerCount: 2
Fore
SplineSet
145 473 m 0,0,1
 145 558 145 558 209.5 629 c 128,-1,2
 274 700 274 700 369 700 c 2,3,-1
 679 700 l 1,4,-1
 665 636 l 1,5,-1
 596 636 l 1,6,-1
 445 0 l 1,7,-1
 382 0 l 1,8,-1
 533 636 l 1,9,-1
 424 636 l 1,10,-1
 272 0 l 1,11,-1
 208 0 l 1,12,-1
 289 332 l 1,13,14
 215 333 215 333 180 373 c 128,-1,15
 145 413 145 413 145 473 c 0,0,1
EndSplineSet
EndChar

StartChar: periodcentered
Encoding: 183 183 120
Width: 170
GlyphClass: 2
Flags: W
LayerCount: 2
Fore
SplineSet
103 245 m 1,0,-1
 129 362 l 1,1,-1
 206 362 l 1,2,-1
 180 245 l 1,3,-1
 103 245 l 1,0,-1
EndSplineSet
Substitution2: "'case' Case-Sensitive Forms in Latin lookup 4 subtable" periodcentered.cap
EndChar

StartChar: cedilla
Encoding: 184 184 121
Width: 791
GlyphClass: 2
Flags: W
LayerCount: 2
Fore
SplineSet
418 -45 m 2,0,1
 503 -45 503 -45 503 -100 c 0,2,3
 503 -111 503 -111 500 -124 c 0,4,5
 481 -211 481 -211 392 -211 c 0,6,7
 349 -211 349 -211 322 -206 c 2,8,-1
 312 -204 l 1,9,-1
 325 -153 l 1,10,11
 362 -156 362 -156 387 -156 c 0,12,13
 428 -156 428 -156 438 -120 c 0,14,15
 443 -101 443 -101 433.5 -94 c 128,-1,16
 424 -87 424 -87 404 -87 c 2,17,-1
 365 -87 l 1,18,-1
 386 5 l 1,19,-1
 426 5 l 1,20,-1
 413 -45 l 1,21,-1
 418 -45 l 2,0,1
EndSplineSet
EndChar

StartChar: onesuperior
Encoding: 185 185 122
Width: 280
GlyphClass: 2
Flags: W
LayerCount: 2
Fore
SplineSet
202 720 m 1,0,-1
 321 790 l 1,1,-1
 381 790 l 1,2,-1
 304 478 l 1,3,-1
 240 478 l 1,4,-1
 300 720 l 1,5,-1
 220 673 l 1,6,-1
 202 720 l 1,0,-1
EndSplineSet
Substitution2: "Single Substitution lookup 5 subtable" oneinferior
EndChar

StartChar: ordmasculine
Encoding: 186 186 123
Width: 341
GlyphClass: 2
Flags: W
LayerCount: 2
Fore
SplineSet
321 659 m 0,0,1
 365 659 365 659 394 640.5 c 128,-1,2
 423 622 423 622 426 584 c 1,3,4
 428 574 428 574 428 555.5 c 128,-1,5
 428 537 428 537 420 507 c 1,6,7
 402 427 402 427 361.5 391 c 128,-1,8
 321 355 321 355 260 355 c 0,9,10
 146 355 146 355 146 453 c 0,11,12
 146 479 146 479 154 511 c 0,13,14
 173 590 173 590 213 624.5 c 128,-1,15
 253 659 253 659 321 659 c 0,0,1
264 415 m 0,16,17
 300 415 300 415 320.5 436 c 128,-1,18
 341 457 341 457 350.5 496.5 c 128,-1,19
 360 536 360 536 360 557 c 0,20,21
 360 600 360 600 309 600 c 0,22,23
 273 600 273 600 253 580.5 c 128,-1,24
 233 561 233 561 223 521.5 c 128,-1,25
 213 482 213 482 213 463 c 0,26,27
 213 415 213 415 264 415 c 0,16,17
EndSplineSet
EndChar

StartChar: guillemotright
Encoding: 187 187 124
Width: 480
GlyphClass: 2
Flags: W
LayerCount: 2
Fore
SplineSet
286 80 m 1,0,-1
 308 157 l 1,1,-1
 439 244 l 1,2,-1
 351 340 l 1,3,-1
 371 409 l 1,4,-1
 513 260 l 1,5,-1
 499 222 l 1,6,-1
 286 80 l 1,0,-1
63 80 m 1,7,-1
 85 157 l 1,8,-1
 216 244 l 1,9,-1
 128 340 l 1,10,-1
 148 409 l 1,11,-1
 290 260 l 1,12,-1
 276 222 l 1,13,-1
 63 80 l 1,7,-1
EndSplineSet
EndChar

StartChar: onequarter
Encoding: 188 188 125
Width: 594
GlyphClass: 2
Flags: W
LayerCount: 2
Fore
SplineSet
178 720 m 1,0,-1
 297 790 l 1,1,-1
 357 790 l 1,2,-1
 280 478 l 1,3,-1
 216 478 l 1,4,-1
 276 720 l 1,5,-1
 196 673 l 1,6,-1
 178 720 l 1,0,-1
178 -10 m 1,7,-1
 108 15 l 1,8,-1
 535 707 l 1,9,-1
 605 681 l 1,10,-1
 178 -10 l 1,7,-1
484 0 m 1,11,-1
 495 48 l 1,12,-1
 354 48 l 1,13,-1
 367 103 l 1,14,-1
 489 312 l 1,15,-1
 561 312 l 1,16,-1
 437 107 l 1,17,-1
 510 107 l 1,18,-1
 538 195 l 1,19,-1
 596 195 l 1,20,-1
 573 107 l 1,21,-1
 600 107 l 1,22,-1
 586 48 l 1,23,-1
 559 48 l 1,24,-1
 547 0 l 1,25,-1
 484 0 l 1,11,-1
EndSplineSet
EndChar

StartChar: onehalf
Encoding: 189 189 126
Width: 617
GlyphClass: 2
Flags: W
LayerCount: 2
Fore
SplineSet
178 720 m 1,0,-1
 297 790 l 1,1,-1
 357 790 l 1,2,-1
 280 478 l 1,3,-1
 216 478 l 1,4,-1
 276 720 l 1,5,-1
 196 673 l 1,6,-1
 178 720 l 1,0,-1
178 -10 m 1,7,-1
 108 15 l 1,8,-1
 535 707 l 1,9,-1
 605 681 l 1,10,-1
 178 -10 l 1,7,-1
566 322 m 0,11,12
 648 322 648 322 648 264 c 0,13,14
 648 187 648 187 553 118 c 1,15,-1
 477 58 l 1,16,-1
 604 58 l 1,17,-1
 590 0 l 1,18,-1
 380 0 l 1,19,-1
 394 56 l 1,20,-1
 504 142 l 2,21,22
 566 191 566 191 575 225 c 0,23,24
 580 244 580 244 569 252.5 c 128,-1,25
 558 261 558 261 535 261 c 1,26,-1
 448 251 l 1,27,-1
 460 310 l 1,28,29
 523 322 523 322 566 322 c 0,11,12
EndSplineSet
EndChar

StartChar: threequarters
Encoding: 190 190 127
Width: 609
GlyphClass: 2
Flags: W
LayerCount: 2
Fore
SplineSet
409 742 m 0,0,1
 409 680 409 680 347 641 c 1,2,3
 370 633 370 633 375 622.5 c 128,-1,4
 380 612 380 612 380 599 c 128,-1,5
 380 586 380 586 376 565 c 1,6,7
 351 468 351 468 244 468 c 0,8,9
 200 468 200 468 150 476 c 1,10,-1
 134 478 l 1,11,-1
 152 534 l 1,12,13
 208 527 208 527 254 527 c 128,-1,14
 300 527 300 527 310 568 c 0,15,16
 312 577 312 577 312 583 c 0,17,18
 312 610 312 610 275 610 c 2,19,-1
 209 610 l 1,20,-1
 222 664 l 1,21,-1
 287 664 l 2,22,23
 301 664 301 664 316.5 677 c 128,-1,24
 332 690 332 690 336.5 707.5 c 128,-1,25
 341 725 341 725 332 733 c 128,-1,26
 323 741 323 741 299 741 c 1,27,-1
 206 734 l 1,28,-1
 216 790 l 1,29,30
 278 800 278 800 321 800 c 0,31,32
 409 800 409 800 409 742 c 0,0,1
194 -10 m 1,33,-1
 124 15 l 1,34,-1
 551 707 l 1,35,-1
 621 681 l 1,36,-1
 194 -10 l 1,33,-1
501 0 m 1,37,-1
 512 48 l 1,38,-1
 371 48 l 1,39,-1
 384 103 l 1,40,-1
 506 312 l 1,41,-1
 578 312 l 1,42,-1
 454 107 l 1,43,-1
 527 107 l 1,44,-1
 555 195 l 1,45,-1
 613 195 l 1,46,-1
 590 107 l 1,47,-1
 617 107 l 1,48,-1
 603 48 l 1,49,-1
 576 48 l 1,50,-1
 564 0 l 1,51,-1
 501 0 l 1,37,-1
EndSplineSet
EndChar

StartChar: questiondown
Encoding: 191 191 128
Width: 407
GlyphClass: 2
Flags: W
LayerCount: 2
Fore
SplineSet
23 -70 m 0,0,1
 23 1 23 1 55 44.5 c 128,-1,2
 87 88 87 88 187 165 c 0,3,4
 256 218 256 218 265 266 c 2,5,-1
 273 305 l 1,6,-1
 344 305 l 1,7,8
 343 272 343 272 337 243 c 0,9,10
 326 182 326 182 236 113 c 1,11,12
 156 50 156 50 129.5 16.5 c 128,-1,13
 103 -17 103 -17 103 -65 c 0,14,15
 103 -133 103 -133 204 -133 c 0,16,17
 258 -133 258 -133 326 -120 c 1,18,-1
 348 -115 l 1,19,-1
 342 -176 l 1,20,21
 254 -201 254 -201 188 -201 c 0,22,23
 23 -201 23 -201 23 -70 c 0,0,1
386 500 m 1,24,-1
 361 384 l 1,25,-1
 284 384 l 1,26,-1
 310 500 l 1,27,-1
 386 500 l 1,24,-1
EndSplineSet
Substitution2: "'case' Case-Sensitive Forms in Latin lookup 4 subtable" questiondown.cap
EndChar

StartChar: Agrave
Encoding: 192 192 129
Width: 554
GlyphClass: 2
Flags: W
LayerCount: 2
Fore
SplineSet
363 930 m 1,0,-1
 548 836 l 1,1,-1
 514 780 l 1,2,-1
 326 866 l 1,3,-1
 363 930 l 1,0,-1
24 0 m 1,4,-1
 369 692 l 1,5,-1
 518 692 l 1,6,-1
 532 0 l 1,7,-1
 456 0 l 1,8,-1
 450 177 l 1,9,-1
 191 177 l 1,10,-1
 102 0 l 1,11,-1
 24 0 l 1,4,-1
414 624 m 1,12,-1
 223 244 l 1,13,-1
 451 244 l 1,14,-1
 444 624 l 1,15,-1
 414 624 l 1,12,-1
EndSplineSet
Position2: "'cpsp' Capital Spacing in Latin lookup 0 subtable" dx=5 dy=0 dh=10 dv=0
EndChar

StartChar: Aacute
Encoding: 193 193 130
Width: 554
GlyphClass: 2
Flags: W
LayerCount: 2
Fore
SplineSet
388 785 m 1,0,-1
 379 842 l 1,1,-1
 607 936 l 1,2,-1
 616 871 l 1,3,-1
 388 785 l 1,0,-1
24 0 m 1,4,-1
 369 692 l 1,5,-1
 518 692 l 1,6,-1
 532 0 l 1,7,-1
 456 0 l 1,8,-1
 450 177 l 1,9,-1
 191 177 l 1,10,-1
 102 0 l 1,11,-1
 24 0 l 1,4,-1
414 624 m 1,12,-1
 223 244 l 1,13,-1
 451 244 l 1,14,-1
 444 624 l 1,15,-1
 414 624 l 1,12,-1
EndSplineSet
Position2: "'cpsp' Capital Spacing in Latin lookup 0 subtable" dx=5 dy=0 dh=10 dv=0
EndChar

StartChar: Acircumflex
Encoding: 194 194 131
Width: 554
GlyphClass: 2
Flags: W
LayerCount: 2
Fore
SplineSet
303 793 m 1,0,-1
 467 931 l 1,1,-1
 508 931 l 1,2,-1
 604 793 l 1,3,-1
 535 793 l 1,4,-1
 481 874 l 1,5,-1
 385 793 l 1,6,-1
 303 793 l 1,0,-1
24 0 m 1,7,-1
 369 692 l 1,8,-1
 518 692 l 1,9,-1
 532 0 l 1,10,-1
 456 0 l 1,11,-1
 450 177 l 1,12,-1
 191 177 l 1,13,-1
 102 0 l 1,14,-1
 24 0 l 1,7,-1
414 624 m 1,15,-1
 223 244 l 1,16,-1
 451 244 l 1,17,-1
 444 624 l 1,18,-1
 414 624 l 1,15,-1
EndSplineSet
Position2: "'cpsp' Capital Spacing in Latin lookup 0 subtable" dx=5 dy=0 dh=10 dv=0
EndChar

StartChar: Atilde
Encoding: 195 195 132
Width: 554
GlyphClass: 2
Flags: W
LayerCount: 2
Fore
SplineSet
530 804 m 0,0,1
 507 804 507 804 455.5 832 c 128,-1,2
 404 860 404 860 392 860 c 0,3,4
 369 860 369 860 319 824 c 1,5,-1
 302 811 l 1,6,-1
 300 865 l 1,7,8
 367 925 367 925 405 925 c 0,9,10
 432 925 432 925 482.5 897.5 c 128,-1,11
 533 870 533 870 544 870 c 0,12,13
 563 870 563 870 611 904 c 1,14,-1
 627 916 l 1,15,-1
 630 863 l 1,16,17
 567 804 567 804 530 804 c 0,0,1
24 0 m 1,18,-1
 369 692 l 1,19,-1
 518 692 l 1,20,-1
 532 0 l 1,21,-1
 456 0 l 1,22,-1
 450 177 l 1,23,-1
 191 177 l 1,24,-1
 102 0 l 1,25,-1
 24 0 l 1,18,-1
414 624 m 1,26,-1
 223 244 l 1,27,-1
 451 244 l 1,28,-1
 444 624 l 1,29,-1
 414 624 l 1,26,-1
EndSplineSet
Position2: "'cpsp' Capital Spacing in Latin lookup 0 subtable" dx=5 dy=0 dh=10 dv=0
EndChar

StartChar: Adieresis
Encoding: 196 196 133
Width: 554
GlyphClass: 2
Flags: W
LayerCount: 2
Fore
SplineSet
341 814 m 1,0,-1
 362 907 l 1,1,-1
 424 907 l 1,2,-1
 401 814 l 1,3,-1
 341 814 l 1,0,-1
528 814 m 1,4,-1
 550 907 l 1,5,-1
 612 907 l 1,6,-1
 589 814 l 1,7,-1
 528 814 l 1,4,-1
24 0 m 1,8,-1
 369 692 l 1,9,-1
 518 692 l 1,10,-1
 532 0 l 1,11,-1
 456 0 l 1,12,-1
 450 177 l 1,13,-1
 191 177 l 1,14,-1
 102 0 l 1,15,-1
 24 0 l 1,8,-1
414 624 m 1,16,-1
 223 244 l 1,17,-1
 451 244 l 1,18,-1
 444 624 l 1,19,-1
 414 624 l 1,16,-1
EndSplineSet
Position2: "'cpsp' Capital Spacing in Latin lookup 0 subtable" dx=5 dy=0 dh=10 dv=0
EndChar

StartChar: Aring
Encoding: 197 197 134
Width: 554
GlyphClass: 2
Flags: W
LayerCount: 2
Fore
SplineSet
358 669 m 1,0,1
 346 685 346 685 346 704 c 128,-1,2
 346 723 346 723 350 740 c 0,3,4
 363 790 363 790 397 815 c 128,-1,5
 431 840 431 840 478.5 840 c 128,-1,6
 526 840 526 840 548 815 c 0,7,8
 563 799 563 799 563 778 c 128,-1,9
 563 757 563 757 559 740 c 0,10,11
 546 694 546 694 518 670 c 1,12,-1
 532 0 l 1,13,-1
 456 0 l 1,14,-1
 450 177 l 1,15,-1
 191 177 l 1,16,-1
 102 0 l 1,17,-1
 24 0 l 1,18,-1
 358 669 l 1,0,1
414 624 m 1,19,-1
 223 244 l 1,20,-1
 451 244 l 1,21,-1
 444 624 l 1,22,-1
 414 624 l 1,19,-1
400 740 m 0,23,24
 398 733 398 733 398 724 c 128,-1,25
 398 715 398 715 406 704 c 128,-1,26
 414 693 414 693 437 692 c 1,27,-1
 447 692 l 1,28,29
 497 694 497 694 508 740 c 0,30,31
 509 747 509 747 509 757 c 128,-1,32
 509 767 509 767 499 777.5 c 128,-1,33
 489 788 489 788 466 788 c 0,34,35
 412 788 412 788 400 740 c 0,23,24
EndSplineSet
Position2: "'cpsp' Capital Spacing in Latin lookup 0 subtable" dx=5 dy=0 dh=10 dv=0
EndChar

StartChar: AE
Encoding: 198 198 135
Width: 780
GlyphClass: 2
Flags: W
LayerCount: 2
Fore
SplineSet
348 0 m 1,0,-1
 389 177 l 1,1,-1
 188 177 l 1,2,-1
 98 0 l 1,3,-1
 25 0 l 1,4,-1
 370 696 l 1,5,-1
 900 696 l 1,6,-1
 885 624 l 1,7,-1
 568 626 l 1,8,-1
 511 386 l 1,9,-1
 771 386 l 1,10,-1
 756 317 l 1,11,-1
 495 317 l 1,12,-1
 437 72 l 1,13,-1
 752 72 l 1,14,-1
 737 0 l 1,15,-1
 348 0 l 1,0,-1
408 624 m 1,16,-1
 221 247 l 1,17,-1
 406 247 l 1,18,-1
 496 624 l 1,19,-1
 408 624 l 1,16,-1
EndSplineSet
Position2: "'cpsp' Capital Spacing in Latin lookup 0 subtable" dx=5 dy=0 dh=10 dv=0
EndChar

StartChar: Ccedilla
Encoding: 199 199 136
Width: 504
GlyphClass: 2
Flags: W
LayerCount: 2
Fore
SplineSet
296 -45 m 2,0,1
 381 -45 381 -45 381 -100 c 0,2,3
 381 -111 381 -111 378 -124 c 0,4,5
 359 -211 359 -211 270 -211 c 0,6,7
 227 -211 227 -211 200 -206 c 2,8,-1
 190 -204 l 1,9,-1
 203 -153 l 1,10,11
 240 -156 240 -156 265 -156 c 0,12,13
 306 -156 306 -156 316 -120 c 0,14,15
 321 -101 321 -101 311.5 -94 c 128,-1,16
 302 -87 302 -87 282 -87 c 2,17,-1
 243 -87 l 1,18,-1
 261 -7 l 1,19,20
 112 14 112 14 112 188 c 0,21,22
 112 366 112 366 194 524 c 0,23,24
 234 602 234 602 303.5 652 c 128,-1,25
 373 702 373 702 461 702 c 0,26,27
 527 702 527 702 603 684 c 1,28,-1
 627 679 l 1,29,-1
 610 619 l 1,30,31
 533 634 533 634 464 634 c 128,-1,32
 395 634 395 634 343 592.5 c 128,-1,33
 291 551 291 551 259 486 c 0,34,35
 192 348 192 348 192 192 c 0,36,37
 192 124 192 124 221.5 91 c 128,-1,38
 251 58 251 58 315 58 c 0,39,40
 391 58 391 58 455 70 c 1,41,-1
 478 75 l 1,42,-1
 473 12 l 1,43,44
 384 -10 384 -10 305 -10 c 2,45,-1
 300 -10 l 1,46,-1
 291 -45 l 1,47,-1
 296 -45 l 2,0,1
EndSplineSet
Position2: "'cpsp' Capital Spacing in Latin lookup 0 subtable" dx=5 dy=0 dh=10 dv=0
EndChar

StartChar: Egrave
Encoding: 200 200 137
Width: 505
GlyphClass: 2
Flags: W
LayerCount: 2
Fore
SplineSet
369 930 m 1,0,-1
 554 836 l 1,1,-1
 520 780 l 1,2,-1
 332 866 l 1,3,-1
 369 930 l 1,0,-1
78 0 m 1,4,-1
 237 692 l 1,5,-1
 623 692 l 1,6,-1
 607 624 l 1,7,-1
 298 624 l 1,8,-1
 243 386 l 1,9,-1
 497 386 l 1,10,-1
 481 318 l 1,11,-1
 228 318 l 1,12,-1
 170 68 l 1,13,-1
 479 68 l 1,14,-1
 464 0 l 1,15,-1
 78 0 l 1,4,-1
EndSplineSet
Position2: "'cpsp' Capital Spacing in Latin lookup 0 subtable" dx=5 dy=0 dh=10 dv=0
EndChar

StartChar: Eacute
Encoding: 201 201 138
Width: 505
GlyphClass: 2
Flags: W
LayerCount: 2
Fore
SplineSet
377 785 m 1,0,-1
 368 842 l 1,1,-1
 596 936 l 1,2,-1
 605 871 l 1,3,-1
 377 785 l 1,0,-1
78 0 m 1,4,-1
 237 692 l 1,5,-1
 623 692 l 1,6,-1
 607 624 l 1,7,-1
 298 624 l 1,8,-1
 243 386 l 1,9,-1
 497 386 l 1,10,-1
 481 318 l 1,11,-1
 228 318 l 1,12,-1
 170 68 l 1,13,-1
 479 68 l 1,14,-1
 464 0 l 1,15,-1
 78 0 l 1,4,-1
EndSplineSet
Position2: "'cpsp' Capital Spacing in Latin lookup 0 subtable" dx=5 dy=0 dh=10 dv=0
EndChar

StartChar: Ecircumflex
Encoding: 202 202 139
Width: 505
GlyphClass: 2
Flags: W
LayerCount: 2
Fore
SplineSet
342 791 m 1,0,-1
 506 929 l 1,1,-1
 547 929 l 1,2,-1
 643 791 l 1,3,-1
 574 791 l 1,4,-1
 520 872 l 1,5,-1
 424 791 l 1,6,-1
 342 791 l 1,0,-1
78 0 m 1,7,-1
 237 692 l 1,8,-1
 623 692 l 1,9,-1
 607 624 l 1,10,-1
 298 624 l 1,11,-1
 243 386 l 1,12,-1
 497 386 l 1,13,-1
 481 318 l 1,14,-1
 228 318 l 1,15,-1
 170 68 l 1,16,-1
 479 68 l 1,17,-1
 464 0 l 1,18,-1
 78 0 l 1,7,-1
EndSplineSet
Position2: "'cpsp' Capital Spacing in Latin lookup 0 subtable" dx=5 dy=0 dh=10 dv=0
EndChar

StartChar: Edieresis
Encoding: 203 203 140
Width: 505
GlyphClass: 2
Flags: W
LayerCount: 2
Fore
SplineSet
332 814 m 1,0,-1
 353 907 l 1,1,-1
 415 907 l 1,2,-1
 392 814 l 1,3,-1
 332 814 l 1,0,-1
519 814 m 1,4,-1
 541 907 l 1,5,-1
 603 907 l 1,6,-1
 580 814 l 1,7,-1
 519 814 l 1,4,-1
78 0 m 1,8,-1
 237 692 l 1,9,-1
 623 692 l 1,10,-1
 607 624 l 1,11,-1
 298 624 l 1,12,-1
 243 386 l 1,13,-1
 497 386 l 1,14,-1
 481 318 l 1,15,-1
 228 318 l 1,16,-1
 170 68 l 1,17,-1
 479 68 l 1,18,-1
 464 0 l 1,19,-1
 78 0 l 1,8,-1
EndSplineSet
Position2: "'cpsp' Capital Spacing in Latin lookup 0 subtable" dx=5 dy=0 dh=10 dv=0
EndChar

StartChar: Igrave
Encoding: 204 204 141
Width: 232
GlyphClass: 2
Flags: W
LayerCount: 2
Fore
SplineSet
186 930 m 1,0,-1
 371 836 l 1,1,-1
 337 780 l 1,2,-1
 149 866 l 1,3,-1
 186 930 l 1,0,-1
78 0 m 1,4,-1
 238 692 l 1,5,-1
 314 692 l 1,6,-1
 154 0 l 1,7,-1
 78 0 l 1,4,-1
EndSplineSet
Position2: "'cpsp' Capital Spacing in Latin lookup 0 subtable" dx=5 dy=0 dh=10 dv=0
EndChar

StartChar: Iacute
Encoding: 205 205 142
Width: 232
GlyphClass: 2
Flags: W
LayerCount: 2
Fore
SplineSet
239 785 m 1,0,-1
 230 842 l 1,1,-1
 458 936 l 1,2,-1
 467 871 l 1,3,-1
 239 785 l 1,0,-1
78 0 m 1,4,-1
 238 692 l 1,5,-1
 314 692 l 1,6,-1
 154 0 l 1,7,-1
 78 0 l 1,4,-1
EndSplineSet
Position2: "'cpsp' Capital Spacing in Latin lookup 0 subtable" dx=5 dy=0 dh=10 dv=0
EndChar

StartChar: Icircumflex
Encoding: 206 206 143
Width: 232
GlyphClass: 2
Flags: W
LayerCount: 2
Fore
SplineSet
143 791 m 1,0,-1
 307 929 l 1,1,-1
 348 929 l 1,2,-1
 444 791 l 1,3,-1
 375 791 l 1,4,-1
 321 872 l 1,5,-1
 225 791 l 1,6,-1
 143 791 l 1,0,-1
78 0 m 1,7,-1
 238 692 l 1,8,-1
 314 692 l 1,9,-1
 154 0 l 1,10,-1
 78 0 l 1,7,-1
EndSplineSet
Position2: "'cpsp' Capital Spacing in Latin lookup 0 subtable" dx=5 dy=0 dh=10 dv=0
EndChar

StartChar: Idieresis
Encoding: 207 207 144
Width: 232
GlyphClass: 2
Flags: W
LayerCount: 2
Fore
SplineSet
173 819 m 1,0,-1
 194 912 l 1,1,-1
 256 912 l 1,2,-1
 233 819 l 1,3,-1
 173 819 l 1,0,-1
360 819 m 1,4,-1
 382 912 l 1,5,-1
 444 912 l 1,6,-1
 421 819 l 1,7,-1
 360 819 l 1,4,-1
78 0 m 1,8,-1
 238 692 l 1,9,-1
 314 692 l 1,10,-1
 154 0 l 1,11,-1
 78 0 l 1,8,-1
EndSplineSet
Position2: "'cpsp' Capital Spacing in Latin lookup 0 subtable" dx=5 dy=0 dh=10 dv=0
EndChar

StartChar: Eth
Encoding: 208 208 145
Width: 611
GlyphClass: 2
Flags: W
LayerCount: 2
Fore
SplineSet
321 0 m 2,0,-1
 82 0 l 1,1,-1
 153 309 l 1,2,-1
 87 309 l 1,3,-1
 102 386 l 1,4,-1
 171 386 l 1,5,-1
 242 692 l 1,6,-1
 464 692 l 2,7,8
 559 692 559 692 607.5 643 c 128,-1,9
 656 594 656 594 656 486 c 0,10,11
 656 347 656 347 604 224 c 0,12,13
 577 160 577 160 539 110.5 c 128,-1,14
 501 61 501 61 444.5 30.5 c 128,-1,15
 388 0 388 0 321 0 c 2,0,-1
560.5 351.5 m 128,-1,17
 576 422 576 422 576 490.5 c 128,-1,18
 576 559 576 559 546 591.5 c 128,-1,19
 516 624 516 624 449 624 c 2,20,-1
 302 624 l 1,21,-1
 247 386 l 1,22,-1
 389 386 l 1,23,-1
 372 309 l 1,24,-1
 230 309 l 1,25,-1
 175 68 l 1,26,-1
 332 68 l 2,27,28
 391 68 391 68 439.5 110 c 128,-1,29
 488 152 488 152 516.5 216.5 c 128,-1,16
 545 281 545 281 560.5 351.5 c 128,-1,17
EndSplineSet
Position2: "'cpsp' Capital Spacing in Latin lookup 0 subtable" dx=5 dy=0 dh=10 dv=0
EndChar

StartChar: Ntilde
Encoding: 209 209 146
Width: 631
GlyphClass: 2
Flags: W
LayerCount: 2
Fore
SplineSet
569 802 m 0,0,1
 546 802 546 802 494 830 c 128,-1,2
 442 858 442 858 430 858 c 0,3,4
 408 858 408 858 358 822 c 1,5,-1
 341 809 l 1,6,-1
 339 863 l 1,7,8
 406 923 406 923 444 923 c 0,9,10
 471 923 471 923 521.5 895.5 c 128,-1,11
 572 868 572 868 582 868 c 0,12,13
 602 868 602 868 650 902 c 1,14,-1
 666 914 l 1,15,-1
 669 861 l 1,16,17
 606 802 606 802 569 802 c 0,0,1
78 0 m 1,18,-1
 238 692 l 1,19,-1
 374 692 l 1,20,-1
 478 79 l 1,21,-1
 497 79 l 1,22,-1
 638 692 l 1,23,-1
 713 692 l 1,24,-1
 553 0 l 1,25,-1
 422 0 l 1,26,-1
 314 617 l 1,27,-1
 294 617 l 1,28,-1
 151 0 l 1,29,-1
 78 0 l 1,18,-1
EndSplineSet
Position2: "'cpsp' Capital Spacing in Latin lookup 0 subtable" dx=5 dy=0 dh=10 dv=0
EndChar

StartChar: Ograve
Encoding: 210 210 147
Width: 628
GlyphClass: 2
Flags: W
LayerCount: 2
Fore
SplineSet
413 930 m 1,0,-1
 598 836 l 1,1,-1
 564 780 l 1,2,-1
 376 866 l 1,3,-1
 413 930 l 1,0,-1
225 90.5 m 128,-1,5
 257 58 257 58 329.5 58 c 128,-1,6
 402 58 402 58 451 98 c 0,7,8
 519 154 519 154 555.5 266 c 128,-1,9
 592 378 592 378 592 490 c 0,10,11
 592 565 592 565 558.5 599.5 c 128,-1,12
 525 634 525 634 456.5 634 c 128,-1,13
 388 634 388 634 342 597 c 0,14,15
 273 540 273 540 233 424 c 128,-1,16
 193 308 193 308 193 215.5 c 128,-1,4
 193 123 193 123 225 90.5 c 128,-1,5
629.5 239 m 128,-1,18
 587 118 587 118 509 54 c 128,-1,19
 431 -10 431 -10 323.5 -10 c 128,-1,20
 216 -10 216 -10 165 38.5 c 128,-1,21
 114 87 114 87 114 206 c 128,-1,22
 114 325 114 325 155.5 443 c 128,-1,23
 197 561 197 561 274 631.5 c 128,-1,24
 351 702 351 702 457 702 c 0,25,26
 672 702 672 702 672 495 c 0,27,17
 672 360 672 360 629.5 239 c 128,-1,18
EndSplineSet
Position2: "'cpsp' Capital Spacing in Latin lookup 0 subtable" dx=5 dy=0 dh=10 dv=0
EndChar

StartChar: Oacute
Encoding: 211 211 148
Width: 628
GlyphClass: 2
Flags: W
LayerCount: 2
Fore
SplineSet
225 90.5 m 128,-1,1
 257 58 257 58 329.5 58 c 128,-1,2
 402 58 402 58 451 98 c 0,3,4
 519 154 519 154 555.5 266 c 128,-1,5
 592 378 592 378 592 490 c 0,6,7
 592 565 592 565 558.5 599.5 c 128,-1,8
 525 634 525 634 456.5 634 c 128,-1,9
 388 634 388 634 342 597 c 0,10,11
 273 540 273 540 233 424 c 128,-1,12
 193 308 193 308 193 215.5 c 128,-1,0
 193 123 193 123 225 90.5 c 128,-1,1
629.5 239 m 128,-1,14
 587 118 587 118 509 54 c 128,-1,15
 431 -10 431 -10 323.5 -10 c 128,-1,16
 216 -10 216 -10 165 38.5 c 128,-1,17
 114 87 114 87 114 206 c 128,-1,18
 114 325 114 325 155.5 443 c 128,-1,19
 197 561 197 561 274 631.5 c 128,-1,20
 351 702 351 702 457 702 c 0,21,22
 672 702 672 702 672 495 c 0,23,13
 672 360 672 360 629.5 239 c 128,-1,14
425 785 m 1,24,-1
 416 842 l 1,25,-1
 644 936 l 1,26,-1
 653 871 l 1,27,-1
 425 785 l 1,24,-1
EndSplineSet
Position2: "'cpsp' Capital Spacing in Latin lookup 0 subtable" dx=5 dy=0 dh=10 dv=0
EndChar

StartChar: Ocircumflex
Encoding: 212 212 149
Width: 628
GlyphClass: 2
Flags: W
LayerCount: 2
Fore
SplineSet
225 90.5 m 128,-1,1
 257 58 257 58 329.5 58 c 128,-1,2
 402 58 402 58 451 98 c 0,3,4
 519 154 519 154 555.5 266 c 128,-1,5
 592 378 592 378 592 490 c 0,6,7
 592 565 592 565 558.5 599.5 c 128,-1,8
 525 634 525 634 456.5 634 c 128,-1,9
 388 634 388 634 342 597 c 0,10,11
 273 540 273 540 233 424 c 128,-1,12
 193 308 193 308 193 215.5 c 128,-1,0
 193 123 193 123 225 90.5 c 128,-1,1
629.5 239 m 128,-1,14
 587 118 587 118 509 54 c 128,-1,15
 431 -10 431 -10 323.5 -10 c 128,-1,16
 216 -10 216 -10 165 38.5 c 128,-1,17
 114 87 114 87 114 206 c 128,-1,18
 114 325 114 325 155.5 443 c 128,-1,19
 197 561 197 561 274 631.5 c 128,-1,20
 351 702 351 702 457 702 c 0,21,22
 672 702 672 702 672 495 c 0,23,13
 672 360 672 360 629.5 239 c 128,-1,14
347 793 m 1,24,-1
 511 931 l 1,25,-1
 552 931 l 1,26,-1
 648 793 l 1,27,-1
 579 793 l 1,28,-1
 525 874 l 1,29,-1
 429 793 l 1,30,-1
 347 793 l 1,24,-1
EndSplineSet
Position2: "'cpsp' Capital Spacing in Latin lookup 0 subtable" dx=5 dy=0 dh=10 dv=0
EndChar

StartChar: Otilde
Encoding: 213 213 150
Width: 628
GlyphClass: 2
Flags: W
LayerCount: 2
Fore
SplineSet
581 802 m 0,0,1
 558 802 558 802 506 830 c 128,-1,2
 454 858 454 858 442 858 c 0,3,4
 420 858 420 858 370 822 c 1,5,-1
 353 809 l 1,6,-1
 351 863 l 1,7,8
 418 923 418 923 456 923 c 0,9,10
 483 923 483 923 533.5 895.5 c 128,-1,11
 584 868 584 868 594 868 c 0,12,13
 614 868 614 868 662 902 c 1,14,-1
 678 914 l 1,15,-1
 681 861 l 1,16,17
 618 802 618 802 581 802 c 0,0,1
225 90.5 m 128,-1,19
 257 58 257 58 329.5 58 c 128,-1,20
 402 58 402 58 451 98 c 0,21,22
 519 154 519 154 555.5 266 c 128,-1,23
 592 378 592 378 592 490 c 0,24,25
 592 565 592 565 558.5 599.5 c 128,-1,26
 525 634 525 634 456.5 634 c 128,-1,27
 388 634 388 634 342 597 c 0,28,29
 273 540 273 540 233 424 c 128,-1,30
 193 308 193 308 193 215.5 c 128,-1,18
 193 123 193 123 225 90.5 c 128,-1,19
629.5 239 m 128,-1,32
 587 118 587 118 509 54 c 128,-1,33
 431 -10 431 -10 323.5 -10 c 128,-1,34
 216 -10 216 -10 165 38.5 c 128,-1,35
 114 87 114 87 114 206 c 128,-1,36
 114 325 114 325 155.5 443 c 128,-1,37
 197 561 197 561 274 631.5 c 128,-1,38
 351 702 351 702 457 702 c 0,39,40
 672 702 672 702 672 495 c 0,41,31
 672 360 672 360 629.5 239 c 128,-1,32
EndSplineSet
Position2: "'cpsp' Capital Spacing in Latin lookup 0 subtable" dx=5 dy=0 dh=10 dv=0
EndChar

StartChar: Odieresis
Encoding: 214 214 151
Width: 628
GlyphClass: 2
Flags: W
LayerCount: 2
Fore
SplineSet
371 812 m 1,0,-1
 392 905 l 1,1,-1
 461 905 l 1,2,-1
 439 812 l 1,3,-1
 371 812 l 1,0,-1
560 812 m 1,4,-1
 581 905 l 1,5,-1
 649 905 l 1,6,-1
 628 812 l 1,7,-1
 560 812 l 1,4,-1
225 90.5 m 128,-1,9
 257 58 257 58 329.5 58 c 128,-1,10
 402 58 402 58 451 98 c 0,11,12
 519 154 519 154 555.5 266 c 128,-1,13
 592 378 592 378 592 490 c 0,14,15
 592 565 592 565 558.5 599.5 c 128,-1,16
 525 634 525 634 456.5 634 c 128,-1,17
 388 634 388 634 342 597 c 0,18,19
 273 540 273 540 233 424 c 128,-1,20
 193 308 193 308 193 215.5 c 128,-1,8
 193 123 193 123 225 90.5 c 128,-1,9
629.5 239 m 128,-1,22
 587 118 587 118 509 54 c 128,-1,23
 431 -10 431 -10 323.5 -10 c 128,-1,24
 216 -10 216 -10 165 38.5 c 128,-1,25
 114 87 114 87 114 206 c 128,-1,26
 114 325 114 325 155.5 443 c 128,-1,27
 197 561 197 561 274 631.5 c 128,-1,28
 351 702 351 702 457 702 c 0,29,30
 672 702 672 702 672 495 c 0,31,21
 672 360 672 360 629.5 239 c 128,-1,22
EndSplineSet
Position2: "'cpsp' Capital Spacing in Latin lookup 0 subtable" dx=5 dy=0 dh=10 dv=0
EndChar

StartChar: multiply
Encoding: 215 215 152
Width: 560
GlyphClass: 2
Flags: W
LayerCount: 2
Fore
SplineSet
177 459 m 1,0,-1
 337 297 l 1,1,-1
 498 460 l 1,2,-1
 546 412 l 1,3,-1
 384 251 l 1,4,-1
 546 90 l 1,5,-1
 498 42 l 1,6,-1
 337 204 l 1,7,-1
 177 42 l 1,8,-1
 128 90 l 1,9,-1
 291 251 l 1,10,-1
 129 411 l 1,11,-1
 177 459 l 1,0,-1
EndSplineSet
EndChar

StartChar: Oslash
Encoding: 216 216 153
Width: 628
GlyphClass: 2
Flags: W
LayerCount: 2
Fore
SplineSet
159 44 m 1,0,1
 114 92 114 92 114 208.5 c 128,-1,2
 114 325 114 325 155.5 443 c 128,-1,3
 197 561 197 561 274 631.5 c 128,-1,4
 351 702 351 702 457 702 c 0,5,6
 537 702 537 702 587 674 c 1,7,-1
 671 797 l 1,8,-1
 718 776 l 1,9,-1
 627 642 l 1,10,11
 672 589 672 589 672 495 c 0,12,13
 672 360 672 360 629.5 239 c 128,-1,14
 587 118 587 118 509 54 c 128,-1,15
 431 -10 431 -10 326 -10 c 0,16,17
 247 -10 247 -10 199 14 c 1,18,-1
 111 -114 l 1,19,-1
 69 -89 l 1,20,-1
 159 44 l 1,0,1
544 611 m 1,21,22
 512 634 512 634 450 634 c 128,-1,23
 388 634 388 634 342 597 c 0,24,25
 273 540 273 540 233 424 c 128,-1,26
 193 308 193 308 193 202 c 0,27,28
 193 145 193 145 207 116 c 1,29,-1
 544 611 l 1,21,22
242 77 m 1,30,31
 274 58 274 58 338 58 c 128,-1,32
 402 58 402 58 451 98 c 0,33,34
 519 154 519 154 555.5 266 c 128,-1,35
 592 378 592 378 592 490 c 0,36,37
 592 541 592 541 578 570 c 1,38,-1
 415 329 l 1,39,-1
 242 77 l 1,30,31
EndSplineSet
Position2: "'cpsp' Capital Spacing in Latin lookup 0 subtable" dx=5 dy=0 dh=10 dv=0
EndChar

StartChar: Ugrave
Encoding: 217 217 154
Width: 594
GlyphClass: 2
Flags: W
LayerCount: 2
Fore
SplineSet
393 930 m 1,0,-1
 578 836 l 1,1,-1
 544 780 l 1,2,-1
 356 866 l 1,3,-1
 393 930 l 1,0,-1
189 144 m 0,4,5
 189 58 189 58 317 58 c 0,6,7
 396 58 396 58 435.5 95 c 128,-1,8
 475 132 475 132 493 211 c 2,9,-1
 604 692 l 1,10,-1
 681 692 l 1,11,-1
 570 211 l 2,12,13
 544 97 544 97 483.5 43.5 c 128,-1,14
 423 -10 423 -10 320 -10 c 0,15,16
 113 -10 113 -10 113 134 c 0,17,18
 113 183 113 183 124 225 c 1,19,-1
 232 692 l 1,20,-1
 309 692 l 1,21,-1
 199 217 l 2,22,23
 189 177 189 177 189 144 c 0,4,5
EndSplineSet
Position2: "'cpsp' Capital Spacing in Latin lookup 0 subtable" dx=5 dy=0 dh=10 dv=0
EndChar

StartChar: Uacute
Encoding: 218 218 155
Width: 594
GlyphClass: 2
Flags: W
LayerCount: 2
Fore
SplineSet
189 144 m 0,0,1
 189 58 189 58 317 58 c 0,2,3
 396 58 396 58 435.5 95 c 128,-1,4
 475 132 475 132 493 211 c 2,5,-1
 604 692 l 1,6,-1
 681 692 l 1,7,-1
 570 211 l 2,8,9
 544 97 544 97 483.5 43.5 c 128,-1,10
 423 -10 423 -10 320 -10 c 0,11,12
 113 -10 113 -10 113 134 c 0,13,14
 113 183 113 183 124 225 c 1,15,-1
 232 692 l 1,16,-1
 309 692 l 1,17,-1
 199 217 l 2,18,19
 189 177 189 177 189 144 c 0,0,1
386 785 m 1,20,-1
 377 842 l 1,21,-1
 605 936 l 1,22,-1
 614 871 l 1,23,-1
 386 785 l 1,20,-1
EndSplineSet
Position2: "'cpsp' Capital Spacing in Latin lookup 0 subtable" dx=5 dy=0 dh=10 dv=0
EndChar

StartChar: Ucircumflex
Encoding: 219 219 156
Width: 594
GlyphClass: 2
Flags: W
LayerCount: 2
Fore
SplineSet
189 144 m 0,0,1
 189 58 189 58 317 58 c 0,2,3
 396 58 396 58 435.5 95 c 128,-1,4
 475 132 475 132 493 211 c 2,5,-1
 604 692 l 1,6,-1
 681 692 l 1,7,-1
 570 211 l 2,8,9
 544 97 544 97 483.5 43.5 c 128,-1,10
 423 -10 423 -10 320 -10 c 0,11,12
 113 -10 113 -10 113 134 c 0,13,14
 113 183 113 183 124 225 c 1,15,-1
 232 692 l 1,16,-1
 309 692 l 1,17,-1
 199 217 l 2,18,19
 189 177 189 177 189 144 c 0,0,1
322 793 m 1,20,-1
 486 931 l 1,21,-1
 527 931 l 1,22,-1
 623 793 l 1,23,-1
 554 793 l 1,24,-1
 500 874 l 1,25,-1
 404 793 l 1,26,-1
 322 793 l 1,20,-1
EndSplineSet
Position2: "'cpsp' Capital Spacing in Latin lookup 0 subtable" dx=5 dy=0 dh=10 dv=0
EndChar

StartChar: Udieresis
Encoding: 220 220 157
Width: 594
GlyphClass: 2
Flags: W
LayerCount: 2
Fore
SplineSet
345 812 m 1,0,-1
 366 905 l 1,1,-1
 435 905 l 1,2,-1
 413 812 l 1,3,-1
 345 812 l 1,0,-1
534 812 m 1,4,-1
 554 905 l 1,5,-1
 623 905 l 1,6,-1
 601 812 l 1,7,-1
 534 812 l 1,4,-1
189 144 m 0,8,9
 189 58 189 58 317 58 c 0,10,11
 396 58 396 58 435.5 95 c 128,-1,12
 475 132 475 132 493 211 c 2,13,-1
 604 692 l 1,14,-1
 681 692 l 1,15,-1
 570 211 l 2,16,17
 544 97 544 97 483.5 43.5 c 128,-1,18
 423 -10 423 -10 320 -10 c 0,19,20
 113 -10 113 -10 113 134 c 0,21,22
 113 183 113 183 124 225 c 1,23,-1
 232 692 l 1,24,-1
 309 692 l 1,25,-1
 199 217 l 2,26,27
 189 177 189 177 189 144 c 0,8,9
EndSplineSet
Position2: "'cpsp' Capital Spacing in Latin lookup 0 subtable" dx=5 dy=0 dh=10 dv=0
EndChar

StartChar: Yacute
Encoding: 221 221 158
Width: 493
GlyphClass: 2
Flags: W
LayerCount: 2
Fore
SplineSet
345 785 m 1,0,-1
 336 842 l 1,1,-1
 564 936 l 1,2,-1
 573 871 l 1,3,-1
 345 785 l 1,0,-1
641 692 m 1,4,-1
 348 296 l 1,5,-1
 279 0 l 1,6,-1
 206 0 l 1,7,-1
 276 302 l 1,8,-1
 170 692 l 1,9,-1
 248 692 l 1,10,-1
 329 369 l 1,11,-1
 558 692 l 1,12,-1
 641 692 l 1,4,-1
EndSplineSet
Position2: "'cpsp' Capital Spacing in Latin lookup 0 subtable" dx=5 dy=0 dh=10 dv=0
EndChar

StartChar: Thorn
Encoding: 222 222 159
Width: 549
GlyphClass: 2
Flags: W
LayerCount: 2
Fore
SplineSet
354 194 m 2,0,1
 481 194 481 194 523 359 c 0,2,3
 531 389 531 389 531 417 c 128,-1,4
 531 445 531 445 519 468 c 0,5,6
 498 510 498 510 425 511 c 2,7,-1
 270 512 l 1,8,-1
 195 194 l 1,9,-1
 354 194 l 2,0,1
442 585 m 2,10,11
 544 585 544 585 582 522 c 0,12,13
 606 481 606 481 606 438 c 128,-1,14
 606 395 606 395 598 359 c 0,15,16
 574 249 574 249 507 184.5 c 128,-1,17
 440 120 440 120 340 120 c 0,18,19
 339 120 339 120 337 120 c 2,20,-1
 178 120 l 1,21,-1
 150 0 l 1,22,-1
 76 0 l 1,23,-1
 240 696 l 1,24,-1
 314 696 l 1,25,-1
 287 585 l 1,26,-1
 442 585 l 2,10,11
EndSplineSet
Position2: "'cpsp' Capital Spacing in Latin lookup 0 subtable" dx=5 dy=0 dh=10 dv=0
EndChar

StartChar: germandbls
Encoding: 223 223 160
Width: 539
GlyphClass: 2
Flags: W
LayerCount: 2
Fore
SplineSet
411 728 m 0,0,1
 575 728 575 728 575 608 c 0,2,3
 575 502 575 502 479 456 c 0,4,5
 431 434 431 434 413.5 420.5 c 128,-1,6
 396 407 396 407 396 388 c 128,-1,7
 396 369 396 369 407.5 356.5 c 128,-1,8
 419 344 419 344 465.5 315.5 c 128,-1,9
 512 287 512 287 530 264.5 c 128,-1,10
 548 242 548 242 548 194 c 0,11,12
 548 100 548 100 490 45 c 128,-1,13
 432 -10 432 -10 329 -10 c 0,14,15
 275 -10 275 -10 222 4 c 2,16,-1
 203 9 l 1,17,-1
 217 68 l 1,18,19
 283 55 283 55 325 55 c 0,20,21
 395 55 395 55 433.5 91 c 128,-1,22
 472 127 472 127 472 186 c 0,23,24
 472 214 472 214 458 230.5 c 128,-1,25
 444 247 444 247 398.5 274.5 c 128,-1,26
 353 302 353 302 337 323.5 c 128,-1,27
 321 345 321 345 321 381.5 c 128,-1,28
 321 418 321 418 343 443 c 128,-1,29
 365 468 365 468 415 493.5 c 128,-1,30
 465 519 465 519 482 541.5 c 128,-1,31
 499 564 499 564 499 599 c 0,32,33
 499 663 499 663 405 663 c 0,34,35
 341 663 341 663 308.5 630.5 c 128,-1,36
 276 598 276 598 258 520 c 2,37,-1
 136 0 l 1,38,-1
 65 0 l 1,39,-1
 190 529 l 2,40,41
 216 639 216 639 266.5 683.5 c 128,-1,42
 317 728 317 728 411 728 c 0,0,1
EndSplineSet
EndChar

StartChar: agrave
Encoding: 224 224 161
Width: 500
GlyphClass: 2
Flags: W
LayerCount: 2
Fore
SplineSet
217 -10 m 0,0,1
 89 -10 89 -10 89 139 c 0,2,3
 89 222 89 222 115.5 304.5 c 128,-1,4
 142 387 142 387 202 448.5 c 128,-1,5
 262 510 262 510 341 510 c 0,6,7
 402 510 402 510 508 492 c 1,8,-1
 546 485 l 1,9,-1
 470 160 l 2,10,11
 456 104 456 104 446 28 c 1,12,-1
 442 2 l 1,13,-1
 369 -1 l 1,14,15
 383 85 383 85 387 106 c 1,16,17
 382 97 382 97 357.5 71.5 c 128,-1,18
 333 46 333 46 314 30.5 c 128,-1,19
 295 15 295 15 268 2.5 c 128,-1,20
 241 -10 241 -10 217 -10 c 0,0,1
459 431 m 1,21,22
 389 445 389 445 338.5 445 c 128,-1,23
 288 445 288 445 246 393.5 c 128,-1,24
 204 342 204 342 185 273.5 c 128,-1,25
 166 205 166 205 166 151 c 128,-1,26
 166 97 166 97 183 76 c 128,-1,27
 200 55 200 55 234 55 c 128,-1,28
 268 55 268 55 308.5 87.5 c 128,-1,29
 349 120 349 120 376 153 c 2,30,-1
 402 186 l 1,31,-1
 459 431 l 1,21,22
338 741 m 1,32,-1
 523 648 l 1,33,-1
 490 596 l 1,34,-1
 302 682 l 1,35,-1
 338 741 l 1,32,-1
EndSplineSet
EndChar

StartChar: aacute
Encoding: 225 225 162
Width: 500
GlyphClass: 2
Flags: W
LayerCount: 2
Fore
SplineSet
217 -10 m 0,0,1
 89 -10 89 -10 89 139 c 0,2,3
 89 222 89 222 115.5 304.5 c 128,-1,4
 142 387 142 387 202 448.5 c 128,-1,5
 262 510 262 510 341 510 c 0,6,7
 402 510 402 510 508 492 c 1,8,-1
 546 485 l 1,9,-1
 470 160 l 2,10,11
 456 104 456 104 446 28 c 1,12,-1
 442 2 l 1,13,-1
 369 -1 l 1,14,15
 383 85 383 85 387 106 c 1,16,17
 382 97 382 97 357.5 71.5 c 128,-1,18
 333 46 333 46 314 30.5 c 128,-1,19
 295 15 295 15 268 2.5 c 128,-1,20
 241 -10 241 -10 217 -10 c 0,0,1
459 431 m 1,21,22
 389 445 389 445 338.5 445 c 128,-1,23
 288 445 288 445 246 393.5 c 128,-1,24
 204 342 204 342 185 273.5 c 128,-1,25
 166 205 166 205 166 151 c 128,-1,26
 166 97 166 97 183 76 c 128,-1,27
 200 55 200 55 234 55 c 128,-1,28
 268 55 268 55 308.5 87.5 c 128,-1,29
 349 120 349 120 376 153 c 2,30,-1
 402 186 l 1,31,-1
 459 431 l 1,21,22
340 596 m 1,32,-1
 333 654 l 1,33,-1
 561 748 l 1,34,-1
 568 682 l 1,35,-1
 340 596 l 1,32,-1
EndSplineSet
EndChar

StartChar: acircumflex
Encoding: 226 226 163
Width: 500
GlyphClass: 2
Flags: W
LayerCount: 2
Fore
SplineSet
241 587 m 1,0,-1
 396 738 l 1,1,-1
 449 738 l 1,2,-1
 535 587 l 1,3,-1
 460 587 l 1,4,-1
 412 673 l 1,5,-1
 323 587 l 1,6,-1
 241 587 l 1,0,-1
217 -10 m 0,7,8
 89 -10 89 -10 89 139 c 0,9,10
 89 222 89 222 115.5 304.5 c 128,-1,11
 142 387 142 387 202 448.5 c 128,-1,12
 262 510 262 510 341 510 c 0,13,14
 402 510 402 510 508 492 c 1,15,-1
 546 485 l 1,16,-1
 470 160 l 2,17,18
 456 104 456 104 446 28 c 1,19,-1
 442 2 l 1,20,-1
 369 -1 l 1,21,22
 383 85 383 85 387 106 c 1,23,24
 382 97 382 97 357.5 71.5 c 128,-1,25
 333 46 333 46 314 30.5 c 128,-1,26
 295 15 295 15 268 2.5 c 128,-1,27
 241 -10 241 -10 217 -10 c 0,7,8
459 431 m 1,28,29
 389 445 389 445 338.5 445 c 128,-1,30
 288 445 288 445 246 393.5 c 128,-1,31
 204 342 204 342 185 273.5 c 128,-1,32
 166 205 166 205 166 151 c 128,-1,33
 166 97 166 97 183 76 c 128,-1,34
 200 55 200 55 234 55 c 128,-1,35
 268 55 268 55 308.5 87.5 c 128,-1,36
 349 120 349 120 376 153 c 2,37,-1
 402 186 l 1,38,-1
 459 431 l 1,28,29
EndSplineSet
EndChar

StartChar: atilde
Encoding: 227 227 164
Width: 500
GlyphClass: 2
Flags: W
LayerCount: 2
Fore
SplineSet
217 -10 m 0,0,1
 89 -10 89 -10 89 139 c 0,2,3
 89 222 89 222 115.5 304.5 c 128,-1,4
 142 387 142 387 202 448.5 c 128,-1,5
 262 510 262 510 341 510 c 0,6,7
 402 510 402 510 508 492 c 1,8,-1
 546 485 l 1,9,-1
 470 160 l 2,10,11
 456 104 456 104 446 28 c 1,12,-1
 442 2 l 1,13,-1
 369 -1 l 1,14,15
 383 85 383 85 387 106 c 1,16,17
 382 97 382 97 357.5 71.5 c 128,-1,18
 333 46 333 46 314 30.5 c 128,-1,19
 295 15 295 15 268 2.5 c 128,-1,20
 241 -10 241 -10 217 -10 c 0,0,1
459 431 m 1,21,22
 389 445 389 445 338.5 445 c 128,-1,23
 288 445 288 445 246 393.5 c 128,-1,24
 204 342 204 342 185 273.5 c 128,-1,25
 166 205 166 205 166 151 c 128,-1,26
 166 97 166 97 183 76 c 128,-1,27
 200 55 200 55 234 55 c 128,-1,28
 268 55 268 55 308.5 87.5 c 128,-1,29
 349 120 349 120 376 153 c 2,30,-1
 402 186 l 1,31,-1
 459 431 l 1,21,22
486 614 m 0,32,33
 465 614 465 614 418 638 c 128,-1,34
 371 662 371 662 360 662 c 0,35,36
 339 662 339 662 293 630 c 1,37,-1
 278 619 l 1,38,-1
 275 675 l 1,39,40
 337 728 337 728 374 728 c 0,41,42
 398 728 398 728 443.5 704 c 128,-1,43
 489 680 489 680 499 680 c 0,44,45
 518 680 518 680 560 710 c 2,46,-1
 575 721 l 1,47,-1
 580 665 l 1,48,49
 523 614 523 614 486 614 c 0,32,33
EndSplineSet
EndChar

StartChar: adieresis
Encoding: 228 228 165
Width: 500
GlyphClass: 2
Flags: W
LayerCount: 2
Fore
SplineSet
266 620 m 1,0,-1
 287 713 l 1,1,-1
 356 713 l 1,2,-1
 334 620 l 1,3,-1
 266 620 l 1,0,-1
456 620 m 1,4,-1
 476 713 l 1,5,-1
 545 713 l 1,6,-1
 523 620 l 1,7,-1
 456 620 l 1,4,-1
217 -10 m 0,8,9
 89 -10 89 -10 89 139 c 0,10,11
 89 222 89 222 115.5 304.5 c 128,-1,12
 142 387 142 387 202 448.5 c 128,-1,13
 262 510 262 510 341 510 c 0,14,15
 402 510 402 510 508 492 c 1,16,-1
 546 485 l 1,17,-1
 470 160 l 2,18,19
 456 104 456 104 446 28 c 1,20,-1
 442 2 l 1,21,-1
 369 -1 l 1,22,23
 383 85 383 85 387 106 c 1,24,25
 382 97 382 97 357.5 71.5 c 128,-1,26
 333 46 333 46 314 30.5 c 128,-1,27
 295 15 295 15 268 2.5 c 128,-1,28
 241 -10 241 -10 217 -10 c 0,8,9
459 431 m 1,29,30
 389 445 389 445 338.5 445 c 128,-1,31
 288 445 288 445 246 393.5 c 128,-1,32
 204 342 204 342 185 273.5 c 128,-1,33
 166 205 166 205 166 151 c 128,-1,34
 166 97 166 97 183 76 c 128,-1,35
 200 55 200 55 234 55 c 128,-1,36
 268 55 268 55 308.5 87.5 c 128,-1,37
 349 120 349 120 376 153 c 2,38,-1
 402 186 l 1,39,-1
 459 431 l 1,29,30
EndSplineSet
EndChar

StartChar: aring
Encoding: 229 229 166
Width: 500
GlyphClass: 2
Flags: W
LayerCount: 2
Fore
SplineSet
217 -10 m 0,0,1
 89 -10 89 -10 89 139 c 0,2,3
 89 222 89 222 115.5 304.5 c 128,-1,4
 142 387 142 387 202 448.5 c 128,-1,5
 262 510 262 510 341 510 c 0,6,7
 402 510 402 510 508 492 c 1,8,-1
 546 485 l 1,9,-1
 470 160 l 2,10,11
 456 104 456 104 446 28 c 1,12,-1
 442 2 l 1,13,-1
 369 -1 l 1,14,15
 383 85 383 85 387 106 c 1,16,17
 382 97 382 97 357.5 71.5 c 128,-1,18
 333 46 333 46 314 30.5 c 128,-1,19
 295 15 295 15 268 2.5 c 128,-1,20
 241 -10 241 -10 217 -10 c 0,0,1
459 431 m 1,21,22
 389 445 389 445 338.5 445 c 128,-1,23
 288 445 288 445 246 393.5 c 128,-1,24
 204 342 204 342 185 273.5 c 128,-1,25
 166 205 166 205 166 151 c 128,-1,26
 166 97 166 97 183 76 c 128,-1,27
 200 55 200 55 234 55 c 128,-1,28
 268 55 268 55 308.5 87.5 c 128,-1,29
 349 120 349 120 376 153 c 2,30,-1
 402 186 l 1,31,-1
 459 431 l 1,21,22
378 732 m 0,32,33
 409 760 409 760 449.5 760 c 128,-1,34
 490 760 490 760 506 739.5 c 128,-1,35
 522 719 522 719 522 691 c 0,36,37
 522 683 522 683 521 675 c 0,38,39
 517 626 517 626 483.5 595 c 128,-1,40
 450 564 450 564 405.5 564 c 128,-1,41
 361 564 361 564 344 592 c 0,42,43
 334 609 334 609 334 628 c 0,44,45
 334 693 334 693 378 732 c 0,32,33
403.5 696 m 128,-1,47
 387 683 387 683 383.5 670 c 128,-1,48
 380 657 380 657 380 648 c 128,-1,49
 380 639 380 639 388.5 626 c 128,-1,50
 397 613 397 613 417 613 c 128,-1,51
 437 613 437 613 454 627 c 0,52,53
 477 647 477 647 477 674 c 0,54,55
 477 685 477 685 468.5 697 c 128,-1,56
 460 709 460 709 440 709 c 128,-1,46
 420 709 420 709 403.5 696 c 128,-1,47
EndSplineSet
EndChar

StartChar: ae
Encoding: 230 230 167
Width: 749
GlyphClass: 2
Flags: W
LayerCount: 2
Fore
SplineSet
441 145 m 0,0,1
 441 60 441 60 531 60 c 0,2,3
 603 60 603 60 676 66 c 1,4,-1
 704 69 l 1,5,-1
 691 6 l 1,6,7
 590 -10 590 -10 503 -10 c 128,-1,8
 416 -10 416 -10 382 44 c 1,9,10
 338 25 338 25 272.5 7.5 c 128,-1,11
 207 -10 207 -10 166 -10 c 0,12,13
 103 -10 103 -10 78 36 c 0,14,15
 62 65 62 65 62 93 c 128,-1,16
 62 121 62 121 67 144 c 0,17,18
 80 213 80 213 124 246 c 128,-1,19
 168 279 168 279 238.5 290.5 c 128,-1,20
 309 302 309 302 392 305 c 1,21,22
 407 349 407 349 407 378 c 0,23,24
 407 437 407 437 347 437 c 0,25,26
 275 437 275 437 196 429 c 2,27,-1
 167 426 l 1,28,-1
 179 495 l 1,29,30
 293 510 293 510 351 510 c 0,31,32
 461 510 461 510 475 436 c 1,33,34
 536 510 536 510 641 510 c 0,35,36
 782 510 782 510 785 375 c 1,37,38
 785 322 785 322 771 272 c 2,39,-1
 756 217 l 1,40,-1
 451 219 l 1,41,42
 441 176 441 176 441 145 c 0,0,1
139 118 m 0,43,44
 139 57 139 57 190 57 c 0,45,46
 252 57 252 57 366 95 c 1,47,48
 363 109 363 109 363 141 c 128,-1,49
 363 173 363 173 380 244 c 1,50,51
 308 238 308 238 242 230 c 1,52,53
 160 217 160 217 142 146 c 0,54,55
 139 131 139 131 139 118 c 0,43,44
701 278 m 1,56,57
 712 320 712 320 712 339.5 c 128,-1,58
 712 359 712 359 712 364 c 0,59,60
 709 442 709 442 624 442 c 0,61,62
 562 442 562 442 523 403 c 128,-1,63
 484 364 484 364 464 280 c 1,64,-1
 701 278 l 1,56,57
EndSplineSet
EndChar

StartChar: ccedilla
Encoding: 231 231 168
Width: 406
GlyphClass: 2
Flags: W
LayerCount: 2
Fore
SplineSet
244 -45 m 2,0,1
 329 -45 329 -45 329 -100 c 0,2,3
 329 -111 329 -111 326 -124 c 0,4,5
 307 -211 307 -211 218 -211 c 0,6,7
 175 -211 175 -211 148 -206 c 2,8,-1
 138 -204 l 1,9,-1
 151 -153 l 1,10,11
 188 -156 188 -156 213 -156 c 0,12,13
 254 -156 254 -156 264 -120 c 0,14,15
 269 -101 269 -101 259.5 -94 c 128,-1,16
 250 -87 250 -87 230 -87 c 2,17,-1
 191 -87 l 1,18,-1
 209 -7 l 1,19,20
 92 11 92 11 92 142 c 0,21,22
 92 356 92 356 208 457 c 0,23,24
 269 510 269 510 355 510 c 0,25,26
 402 510 402 510 462 496 c 1,27,-1
 480 491 l 1,28,-1
 461 433 l 1,29,30
 396 445 396 445 353 445 c 0,31,32
 293 445 293 445 250 401 c 0,33,34
 169 320 169 320 169 156 c 0,35,36
 169 106 169 106 193 80.5 c 128,-1,37
 217 55 217 55 272 55 c 0,38,39
 311 55 311 55 364 66 c 2,40,-1
 384 70 l 1,41,-1
 379 11 l 1,42,43
 310 -10 310 -10 248 -10 c 1,44,-1
 239 -45 l 1,45,-1
 244 -45 l 2,0,1
EndSplineSet
EndChar

StartChar: egrave
Encoding: 232 232 169
Width: 462
GlyphClass: 2
Flags: W
LayerCount: 2
Fore
SplineSet
192 79.5 m 128,-1,1
 218 56 218 56 256 56 c 0,2,3
 327 56 327 56 402 72 c 1,4,-1
 427 78 l 1,5,-1
 421 19 l 1,6,7
 332 -10 332 -10 250 -10 c 0,8,9
 91 -10 91 -10 91 142 c 0,10,11
 91 281 91 281 154 390 c 0,12,13
 186 444 186 444 239.5 477 c 128,-1,14
 293 510 293 510 360 510 c 0,15,16
 508 510 508 510 508 388 c 0,17,18
 508 299 508 299 441 263.5 c 128,-1,19
 374 228 374 228 228 228 c 2,20,-1
 177 228 l 1,21,22
 166 189 166 189 166 146 c 128,-1,0
 166 103 166 103 192 79.5 c 128,-1,1
242 287 m 2,23,24
 344 287 344 287 389 308.5 c 128,-1,25
 434 330 434 330 434 387 c 0,26,27
 434 447 434 447 357 447 c 0,28,29
 234 447 234 447 187 287 c 1,30,-1
 242 287 l 2,23,24
258 741 m 1,31,-1
 443 648 l 1,32,-1
 410 596 l 1,33,-1
 222 682 l 1,34,-1
 258 741 l 1,31,-1
EndSplineSet
EndChar

StartChar: eacute
Encoding: 233 233 170
Width: 462
GlyphClass: 2
Flags: W
LayerCount: 2
Fore
SplineSet
192 79.5 m 128,-1,1
 218 56 218 56 256 56 c 0,2,3
 327 56 327 56 402 72 c 1,4,-1
 427 78 l 1,5,-1
 421 19 l 1,6,7
 332 -10 332 -10 250 -10 c 0,8,9
 91 -10 91 -10 91 142 c 0,10,11
 91 281 91 281 154 390 c 0,12,13
 186 444 186 444 239.5 477 c 128,-1,14
 293 510 293 510 360 510 c 0,15,16
 508 510 508 510 508 388 c 0,17,18
 508 299 508 299 441 263.5 c 128,-1,19
 374 228 374 228 228 228 c 2,20,-1
 177 228 l 1,21,22
 166 189 166 189 166 146 c 128,-1,0
 166 103 166 103 192 79.5 c 128,-1,1
242 287 m 2,23,24
 344 287 344 287 389 308.5 c 128,-1,25
 434 330 434 330 434 387 c 0,26,27
 434 447 434 447 357 447 c 0,28,29
 234 447 234 447 187 287 c 1,30,-1
 242 287 l 2,23,24
300 596 m 1,31,-1
 293 654 l 1,32,-1
 521 748 l 1,33,-1
 528 682 l 1,34,-1
 300 596 l 1,31,-1
EndSplineSet
EndChar

StartChar: ecircumflex
Encoding: 234 234 171
Width: 462
GlyphClass: 2
Flags: W
LayerCount: 2
Fore
SplineSet
220 587 m 1,0,-1
 375 738 l 1,1,-1
 428 738 l 1,2,-1
 514 587 l 1,3,-1
 439 587 l 1,4,-1
 391 673 l 1,5,-1
 302 587 l 1,6,-1
 220 587 l 1,0,-1
192 79.5 m 128,-1,8
 218 56 218 56 256 56 c 0,9,10
 327 56 327 56 402 72 c 1,11,-1
 427 78 l 1,12,-1
 421 19 l 1,13,14
 332 -10 332 -10 250 -10 c 0,15,16
 91 -10 91 -10 91 142 c 0,17,18
 91 281 91 281 154 390 c 0,19,20
 186 444 186 444 239.5 477 c 128,-1,21
 293 510 293 510 360 510 c 0,22,23
 508 510 508 510 508 388 c 0,24,25
 508 299 508 299 441 263.5 c 128,-1,26
 374 228 374 228 228 228 c 2,27,-1
 177 228 l 1,28,29
 166 189 166 189 166 146 c 128,-1,7
 166 103 166 103 192 79.5 c 128,-1,8
242 287 m 2,30,31
 344 287 344 287 389 308.5 c 128,-1,32
 434 330 434 330 434 387 c 0,33,34
 434 447 434 447 357 447 c 0,35,36
 234 447 234 447 187 287 c 1,37,-1
 242 287 l 2,30,31
EndSplineSet
EndChar

StartChar: edieresis
Encoding: 235 235 172
Width: 462
GlyphClass: 2
Flags: W
LayerCount: 2
Fore
SplineSet
253 620 m 1,0,-1
 274 713 l 1,1,-1
 343 713 l 1,2,-1
 321 620 l 1,3,-1
 253 620 l 1,0,-1
443 620 m 1,4,-1
 463 713 l 1,5,-1
 532 713 l 1,6,-1
 510 620 l 1,7,-1
 443 620 l 1,4,-1
192 79.5 m 128,-1,9
 218 56 218 56 256 56 c 0,10,11
 327 56 327 56 402 72 c 1,12,-1
 427 78 l 1,13,-1
 421 19 l 1,14,15
 332 -10 332 -10 250 -10 c 0,16,17
 91 -10 91 -10 91 142 c 0,18,19
 91 281 91 281 154 390 c 0,20,21
 186 444 186 444 239.5 477 c 128,-1,22
 293 510 293 510 360 510 c 0,23,24
 508 510 508 510 508 388 c 0,25,26
 508 299 508 299 441 263.5 c 128,-1,27
 374 228 374 228 228 228 c 2,28,-1
 177 228 l 1,29,30
 166 189 166 189 166 146 c 128,-1,8
 166 103 166 103 192 79.5 c 128,-1,9
242 287 m 2,31,32
 344 287 344 287 389 308.5 c 128,-1,33
 434 330 434 330 434 387 c 0,34,35
 434 447 434 447 357 447 c 0,36,37
 234 447 234 447 187 287 c 1,38,-1
 242 287 l 2,31,32
EndSplineSet
EndChar

StartChar: igrave
Encoding: 236 236 173
Width: 206
GlyphClass: 2
Flags: W
LayerCount: 2
Fore
SplineSet
66 0 m 1,0,-1
 181 500 l 1,1,-1
 256 500 l 1,2,-1
 140 0 l 1,3,-1
 66 0 l 1,0,-1
112 741 m 1,4,-1
 297 648 l 1,5,-1
 264 596 l 1,6,-1
 76 682 l 1,7,-1
 112 741 l 1,4,-1
EndSplineSet
EndChar

StartChar: iacute
Encoding: 237 237 174
Width: 206
GlyphClass: 2
Flags: W
LayerCount: 2
Fore
SplineSet
66 0 m 1,0,-1
 181 500 l 1,1,-1
 256 500 l 1,2,-1
 140 0 l 1,3,-1
 66 0 l 1,0,-1
194 596 m 1,4,-1
 187 654 l 1,5,-1
 415 748 l 1,6,-1
 422 682 l 1,7,-1
 194 596 l 1,4,-1
EndSplineSet
EndChar

StartChar: icircumflex
Encoding: 238 238 175
Width: 206
GlyphClass: 2
Flags: W
LayerCount: 2
Fore
SplineSet
84 587 m 1,0,-1
 239 738 l 1,1,-1
 292 738 l 1,2,-1
 379 587 l 1,3,-1
 303 587 l 1,4,-1
 255 673 l 1,5,-1
 166 587 l 1,6,-1
 84 587 l 1,0,-1
66 0 m 1,7,-1
 181 500 l 1,8,-1
 256 500 l 1,9,-1
 140 0 l 1,10,-1
 66 0 l 1,7,-1
EndSplineSet
EndChar

StartChar: idieresis
Encoding: 239 239 176
Width: 206
GlyphClass: 2
Flags: W
LayerCount: 2
Fore
SplineSet
103 620 m 1,0,-1
 125 713 l 1,1,-1
 194 713 l 1,2,-1
 172 620 l 1,3,-1
 103 620 l 1,0,-1
293 620 m 1,4,-1
 313 713 l 1,5,-1
 382 713 l 1,6,-1
 360 620 l 1,7,-1
 293 620 l 1,4,-1
66 0 m 1,8,-1
 181 500 l 1,9,-1
 256 500 l 1,10,-1
 140 0 l 1,11,-1
 66 0 l 1,8,-1
EndSplineSet
EndChar

StartChar: eth
Encoding: 240 240 177
Width: 517
GlyphClass: 2
Flags: W
LayerCount: 2
Fore
SplineSet
564 446 m 0,0,1
 564 405 564 405 553 357 c 0,2,3
 507 165 507 165 434 78 c 128,-1,4
 361 -9 361 -9 248 -9 c 0,5,6
 155 -9 155 -9 113 42 c 0,7,8
 80 83 80 83 80 139 c 0,9,10
 80 153 80 153 82 169 c 0,11,12
 92 286 92 286 164.5 358.5 c 128,-1,13
 237 431 237 431 338 431 c 0,14,15
 370 431 370 431 406.5 422.5 c 128,-1,16
 443 414 443 414 464 405 c 2,17,-1
 485 396 l 1,18,19
 488 416 488 416 488 434 c 0,20,21
 488 534 488 534 393 594 c 1,22,-1
 279 520 l 1,23,-1
 251 566 l 1,24,-1
 338 622 l 1,25,26
 290 641 290 641 246 654 c 1,27,-1
 275 721 l 1,28,29
 363 702 363 702 418 673 c 1,30,-1
 523 741 l 1,31,-1
 550 695 l 1,32,-1
 468 642 l 1,33,34
 564 569 564 569 564 446 c 0,0,1
470 324 m 1,35,36
 398 360 398 360 329 360 c 128,-1,37
 260 360 260 360 213 306.5 c 128,-1,38
 166 253 166 253 161 172 c 0,39,40
 160 162 160 162 160 153 c 0,41,42
 160 65 160 65 265 65 c 0,43,44
 404 65 404 65 470 324 c 1,35,36
EndSplineSet
EndChar

StartChar: ntilde
Encoding: 241 241 178
Width: 498
GlyphClass: 2
Flags: W
LayerCount: 2
Fore
SplineSet
371 444 m 0,0,1
 352 444 352 444 329 432 c 0,2,3
 274 403 274 403 227 344 c 1,4,-1
 217 332 l 1,5,-1
 140 0 l 1,6,-1
 66 0 l 1,7,-1
 181 500 l 1,8,-1
 254 500 l 1,9,-1
 236 413 l 1,10,-1
 258 438 l 2,11,12
 279 462 279 462 319 486 c 128,-1,13
 359 510 359 510 397 510 c 0,14,15
 455 510 455 510 485 476 c 128,-1,16
 515 442 515 442 515 388 c 128,-1,17
 515 334 515 334 495 254 c 1,18,-1
 436 0 l 1,19,-1
 362 0 l 1,20,-1
 420 249 l 1,21,22
 439 325 439 325 439 369 c 0,23,24
 439 444 439 444 371 444 c 0,0,1
464 614 m 0,25,26
 443 614 443 614 396 638 c 128,-1,27
 349 662 349 662 338 662 c 0,28,29
 317 662 317 662 271 630 c 1,30,-1
 256 619 l 1,31,-1
 253 675 l 1,32,33
 315 728 315 728 352 728 c 0,34,35
 376 728 376 728 421.5 704 c 128,-1,36
 467 680 467 680 477 680 c 0,37,38
 496 680 496 680 538 710 c 2,39,-1
 553 721 l 1,40,-1
 558 665 l 1,41,42
 501 614 501 614 464 614 c 0,25,26
EndSplineSet
EndChar

StartChar: ograve
Encoding: 242 242 179
Width: 494
GlyphClass: 2
Flags: W
LayerCount: 2
Fore
SplineSet
343 510 m 0,0,1
 516 510 516 510 516 340 c 0,2,3
 516 247 516 247 486.5 168 c 128,-1,4
 457 89 457 89 398 39.5 c 128,-1,5
 339 -10 339 -10 262 -10 c 0,6,7
 91 -10 91 -10 91 154 c 0,8,9
 91 298 91 298 162.5 404 c 128,-1,10
 234 510 234 510 343 510 c 0,0,1
262 55 m 0,11,12
 342 55 342 55 391.5 139.5 c 128,-1,13
 441 224 441 224 441 341 c 0,14,15
 441 389 441 389 416.5 417 c 128,-1,16
 392 445 392 445 343 445 c 0,17,18
 265 445 265 445 215.5 357.5 c 128,-1,19
 166 270 166 270 166 153 c 0,20,21
 166 55 166 55 262 55 c 0,11,12
286 741 m 1,22,-1
 471 648 l 1,23,-1
 438 596 l 1,24,-1
 250 682 l 1,25,-1
 286 741 l 1,22,-1
EndSplineSet
EndChar

StartChar: oacute
Encoding: 243 243 180
Width: 494
GlyphClass: 2
Flags: W
LayerCount: 2
Fore
SplineSet
343 510 m 0,0,1
 516 510 516 510 516 340 c 0,2,3
 516 247 516 247 486.5 168 c 128,-1,4
 457 89 457 89 398 39.5 c 128,-1,5
 339 -10 339 -10 262 -10 c 0,6,7
 91 -10 91 -10 91 154 c 0,8,9
 91 298 91 298 162.5 404 c 128,-1,10
 234 510 234 510 343 510 c 0,0,1
262 55 m 0,11,12
 342 55 342 55 391.5 139.5 c 128,-1,13
 441 224 441 224 441 341 c 0,14,15
 441 389 441 389 416.5 417 c 128,-1,16
 392 445 392 445 343 445 c 0,17,18
 265 445 265 445 215.5 357.5 c 128,-1,19
 166 270 166 270 166 153 c 0,20,21
 166 55 166 55 262 55 c 0,11,12
302 596 m 1,22,-1
 295 654 l 1,23,-1
 523 748 l 1,24,-1
 530 682 l 1,25,-1
 302 596 l 1,22,-1
EndSplineSet
EndChar

StartChar: ocircumflex
Encoding: 244 244 181
Width: 494
GlyphClass: 2
Flags: W
LayerCount: 2
Fore
SplineSet
235 587 m 1,0,-1
 390 738 l 1,1,-1
 443 738 l 1,2,-1
 530 587 l 1,3,-1
 454 587 l 1,4,-1
 406 673 l 1,5,-1
 317 587 l 1,6,-1
 235 587 l 1,0,-1
343 510 m 0,7,8
 516 510 516 510 516 340 c 0,9,10
 516 247 516 247 486.5 168 c 128,-1,11
 457 89 457 89 398 39.5 c 128,-1,12
 339 -10 339 -10 262 -10 c 0,13,14
 91 -10 91 -10 91 154 c 0,15,16
 91 298 91 298 162.5 404 c 128,-1,17
 234 510 234 510 343 510 c 0,7,8
262 55 m 0,18,19
 342 55 342 55 391.5 139.5 c 128,-1,20
 441 224 441 224 441 341 c 0,21,22
 441 389 441 389 416.5 417 c 128,-1,23
 392 445 392 445 343 445 c 0,24,25
 265 445 265 445 215.5 357.5 c 128,-1,26
 166 270 166 270 166 153 c 0,27,28
 166 55 166 55 262 55 c 0,18,19
EndSplineSet
EndChar

StartChar: otilde
Encoding: 245 245 182
Width: 494
GlyphClass: 2
Flags: W
LayerCount: 2
Fore
SplineSet
343 510 m 0,0,1
 516 510 516 510 516 340 c 0,2,3
 516 247 516 247 486.5 168 c 128,-1,4
 457 89 457 89 398 39.5 c 128,-1,5
 339 -10 339 -10 262 -10 c 0,6,7
 91 -10 91 -10 91 154 c 0,8,9
 91 298 91 298 162.5 404 c 128,-1,10
 234 510 234 510 343 510 c 0,0,1
262 55 m 0,11,12
 342 55 342 55 391.5 139.5 c 128,-1,13
 441 224 441 224 441 341 c 0,14,15
 441 389 441 389 416.5 417 c 128,-1,16
 392 445 392 445 343 445 c 0,17,18
 265 445 265 445 215.5 357.5 c 128,-1,19
 166 270 166 270 166 153 c 0,20,21
 166 55 166 55 262 55 c 0,11,12
449 614 m 0,22,23
 428 614 428 614 381 638 c 128,-1,24
 334 662 334 662 322 662 c 0,25,26
 302 662 302 662 256 630 c 1,27,-1
 241 619 l 1,28,-1
 238 675 l 1,29,30
 300 728 300 728 337 728 c 0,31,32
 361 728 361 728 406.5 704 c 128,-1,33
 452 680 452 680 462 680 c 0,34,35
 481 680 481 680 524 710 c 1,36,-1
 538 721 l 1,37,-1
 543 665 l 1,38,39
 486 614 486 614 449 614 c 0,22,23
EndSplineSet
EndChar

StartChar: odieresis
Encoding: 246 246 183
Width: 494
GlyphClass: 2
Flags: W
LayerCount: 2
Fore
SplineSet
343 510 m 0,0,1
 516 510 516 510 516 340 c 0,2,3
 516 247 516 247 486.5 168 c 128,-1,4
 457 89 457 89 398 39.5 c 128,-1,5
 339 -10 339 -10 262 -10 c 0,6,7
 91 -10 91 -10 91 154 c 0,8,9
 91 298 91 298 162.5 404 c 128,-1,10
 234 510 234 510 343 510 c 0,0,1
262 55 m 0,11,12
 342 55 342 55 391.5 139.5 c 128,-1,13
 441 224 441 224 441 341 c 0,14,15
 441 389 441 389 416.5 417 c 128,-1,16
 392 445 392 445 343 445 c 0,17,18
 265 445 265 445 215.5 357.5 c 128,-1,19
 166 270 166 270 166 153 c 0,20,21
 166 55 166 55 262 55 c 0,11,12
262 620 m 1,22,-1
 283 713 l 1,23,-1
 345 713 l 1,24,-1
 323 620 l 1,25,-1
 262 620 l 1,22,-1
445 620 m 1,26,-1
 465 713 l 1,27,-1
 527 713 l 1,28,-1
 505 620 l 1,29,-1
 445 620 l 1,26,-1
EndSplineSet
EndChar

StartChar: divide
Encoding: 247 247 184
Width: 560
GlyphClass: 2
Flags: W
LayerCount: 2
Fore
SplineSet
178 281 m 1,0,-1
 178 354 l 1,1,-1
 235 354 l 1,2,-1
 235 402 l 1,3,-1
 441 402 l 1,4,-1
 441 354 l 1,5,-1
 497 354 l 1,6,-1
 497 281 l 1,7,-1
 178 281 l 1,0,-1
300 30 m 1,8,-1
 300 131 l 1,9,-1
 375 131 l 1,10,-1
 375 30 l 1,11,-1
 300 30 l 1,8,-1
EndSplineSet
EndChar

StartChar: oslash
Encoding: 248 248 185
Width: 494
GlyphClass: 2
Flags: W
LayerCount: 2
Fore
SplineSet
344 512 m 0,0,1
 393 512 393 512 429 497 c 1,2,-1
 496 605 l 1,3,-1
 541 585 l 1,4,-1
 469 472 l 1,5,6
 517 429 517 429 517 339 c 128,-1,7
 517 249 517 249 487.5 170 c 128,-1,8
 458 91 458 91 399 41.5 c 128,-1,9
 340 -8 340 -8 263 -8 c 0,10,11
 213 -8 213 -8 176 6 c 1,12,-1
 104 -111 l 1,13,-1
 60 -92 l 1,14,-1
 137 30 l 1,15,16
 92 70 92 70 92 156 c 0,17,18
 92 300 92 300 163.5 406 c 128,-1,19
 235 512 235 512 344 512 c 0,0,1
263 57 m 0,20,21
 343 57 343 57 392.5 141.5 c 128,-1,22
 442 226 442 226 442 343 c 0,23,24
 442 380 442 380 427 406 c 1,25,-1
 321 239 l 1,26,-1
 214 66 l 1,27,28
 234 57 234 57 263 57 c 0,20,21
344 447 m 0,29,30
 266 447 266 447 216.5 359.5 c 128,-1,31
 167 272 167 272 167 155 c 0,32,33
 167 119 167 119 180 97 c 1,34,-1
 283 259 l 1,35,-1
 392 437 l 1,36,37
 373 447 373 447 344 447 c 0,29,30
EndSplineSet
EndChar

StartChar: ugrave
Encoding: 249 249 186
Width: 498
GlyphClass: 2
Flags: W
LayerCount: 2
Fore
SplineSet
288 741 m 1,0,-1
 473 648 l 1,1,-1
 440 596 l 1,2,-1
 252 682 l 1,3,-1
 288 741 l 1,0,-1
216 -10 m 0,4,5
 158 -10 158 -10 128 24 c 128,-1,6
 98 58 98 58 98 112 c 128,-1,7
 98 166 98 166 118 246 c 1,8,-1
 177 500 l 1,9,-1
 251 500 l 1,10,-1
 193 251 l 1,11,12
 174 175 174 175 174 131 c 0,13,14
 174 56 174 56 242 56 c 0,15,16
 272 56 272 56 310.5 84 c 128,-1,17
 349 112 349 112 372 140 c 2,18,-1
 396 168 l 1,19,-1
 473 500 l 1,20,-1
 547 500 l 1,21,-1
 432 0 l 1,22,-1
 359 0 l 1,23,-1
 377 87 l 1,24,25
 368 76 368 76 353.5 60 c 128,-1,26
 339 44 339 44 296.5 17 c 128,-1,27
 254 -10 254 -10 216 -10 c 0,4,5
EndSplineSet
EndChar

StartChar: uacute
Encoding: 250 250 187
Width: 498
GlyphClass: 2
Flags: W
LayerCount: 2
Fore
SplineSet
216 -10 m 0,0,1
 158 -10 158 -10 128 24 c 128,-1,2
 98 58 98 58 98 112 c 128,-1,3
 98 166 98 166 118 246 c 1,4,-1
 177 500 l 1,5,-1
 251 500 l 1,6,-1
 193 251 l 1,7,8
 174 175 174 175 174 131 c 0,9,10
 174 56 174 56 242 56 c 0,11,12
 272 56 272 56 310.5 84 c 128,-1,13
 349 112 349 112 372 140 c 2,14,-1
 396 168 l 1,15,-1
 473 500 l 1,16,-1
 547 500 l 1,17,-1
 432 0 l 1,18,-1
 359 0 l 1,19,-1
 377 87 l 1,20,21
 368 76 368 76 353.5 60 c 128,-1,22
 339 44 339 44 296.5 17 c 128,-1,23
 254 -10 254 -10 216 -10 c 0,0,1
313 596 m 1,24,-1
 306 654 l 1,25,-1
 534 748 l 1,26,-1
 541 682 l 1,27,-1
 313 596 l 1,24,-1
EndSplineSet
EndChar

StartChar: ucircumflex
Encoding: 251 251 188
Width: 498
GlyphClass: 2
Flags: W
LayerCount: 2
Fore
SplineSet
220 587 m 1,0,-1
 375 738 l 1,1,-1
 428 738 l 1,2,-1
 514 587 l 1,3,-1
 439 587 l 1,4,-1
 391 673 l 1,5,-1
 302 587 l 1,6,-1
 220 587 l 1,0,-1
216 -10 m 0,7,8
 158 -10 158 -10 128 24 c 128,-1,9
 98 58 98 58 98 112 c 128,-1,10
 98 166 98 166 118 246 c 1,11,-1
 177 500 l 1,12,-1
 251 500 l 1,13,-1
 193 251 l 1,14,15
 174 175 174 175 174 131 c 0,16,17
 174 56 174 56 242 56 c 0,18,19
 272 56 272 56 310.5 84 c 128,-1,20
 349 112 349 112 372 140 c 2,21,-1
 396 168 l 1,22,-1
 473 500 l 1,23,-1
 547 500 l 1,24,-1
 432 0 l 1,25,-1
 359 0 l 1,26,-1
 377 87 l 1,27,28
 368 76 368 76 353.5 60 c 128,-1,29
 339 44 339 44 296.5 17 c 128,-1,30
 254 -10 254 -10 216 -10 c 0,7,8
EndSplineSet
EndChar

StartChar: udieresis
Encoding: 252 252 189
Width: 498
GlyphClass: 2
Flags: W
LayerCount: 2
Fore
SplineSet
248 620 m 1,0,-1
 270 713 l 1,1,-1
 339 713 l 1,2,-1
 317 620 l 1,3,-1
 248 620 l 1,0,-1
438 620 m 1,4,-1
 458 713 l 1,5,-1
 527 713 l 1,6,-1
 505 620 l 1,7,-1
 438 620 l 1,4,-1
216 -10 m 0,8,9
 158 -10 158 -10 128 24 c 128,-1,10
 98 58 98 58 98 112 c 128,-1,11
 98 166 98 166 118 246 c 1,12,-1
 177 500 l 1,13,-1
 251 500 l 1,14,-1
 193 251 l 1,15,16
 174 175 174 175 174 131 c 0,17,18
 174 56 174 56 242 56 c 0,19,20
 272 56 272 56 310.5 84 c 128,-1,21
 349 112 349 112 372 140 c 2,22,-1
 396 168 l 1,23,-1
 473 500 l 1,24,-1
 547 500 l 1,25,-1
 432 0 l 1,26,-1
 359 0 l 1,27,-1
 377 87 l 1,28,29
 368 76 368 76 353.5 60 c 128,-1,30
 339 44 339 44 296.5 17 c 128,-1,31
 254 -10 254 -10 216 -10 c 0,8,9
EndSplineSet
EndChar

StartChar: yacute
Encoding: 253 253 190
Width: 454
GlyphClass: 2
Flags: W
LayerCount: 2
Fore
SplineSet
139 500 m 1,0,-1
 213 500 l 1,1,-1
 221 64 l 1,2,-1
 251 64 l 1,3,-1
 469 500 l 1,4,-1
 546 500 l 1,5,-1
 181 -221 l 1,6,-1
 105 -221 l 1,7,-1
 220 0 l 1,8,-1
 152 0 l 1,9,-1
 139 500 l 1,0,-1
289 596 m 1,10,-1
 282 654 l 1,11,-1
 510 748 l 1,12,-1
 517 682 l 1,13,-1
 289 596 l 1,10,-1
EndSplineSet
EndChar

StartChar: thorn
Encoding: 254 254 191
Width: 483
GlyphClass: 2
Flags: W
LayerCount: 2
Fore
SplineSet
384 510 m 0,0,1
 434 510 434 510 465.5 485.5 c 128,-1,2
 497 461 497 461 504.5 425.5 c 128,-1,3
 512 390 512 390 512 369.5 c 128,-1,4
 512 349 512 349 511 324.5 c 128,-1,5
 510 300 510 300 498 258 c 0,6,7
 460 116 460 116 398.5 53 c 128,-1,8
 337 -10 337 -10 232 -10 c 0,9,10
 191 -10 191 -10 163 -6 c 128,-1,11
 135 -2 135 -2 135 -1 c 2,12,-1
 83 -220 l 1,13,-1
 13 -220 l 1,14,-1
 234 716 l 1,15,-1
 305 716 l 1,16,-1
 242 450 l 1,17,18
 319 510 319 510 384 510 c 0,0,1
437 335 m 0,19,20
 437 439 437 439 362 439 c 0,21,22
 334 439 334 439 299.5 423 c 128,-1,23
 265 407 265 407 244 392 c 2,24,-1
 224 377 l 1,25,-1
 151 69 l 1,26,-1
 245 59 l 1,27,28
 316 59 316 59 357 107.5 c 128,-1,29
 398 156 398 156 426 259 c 1,30,31
 437 295 437 295 437 335 c 0,19,20
EndSplineSet
EndChar

StartChar: ydieresis
Encoding: 255 255 192
Width: 454
GlyphClass: 2
Flags: W
LayerCount: 2
Fore
SplineSet
228 620 m 1,0,-1
 249 713 l 1,1,-1
 318 713 l 1,2,-1
 296 620 l 1,3,-1
 228 620 l 1,0,-1
418 620 m 1,4,-1
 438 713 l 1,5,-1
 507 713 l 1,6,-1
 485 620 l 1,7,-1
 418 620 l 1,4,-1
139 500 m 1,8,-1
 213 500 l 1,9,-1
 221 64 l 1,10,-1
 251 64 l 1,11,-1
 469 500 l 1,12,-1
 546 500 l 1,13,-1
 181 -221 l 1,14,-1
 105 -221 l 1,15,-1
 220 0 l 1,16,-1
 152 0 l 1,17,-1
 139 500 l 1,8,-1
EndSplineSet
EndChar

StartChar: Amacron
Encoding: 256 256 193
Width: 554
GlyphClass: 2
Flags: W
LayerCount: 2
Fore
SplineSet
315 829 m 1,0,-1
 328 889 l 1,1,-1
 622 889 l 1,2,-1
 608 829 l 1,3,-1
 315 829 l 1,0,-1
24 0 m 1,4,-1
 369 692 l 1,5,-1
 518 692 l 1,6,-1
 532 0 l 1,7,-1
 456 0 l 1,8,-1
 450 177 l 1,9,-1
 191 177 l 1,10,-1
 102 0 l 1,11,-1
 24 0 l 1,4,-1
414 624 m 1,12,-1
 223 244 l 1,13,-1
 451 244 l 1,14,-1
 444 624 l 1,15,-1
 414 624 l 1,12,-1
EndSplineSet
Position2: "'cpsp' Capital Spacing in Latin lookup 0 subtable" dx=5 dy=0 dh=10 dv=0
EndChar

StartChar: amacron
Encoding: 257 257 194
Width: 500
GlyphClass: 2
Flags: W
LayerCount: 2
Fore
SplineSet
217 -10 m 0,0,1
 89 -10 89 -10 89 139 c 0,2,3
 89 222 89 222 115.5 304.5 c 128,-1,4
 142 387 142 387 202 448.5 c 128,-1,5
 262 510 262 510 341 510 c 0,6,7
 402 510 402 510 508 492 c 1,8,-1
 546 485 l 1,9,-1
 470 160 l 2,10,11
 456 104 456 104 446 28 c 1,12,-1
 442 2 l 1,13,-1
 369 -1 l 1,14,15
 383 85 383 85 387 106 c 1,16,17
 382 97 382 97 357.5 71.5 c 128,-1,18
 333 46 333 46 314 30.5 c 128,-1,19
 295 15 295 15 268 2.5 c 128,-1,20
 241 -10 241 -10 217 -10 c 0,0,1
459 431 m 1,21,22
 389 445 389 445 338.5 445 c 128,-1,23
 288 445 288 445 246 393.5 c 128,-1,24
 204 342 204 342 185 273.5 c 128,-1,25
 166 205 166 205 166 151 c 128,-1,26
 166 97 166 97 183 76 c 128,-1,27
 200 55 200 55 234 55 c 128,-1,28
 268 55 268 55 308.5 87.5 c 128,-1,29
 349 120 349 120 376 153 c 2,30,-1
 402 186 l 1,31,-1
 459 431 l 1,21,22
285 639 m 1,32,-1
 299 698 l 1,33,-1
 574 698 l 1,34,-1
 559 639 l 1,35,-1
 285 639 l 1,32,-1
EndSplineSet
EndChar

StartChar: Abreve
Encoding: 258 258 195
Width: 554
GlyphClass: 2
Flags: W
LayerCount: 2
Fore
SplineSet
459 795 m 0,0,1
 344 795 344 795 344 892 c 0,2,3
 344 906 344 906 347 922 c 1,4,-1
 413 922 l 1,5,6
 411 912 411 912 411 896.5 c 128,-1,7
 411 881 411 881 424.5 868 c 128,-1,8
 438 855 438 855 470.5 855 c 128,-1,9
 503 855 503 855 528.5 873.5 c 128,-1,10
 554 892 554 892 563 922 c 1,11,-1
 629 922 l 1,12,13
 592 795 592 795 459 795 c 0,0,1
24 0 m 1,14,-1
 369 692 l 1,15,-1
 518 692 l 1,16,-1
 532 0 l 1,17,-1
 456 0 l 1,18,-1
 450 177 l 1,19,-1
 191 177 l 1,20,-1
 102 0 l 1,21,-1
 24 0 l 1,14,-1
414 624 m 1,22,-1
 223 244 l 1,23,-1
 451 244 l 1,24,-1
 444 624 l 1,25,-1
 414 624 l 1,22,-1
EndSplineSet
Position2: "'cpsp' Capital Spacing in Latin lookup 0 subtable" dx=5 dy=0 dh=10 dv=0
EndChar

StartChar: abreve
Encoding: 259 259 196
Width: 500
GlyphClass: 2
Flags: W
LayerCount: 2
Fore
SplineSet
217 -10 m 0,0,1
 89 -10 89 -10 89 139 c 0,2,3
 89 222 89 222 115.5 304.5 c 128,-1,4
 142 387 142 387 202 448.5 c 128,-1,5
 262 510 262 510 341 510 c 0,6,7
 402 510 402 510 508 492 c 1,8,-1
 546 485 l 1,9,-1
 470 160 l 2,10,11
 456 104 456 104 446 28 c 1,12,-1
 442 2 l 1,13,-1
 369 -1 l 1,14,15
 383 85 383 85 387 106 c 1,16,17
 382 97 382 97 357.5 71.5 c 128,-1,18
 333 46 333 46 314 30.5 c 128,-1,19
 295 15 295 15 268 2.5 c 128,-1,20
 241 -10 241 -10 217 -10 c 0,0,1
459 431 m 1,21,22
 389 445 389 445 338.5 445 c 128,-1,23
 288 445 288 445 246 393.5 c 128,-1,24
 204 342 204 342 185 273.5 c 128,-1,25
 166 205 166 205 166 151 c 128,-1,26
 166 97 166 97 183 76 c 128,-1,27
 200 55 200 55 234 55 c 128,-1,28
 268 55 268 55 308.5 87.5 c 128,-1,29
 349 120 349 120 376 153 c 2,30,-1
 402 186 l 1,31,-1
 459 431 l 1,21,22
368 731 m 1,32,33
 365 719 365 719 365 704.5 c 128,-1,34
 365 690 365 690 378 672.5 c 128,-1,35
 391 655 391 655 429 655 c 0,36,37
 505 655 505 655 527 731 c 1,38,-1
 592 731 l 1,39,40
 552 593 552 593 411 593 c 0,41,42
 346 593 346 593 318 630 c 0,43,44
 299 656 299 656 299 695 c 0,45,46
 299 712 299 712 303 731 c 1,47,-1
 368 731 l 1,32,33
EndSplineSet
EndChar

StartChar: Aogonek
Encoding: 260 260 197
Width: 554
GlyphClass: 2
Flags: W
LayerCount: 2
Fore
SplineSet
532 0 m 1,0,-1
 527 0 l 1,1,2
 497 -25 497 -25 468.5 -59.5 c 128,-1,3
 440 -94 440 -94 440 -117 c 0,4,5
 440 -137 440 -137 464 -137 c 1,6,-1
 512 -132 l 1,7,-1
 505 -195 l 1,8,9
 460 -204 460 -204 428 -204 c 0,10,11
 358 -204 358 -204 358 -141 c 0,12,13
 358 -108 358 -108 388.5 -68.5 c 128,-1,14
 419 -29 419 -29 456 1 c 1,15,-1
 450 177 l 1,16,-1
 191 177 l 1,17,-1
 102 0 l 1,18,-1
 24 0 l 1,19,-1
 369 692 l 1,20,-1
 518 692 l 1,21,-1
 532 4 l 1,22,-1
 532 0 l 1,0,-1
414 624 m 1,23,-1
 223 244 l 1,24,-1
 451 244 l 1,25,-1
 444 624 l 1,26,-1
 414 624 l 1,23,-1
EndSplineSet
Position2: "'cpsp' Capital Spacing in Latin lookup 0 subtable" dx=5 dy=0 dh=10 dv=0
EndChar

StartChar: aogonek
Encoding: 261 261 198
Width: 500
GlyphClass: 2
Flags: W
LayerCount: 2
Fore
SplineSet
335 -204 m 0,0,1
 265 -204 265 -204 265 -141 c 0,2,3
 265 -107 265 -107 299 -64.5 c 128,-1,4
 333 -22 333 -22 370 8 c 1,5,6
 372 16 372 16 378.5 56 c 128,-1,7
 385 96 385 96 387 106 c 1,8,9
 382 97 382 97 357.5 71.5 c 128,-1,10
 333 46 333 46 314 30.5 c 128,-1,11
 295 15 295 15 268 2.5 c 128,-1,12
 241 -10 241 -10 217 -10 c 0,13,14
 89 -10 89 -10 89 139 c 0,15,16
 89 222 89 222 115.5 304.5 c 128,-1,17
 142 387 142 387 202 448.5 c 128,-1,18
 262 510 262 510 341 510 c 0,19,20
 402 510 402 510 508 492 c 1,21,-1
 546 485 l 1,22,-1
 470 160 l 2,23,24
 456 104 456 104 446 28 c 1,25,-1
 442 2 l 1,26,-1
 436 2 l 1,27,28
 407 -22 407 -22 377 -58 c 128,-1,29
 347 -94 347 -94 347 -117 c 0,30,31
 347 -137 347 -137 371 -137 c 1,32,-1
 419 -132 l 1,33,-1
 412 -195 l 1,34,35
 367 -204 367 -204 335 -204 c 0,0,1
459 431 m 1,36,37
 389 445 389 445 338.5 445 c 128,-1,38
 288 445 288 445 246 393.5 c 128,-1,39
 204 342 204 342 185 273.5 c 128,-1,40
 166 205 166 205 166 151 c 128,-1,41
 166 97 166 97 183 76 c 128,-1,42
 200 55 200 55 234 55 c 128,-1,43
 268 55 268 55 308.5 87.5 c 128,-1,44
 349 120 349 120 376 153 c 2,45,-1
 402 186 l 1,46,-1
 459 431 l 1,36,37
EndSplineSet
EndChar

StartChar: Cacute
Encoding: 262 262 199
Width: 504
GlyphClass: 2
Flags: W
LayerCount: 2
Fore
SplineSet
305 -10 m 0,0,1
 112 -10 112 -10 112 188 c 0,2,3
 112 366 112 366 194 524 c 0,4,5
 234 602 234 602 303.5 652 c 128,-1,6
 373 702 373 702 461 702 c 0,7,8
 527 702 527 702 603 684 c 1,9,-1
 627 679 l 1,10,-1
 610 619 l 1,11,12
 533 634 533 634 464 634 c 128,-1,13
 395 634 395 634 343 592.5 c 128,-1,14
 291 551 291 551 259 486 c 0,15,16
 192 348 192 348 192 192 c 0,17,18
 192 124 192 124 221.5 91 c 128,-1,19
 251 58 251 58 315 58 c 0,20,21
 391 58 391 58 455 70 c 1,22,-1
 478 75 l 1,23,-1
 473 12 l 1,24,25
 384 -10 384 -10 305 -10 c 0,0,1
411 785 m 1,26,-1
 402 842 l 1,27,-1
 630 936 l 1,28,-1
 639 871 l 1,29,-1
 411 785 l 1,26,-1
EndSplineSet
Position2: "'cpsp' Capital Spacing in Latin lookup 0 subtable" dx=5 dy=0 dh=10 dv=0
EndChar

StartChar: cacute
Encoding: 263 263 200
Width: 405
GlyphClass: 2
Flags: W
LayerCount: 2
Fore
SplineSet
355 510 m 0,0,1
 402 510 402 510 462 496 c 1,2,-1
 480 491 l 1,3,-1
 461 433 l 1,4,5
 396 445 396 445 353 445 c 0,6,7
 293 445 293 445 250 401 c 0,8,9
 169 320 169 320 169 156 c 0,10,11
 169 106 169 106 193 80.5 c 128,-1,12
 217 55 217 55 272 55 c 0,13,14
 311 55 311 55 364 66 c 2,15,-1
 384 70 l 1,16,-1
 379 11 l 1,17,18
 310 -10 310 -10 240.5 -10 c 128,-1,19
 171 -10 171 -10 131.5 29.5 c 128,-1,20
 92 69 92 69 92 142 c 0,21,22
 92 356 92 356 208 457 c 0,23,24
 269 510 269 510 355 510 c 0,0,1
294 596 m 1,25,-1
 287 654 l 1,26,-1
 515 748 l 1,27,-1
 522 682 l 1,28,-1
 294 596 l 1,25,-1
EndSplineSet
EndChar

StartChar: Ccircumflex
Encoding: 264 264 201
Width: 504
GlyphClass: 2
Flags: W
LayerCount: 2
Fore
SplineSet
305 -10 m 0,0,1
 112 -10 112 -10 112 188 c 0,2,3
 112 366 112 366 194 524 c 0,4,5
 234 602 234 602 303.5 652 c 128,-1,6
 373 702 373 702 461 702 c 0,7,8
 527 702 527 702 603 684 c 1,9,-1
 627 679 l 1,10,-1
 610 619 l 1,11,12
 533 634 533 634 464 634 c 128,-1,13
 395 634 395 634 343 592.5 c 128,-1,14
 291 551 291 551 259 486 c 0,15,16
 192 348 192 348 192 192 c 0,17,18
 192 124 192 124 221.5 91 c 128,-1,19
 251 58 251 58 315 58 c 0,20,21
 391 58 391 58 455 70 c 1,22,-1
 478 75 l 1,23,-1
 473 12 l 1,24,25
 384 -10 384 -10 305 -10 c 0,0,1
335 793 m 1,26,-1
 499 931 l 1,27,-1
 540 931 l 1,28,-1
 636 793 l 1,29,-1
 567 793 l 1,30,-1
 513 874 l 1,31,-1
 417 793 l 1,32,-1
 335 793 l 1,26,-1
EndSplineSet
Position2: "'cpsp' Capital Spacing in Latin lookup 0 subtable" dx=5 dy=0 dh=10 dv=0
EndChar

StartChar: ccircumflex
Encoding: 265 265 202
Width: 405
GlyphClass: 2
Flags: W
LayerCount: 2
Fore
SplineSet
355 510 m 0,0,1
 402 510 402 510 462 496 c 1,2,-1
 480 491 l 1,3,-1
 461 433 l 1,4,5
 396 445 396 445 353 445 c 0,6,7
 293 445 293 445 250 401 c 0,8,9
 169 320 169 320 169 156 c 0,10,11
 169 106 169 106 193 80.5 c 128,-1,12
 217 55 217 55 272 55 c 0,13,14
 311 55 311 55 364 66 c 2,15,-1
 384 70 l 1,16,-1
 379 11 l 1,17,18
 310 -10 310 -10 240.5 -10 c 128,-1,19
 171 -10 171 -10 131.5 29.5 c 128,-1,20
 92 69 92 69 92 142 c 0,21,22
 92 356 92 356 208 457 c 0,23,24
 269 510 269 510 355 510 c 0,0,1
226 587 m 1,25,-1
 381 738 l 1,26,-1
 421 738 l 1,27,-1
 508 587 l 1,28,-1
 439 587 l 1,29,-1
 391 673 l 1,30,-1
 302 587 l 1,31,-1
 226 587 l 1,25,-1
EndSplineSet
EndChar

StartChar: Cdotaccent
Encoding: 266 266 203
Width: 504
GlyphClass: 2
Flags: W
LayerCount: 2
Fore
SplineSet
305 -10 m 0,0,1
 112 -10 112 -10 112 188 c 0,2,3
 112 366 112 366 194 524 c 0,4,5
 234 602 234 602 303.5 652 c 128,-1,6
 373 702 373 702 461 702 c 0,7,8
 527 702 527 702 603 684 c 1,9,-1
 627 679 l 1,10,-1
 610 619 l 1,11,12
 533 634 533 634 464 634 c 128,-1,13
 395 634 395 634 343 592.5 c 128,-1,14
 291 551 291 551 259 486 c 0,15,16
 192 348 192 348 192 192 c 0,17,18
 192 124 192 124 221.5 91 c 128,-1,19
 251 58 251 58 315 58 c 0,20,21
 391 58 391 58 455 70 c 1,22,-1
 478 75 l 1,23,-1
 473 12 l 1,24,25
 384 -10 384 -10 305 -10 c 0,0,1
450 793 m 1,26,-1
 470 883 l 1,27,-1
 534 883 l 1,28,-1
 513 793 l 1,29,-1
 450 793 l 1,26,-1
EndSplineSet
Position2: "'cpsp' Capital Spacing in Latin lookup 0 subtable" dx=5 dy=0 dh=10 dv=0
EndChar

StartChar: cdotaccent
Encoding: 267 267 204
Width: 405
GlyphClass: 2
Flags: W
LayerCount: 2
Fore
SplineSet
355 510 m 0,0,1
 402 510 402 510 462 496 c 1,2,-1
 480 491 l 1,3,-1
 461 433 l 1,4,5
 396 445 396 445 353 445 c 0,6,7
 293 445 293 445 250 401 c 0,8,9
 169 320 169 320 169 156 c 0,10,11
 169 106 169 106 193 80.5 c 128,-1,12
 217 55 217 55 272 55 c 0,13,14
 311 55 311 55 364 66 c 2,15,-1
 384 70 l 1,16,-1
 379 11 l 1,17,18
 310 -10 310 -10 240.5 -10 c 128,-1,19
 171 -10 171 -10 131.5 29.5 c 128,-1,20
 92 69 92 69 92 142 c 0,21,22
 92 356 92 356 208 457 c 0,23,24
 269 510 269 510 355 510 c 0,0,1
334 605 m 1,25,-1
 355 694 l 1,26,-1
 419 694 l 1,27,-1
 398 605 l 1,28,-1
 334 605 l 1,25,-1
EndSplineSet
EndChar

StartChar: Ccaron
Encoding: 268 268 205
Width: 504
GlyphClass: 2
Flags: W
LayerCount: 2
Fore
SplineSet
305 -10 m 0,0,1
 112 -10 112 -10 112 188 c 0,2,3
 112 366 112 366 194 524 c 0,4,5
 234 602 234 602 303.5 652 c 128,-1,6
 373 702 373 702 461 702 c 0,7,8
 527 702 527 702 603 684 c 1,9,-1
 627 679 l 1,10,-1
 610 619 l 1,11,12
 533 634 533 634 464 634 c 128,-1,13
 395 634 395 634 343 592.5 c 128,-1,14
 291 551 291 551 259 486 c 0,15,16
 192 348 192 348 192 192 c 0,17,18
 192 124 192 124 221.5 91 c 128,-1,19
 251 58 251 58 315 58 c 0,20,21
 391 58 391 58 455 70 c 1,22,-1
 478 75 l 1,23,-1
 473 12 l 1,24,25
 384 -10 384 -10 305 -10 c 0,0,1
666 929 m 1,26,-1
 509 792 l 1,27,-1
 462 792 l 1,28,-1
 364 929 l 1,29,-1
 438 929 l 1,30,-1
 496 847 l 1,31,-1
 589 929 l 1,32,-1
 666 929 l 1,26,-1
EndSplineSet
Position2: "'cpsp' Capital Spacing in Latin lookup 0 subtable" dx=5 dy=0 dh=10 dv=0
EndChar

StartChar: ccaron
Encoding: 269 269 206
Width: 405
GlyphClass: 2
Flags: W
LayerCount: 2
Fore
SplineSet
392 587 m 1,0,-1
 350 587 l 1,1,-1
 265 738 l 1,2,-1
 334 738 l 1,3,-1
 385 649 l 1,4,-1
 475 738 l 1,5,-1
 550 738 l 1,6,-1
 392 587 l 1,0,-1
355 510 m 0,7,8
 402 510 402 510 462 496 c 1,9,-1
 480 491 l 1,10,-1
 461 433 l 1,11,12
 396 445 396 445 353 445 c 0,13,14
 293 445 293 445 250 401 c 0,15,16
 169 320 169 320 169 156 c 0,17,18
 169 106 169 106 193 80.5 c 128,-1,19
 217 55 217 55 272 55 c 0,20,21
 311 55 311 55 364 66 c 2,22,-1
 384 70 l 1,23,-1
 379 11 l 1,24,25
 310 -10 310 -10 240.5 -10 c 128,-1,26
 171 -10 171 -10 131.5 29.5 c 128,-1,27
 92 69 92 69 92 142 c 0,28,29
 92 356 92 356 208 457 c 0,30,31
 269 510 269 510 355 510 c 0,7,8
EndSplineSet
EndChar

StartChar: Dcaron
Encoding: 270 270 207
Width: 607
GlyphClass: 2
Flags: W
LayerCount: 2
Fore
SplineSet
317 0 m 2,0,-1
 78 0 l 1,1,-1
 238 692 l 1,2,-1
 460 692 l 2,3,4
 555 692 555 692 603.5 643 c 128,-1,5
 652 594 652 594 652 486 c 0,6,7
 652 347 652 347 600 224 c 0,8,9
 573 160 573 160 535 110.5 c 128,-1,10
 497 61 497 61 440.5 30.5 c 128,-1,11
 384 0 384 0 317 0 c 2,0,-1
542 591.5 m 128,-1,13
 512 624 512 624 445 624 c 2,14,-1
 298 624 l 1,15,-1
 171 68 l 1,16,-1
 328 68 l 2,17,18
 387 68 387 68 435.5 110 c 128,-1,19
 484 152 484 152 512.5 216.5 c 128,-1,20
 541 281 541 281 556.5 351.5 c 128,-1,21
 572 422 572 422 572 490.5 c 128,-1,12
 572 559 572 559 542 591.5 c 128,-1,13
627 929 m 1,22,-1
 470 792 l 1,23,-1
 423 792 l 1,24,-1
 325 929 l 1,25,-1
 399 929 l 1,26,-1
 457 847 l 1,27,-1
 550 929 l 1,28,-1
 627 929 l 1,22,-1
EndSplineSet
Position2: "'cpsp' Capital Spacing in Latin lookup 0 subtable" dx=5 dy=0 dh=10 dv=0
EndChar

StartChar: dcaron
Encoding: 271 271 208
Width: 551
GlyphClass: 2
Flags: W
LayerCount: 2
Fore
SplineSet
721 692 m 1,0,-1
 667 460 l 1,1,-1
 598 460 l 1,2,-1
 653 692 l 1,3,-1
 721 692 l 1,0,-1
215 -10 m 0,4,5
 89 -10 89 -10 89 136 c 0,6,7
 89 224 89 224 117 308 c 128,-1,8
 145 392 145 392 204 451 c 128,-1,9
 263 510 263 510 339 510 c 0,10,11
 390 510 390 510 452 496 c 1,12,-1
 472 492 l 1,13,-1
 525 718 l 1,14,-1
 600 718 l 1,15,-1
 433 0 l 1,16,-1
 361 0 l 1,17,-1
 380 89 l 1,18,19
 371 76 371 76 350.5 56.5 c 128,-1,20
 330 37 330 37 312 24 c 0,21,22
 263 -10 263 -10 215 -10 c 0,4,5
459 430 m 1,23,24
 393 445 393 445 339.5 445 c 128,-1,25
 286 445 286 445 245 393 c 128,-1,26
 204 341 204 341 185 272 c 128,-1,27
 166 203 166 203 166 137 c 0,28,29
 166 55 166 55 238 55 c 0,30,31
 268 55 268 55 308 84.5 c 128,-1,32
 348 114 348 114 374 144 c 2,33,-1
 399 173 l 1,34,-1
 459 430 l 1,23,24
EndSplineSet
EndChar

StartChar: Dcroat
Encoding: 272 272 209
Width: 611
GlyphClass: 2
Flags: W
LayerCount: 2
Fore
SplineSet
321 0 m 2,0,-1
 82 0 l 1,1,-1
 153 309 l 1,2,-1
 86 309 l 1,3,-1
 102 386 l 1,4,-1
 171 386 l 1,5,-1
 242 692 l 1,6,-1
 464 692 l 2,7,8
 559 692 559 692 607.5 643 c 128,-1,9
 656 594 656 594 656 486 c 0,10,11
 656 347 656 347 604 224 c 0,12,13
 577 160 577 160 539 110.5 c 128,-1,14
 501 61 501 61 444.5 30.5 c 128,-1,15
 388 0 388 0 321 0 c 2,0,-1
560.5 351.5 m 128,-1,17
 576 422 576 422 576 490.5 c 128,-1,18
 576 559 576 559 546 591.5 c 128,-1,19
 516 624 516 624 449 624 c 2,20,-1
 302 624 l 1,21,-1
 247 386 l 1,22,-1
 389 386 l 1,23,-1
 371 309 l 1,24,-1
 230 309 l 1,25,-1
 175 68 l 1,26,-1
 332 68 l 2,27,28
 391 68 391 68 439.5 110 c 128,-1,29
 488 152 488 152 516.5 216.5 c 128,-1,16
 545 281 545 281 560.5 351.5 c 128,-1,17
EndSplineSet
Position2: "'cpsp' Capital Spacing in Latin lookup 0 subtable" dx=5 dy=0 dh=10 dv=0
EndChar

StartChar: dcroat
Encoding: 273 273 210
Width: 500
GlyphClass: 2
Flags: W
LayerCount: 2
Fore
SplineSet
215 -10 m 0,0,1
 89 -10 89 -10 89 136 c 0,2,3
 89 224 89 224 117 308 c 128,-1,4
 145 392 145 392 204 451 c 128,-1,5
 263 510 263 510 339 510 c 0,6,7
 390 510 390 510 452 496 c 1,8,-1
 472 492 l 1,9,-1
 494 589 l 1,10,-1
 350 589 l 1,11,-1
 366 658 l 1,12,-1
 511 658 l 1,13,-1
 525 718 l 1,14,-1
 600 718 l 1,15,-1
 586 658 l 1,16,-1
 641 658 l 1,17,-1
 625 589 l 1,18,-1
 570 589 l 1,19,-1
 433 0 l 1,20,-1
 361 0 l 1,21,-1
 380 89 l 1,22,23
 371 76 371 76 350.5 56.5 c 128,-1,24
 330 37 330 37 312 24 c 0,25,26
 263 -10 263 -10 215 -10 c 0,0,1
459 430 m 1,27,28
 393 445 393 445 339.5 445 c 128,-1,29
 286 445 286 445 245 393 c 128,-1,30
 204 341 204 341 185 272 c 128,-1,31
 166 203 166 203 166 137 c 0,32,33
 166 55 166 55 238 55 c 0,34,35
 268 55 268 55 308 84.5 c 128,-1,36
 348 114 348 114 374 144 c 2,37,-1
 399 173 l 1,38,-1
 459 430 l 1,27,28
EndSplineSet
EndChar

StartChar: Emacron
Encoding: 274 274 211
Width: 505
GlyphClass: 2
Flags: W
LayerCount: 2
Fore
SplineSet
305 823 m 1,0,-1
 318 883 l 1,1,-1
 612 883 l 1,2,-1
 598 823 l 1,3,-1
 305 823 l 1,0,-1
78 0 m 1,4,-1
 237 692 l 1,5,-1
 623 692 l 1,6,-1
 607 624 l 1,7,-1
 298 624 l 1,8,-1
 243 386 l 1,9,-1
 497 386 l 1,10,-1
 481 318 l 1,11,-1
 228 318 l 1,12,-1
 170 68 l 1,13,-1
 479 68 l 1,14,-1
 464 0 l 1,15,-1
 78 0 l 1,4,-1
EndSplineSet
Position2: "'cpsp' Capital Spacing in Latin lookup 0 subtable" dx=5 dy=0 dh=10 dv=0
EndChar

StartChar: emacron
Encoding: 275 275 212
Width: 462
GlyphClass: 2
Flags: W
LayerCount: 2
Fore
SplineSet
192 79.5 m 128,-1,1
 218 56 218 56 256 56 c 0,2,3
 327 56 327 56 402 72 c 1,4,-1
 427 78 l 1,5,-1
 421 19 l 1,6,7
 332 -10 332 -10 250 -10 c 0,8,9
 91 -10 91 -10 91 142 c 0,10,11
 91 281 91 281 154 390 c 0,12,13
 186 444 186 444 239.5 477 c 128,-1,14
 293 510 293 510 360 510 c 0,15,16
 508 510 508 510 508 388 c 0,17,18
 508 299 508 299 441 263.5 c 128,-1,19
 374 228 374 228 228 228 c 2,20,-1
 177 228 l 1,21,22
 166 189 166 189 166 146 c 128,-1,0
 166 103 166 103 192 79.5 c 128,-1,1
242 287 m 2,23,24
 344 287 344 287 389 308.5 c 128,-1,25
 434 330 434 330 434 387 c 0,26,27
 434 447 434 447 357 447 c 0,28,29
 234 447 234 447 187 287 c 1,30,-1
 242 287 l 2,23,24
255 639 m 1,31,-1
 269 698 l 1,32,-1
 544 698 l 1,33,-1
 529 639 l 1,34,-1
 255 639 l 1,31,-1
EndSplineSet
EndChar

StartChar: Ebreve
Encoding: 276 276 213
Width: 505
GlyphClass: 2
Flags: W
LayerCount: 2
Fore
SplineSet
444 796 m 0,0,1
 329 796 329 796 329 893 c 0,2,3
 329 907 329 907 332 923 c 1,4,-1
 398 923 l 1,5,6
 396 913 396 913 396 897.5 c 128,-1,7
 396 882 396 882 409.5 869 c 128,-1,8
 423 856 423 856 455.5 856 c 128,-1,9
 488 856 488 856 513.5 874.5 c 128,-1,10
 539 893 539 893 548 923 c 1,11,-1
 614 923 l 1,12,13
 577 796 577 796 444 796 c 0,0,1
78 0 m 1,14,-1
 237 692 l 1,15,-1
 623 692 l 1,16,-1
 607 624 l 1,17,-1
 298 624 l 1,18,-1
 243 386 l 1,19,-1
 497 386 l 1,20,-1
 481 318 l 1,21,-1
 228 318 l 1,22,-1
 170 68 l 1,23,-1
 479 68 l 1,24,-1
 464 0 l 1,25,-1
 78 0 l 1,14,-1
EndSplineSet
Position2: "'cpsp' Capital Spacing in Latin lookup 0 subtable" dx=5 dy=0 dh=10 dv=0
EndChar

StartChar: ebreve
Encoding: 277 277 214
Width: 462
GlyphClass: 2
Flags: W
LayerCount: 2
Fore
SplineSet
192 79.5 m 128,-1,1
 218 56 218 56 256 56 c 0,2,3
 327 56 327 56 402 72 c 1,4,-1
 427 78 l 1,5,-1
 421 19 l 1,6,7
 332 -10 332 -10 250 -10 c 0,8,9
 91 -10 91 -10 91 142 c 0,10,11
 91 281 91 281 154 390 c 0,12,13
 186 444 186 444 239.5 477 c 128,-1,14
 293 510 293 510 360 510 c 0,15,16
 508 510 508 510 508 388 c 0,17,18
 508 299 508 299 441 263.5 c 128,-1,19
 374 228 374 228 228 228 c 2,20,-1
 177 228 l 1,21,22
 166 189 166 189 166 146 c 128,-1,0
 166 103 166 103 192 79.5 c 128,-1,1
242 287 m 2,23,24
 344 287 344 287 389 308.5 c 128,-1,25
 434 330 434 330 434 387 c 0,26,27
 434 447 434 447 357 447 c 0,28,29
 234 447 234 447 187 287 c 1,30,-1
 242 287 l 2,23,24
335 731 m 1,31,32
 332 719 332 719 332 704.5 c 128,-1,33
 332 690 332 690 345 672.5 c 128,-1,34
 358 655 358 655 396 655 c 0,35,36
 472 655 472 655 494 731 c 1,37,-1
 559 731 l 1,38,39
 519 593 519 593 378 593 c 0,40,41
 313 593 313 593 286 630 c 0,42,43
 266 656 266 656 266 695 c 0,44,45
 266 712 266 712 270 731 c 1,46,-1
 335 731 l 1,31,32
EndSplineSet
EndChar

StartChar: Edotaccent
Encoding: 278 278 215
Width: 505
GlyphClass: 2
Flags: W
LayerCount: 2
Fore
SplineSet
418 830 m 1,0,-1
 438 920 l 1,1,-1
 502 920 l 1,2,-1
 481 830 l 1,3,-1
 418 830 l 1,0,-1
78 0 m 1,4,-1
 237 692 l 1,5,-1
 623 692 l 1,6,-1
 607 624 l 1,7,-1
 298 624 l 1,8,-1
 243 386 l 1,9,-1
 497 386 l 1,10,-1
 481 318 l 1,11,-1
 228 318 l 1,12,-1
 170 68 l 1,13,-1
 479 68 l 1,14,-1
 464 0 l 1,15,-1
 78 0 l 1,4,-1
EndSplineSet
Position2: "'cpsp' Capital Spacing in Latin lookup 0 subtable" dx=5 dy=0 dh=10 dv=0
EndChar

StartChar: edotaccent
Encoding: 279 279 216
Width: 462
GlyphClass: 2
Flags: W
LayerCount: 2
Fore
SplineSet
192 79.5 m 128,-1,1
 218 56 218 56 256 56 c 0,2,3
 327 56 327 56 402 72 c 1,4,-1
 427 78 l 1,5,-1
 421 19 l 1,6,7
 332 -10 332 -10 250 -10 c 0,8,9
 91 -10 91 -10 91 142 c 0,10,11
 91 281 91 281 154 390 c 0,12,13
 186 444 186 444 239.5 477 c 128,-1,14
 293 510 293 510 360 510 c 0,15,16
 508 510 508 510 508 388 c 0,17,18
 508 299 508 299 441 263.5 c 128,-1,19
 374 228 374 228 228 228 c 2,20,-1
 177 228 l 1,21,22
 166 189 166 189 166 146 c 128,-1,0
 166 103 166 103 192 79.5 c 128,-1,1
242 287 m 2,23,24
 344 287 344 287 389 308.5 c 128,-1,25
 434 330 434 330 434 387 c 0,26,27
 434 447 434 447 357 447 c 0,28,29
 234 447 234 447 187 287 c 1,30,-1
 242 287 l 2,23,24
338 605 m 1,31,-1
 359 694 l 1,32,-1
 423 694 l 1,33,-1
 402 605 l 1,34,-1
 338 605 l 1,31,-1
EndSplineSet
EndChar

StartChar: Eogonek
Encoding: 280 280 217
Width: 505
GlyphClass: 2
Flags: W
LayerCount: 2
Fore
SplineSet
356 -117 m 0,0,1
 356 -137 356 -137 380 -137 c 1,2,-1
 428 -132 l 1,3,-1
 421 -195 l 1,4,5
 376 -204 376 -204 344 -204 c 0,6,7
 274 -204 274 -204 274 -141 c 0,8,9
 274 -109 274 -109 303.5 -70 c 128,-1,10
 333 -31 333 -31 370 0 c 1,11,-1
 78 0 l 1,12,-1
 237 692 l 1,13,-1
 623 692 l 1,14,-1
 607 624 l 1,15,-1
 298 624 l 1,16,-1
 243 386 l 1,17,-1
 497 386 l 1,18,-1
 481 318 l 1,19,-1
 228 318 l 1,20,-1
 170 68 l 1,21,-1
 479 68 l 1,22,-1
 464 0 l 1,23,-1
 443 0 l 1,24,25
 413 -25 413 -25 384.5 -59.5 c 128,-1,26
 356 -94 356 -94 356 -117 c 0,0,1
EndSplineSet
Position2: "'cpsp' Capital Spacing in Latin lookup 0 subtable" dx=5 dy=0 dh=10 dv=0
EndChar

StartChar: eogonek
Encoding: 281 281 218
Width: 462
GlyphClass: 2
Flags: W
LayerCount: 2
Fore
SplineSet
314 -184 m 0,0,1
 244 -184 244 -184 244 -121 c 0,2,3
 244 -72 244 -72 313 -5 c 1,4,5
 275 -10 275 -10 242 -10 c 0,6,7
 169 -10 169 -10 130 28 c 128,-1,8
 91 66 91 66 91 137.5 c 128,-1,9
 91 209 91 209 107 272.5 c 128,-1,10
 123 336 123 336 154.5 390 c 128,-1,11
 186 444 186 444 239.5 477 c 128,-1,12
 293 510 293 510 360 510 c 0,13,14
 508 510 508 510 508 388 c 0,15,16
 508 299 508 299 441 263.5 c 128,-1,17
 374 228 374 228 228 228 c 2,18,-1
 177 228 l 1,19,20
 166 189 166 189 166 146 c 128,-1,21
 166 103 166 103 192 79.5 c 128,-1,22
 218 56 218 56 256 56 c 0,23,24
 327 56 327 56 402 72 c 1,25,-1
 427 78 l 1,26,-1
 421 19 l 1,27,28
 414 16 414 16 406 14 c 1,29,30
 377 -10 377 -10 351.5 -42.5 c 128,-1,31
 326 -75 326 -75 326 -97 c 0,32,33
 326 -117 326 -117 350 -117 c 1,34,-1
 398 -112 l 1,35,-1
 391 -175 l 1,36,37
 346 -184 346 -184 314 -184 c 0,0,1
242 287 m 2,38,39
 344 287 344 287 389 308.5 c 128,-1,40
 434 330 434 330 434 387 c 0,41,42
 434 447 434 447 357 447 c 0,43,44
 234 447 234 447 187 287 c 1,45,-1
 242 287 l 2,38,39
EndSplineSet
EndChar

StartChar: Ecaron
Encoding: 282 282 219
Width: 505
GlyphClass: 2
Flags: W
LayerCount: 2
Fore
SplineSet
622 936 m 1,0,-1
 465 799 l 1,1,-1
 418 799 l 1,2,-1
 320 936 l 1,3,-1
 394 936 l 1,4,-1
 452 854 l 1,5,-1
 545 936 l 1,6,-1
 622 936 l 1,0,-1
78 0 m 1,7,-1
 237 692 l 1,8,-1
 623 692 l 1,9,-1
 607 624 l 1,10,-1
 298 624 l 1,11,-1
 243 386 l 1,12,-1
 497 386 l 1,13,-1
 481 318 l 1,14,-1
 228 318 l 1,15,-1
 170 68 l 1,16,-1
 479 68 l 1,17,-1
 464 0 l 1,18,-1
 78 0 l 1,7,-1
EndSplineSet
Position2: "'cpsp' Capital Spacing in Latin lookup 0 subtable" dx=5 dy=0 dh=10 dv=0
EndChar

StartChar: ecaron
Encoding: 283 283 220
Width: 462
GlyphClass: 2
Flags: W
LayerCount: 2
Fore
SplineSet
192 79.5 m 128,-1,1
 218 56 218 56 256 56 c 0,2,3
 327 56 327 56 402 72 c 1,4,-1
 427 78 l 1,5,-1
 421 19 l 1,6,7
 332 -10 332 -10 250 -10 c 0,8,9
 91 -10 91 -10 91 142 c 0,10,11
 91 281 91 281 154 390 c 0,12,13
 186 444 186 444 239.5 477 c 128,-1,14
 293 510 293 510 360 510 c 0,15,16
 508 510 508 510 508 388 c 0,17,18
 508 299 508 299 441 263.5 c 128,-1,19
 374 228 374 228 228 228 c 2,20,-1
 177 228 l 1,21,22
 166 189 166 189 166 146 c 128,-1,0
 166 103 166 103 192 79.5 c 128,-1,1
242 287 m 2,23,24
 344 287 344 287 389 308.5 c 128,-1,25
 434 330 434 330 434 387 c 0,26,27
 434 447 434 447 357 447 c 0,28,29
 234 447 234 447 187 287 c 1,30,-1
 242 287 l 2,23,24
401 587 m 1,31,-1
 359 587 l 1,32,-1
 274 738 l 1,33,-1
 343 738 l 1,34,-1
 394 649 l 1,35,-1
 484 738 l 1,36,-1
 559 738 l 1,37,-1
 401 587 l 1,31,-1
EndSplineSet
EndChar

StartChar: Gcircumflex
Encoding: 284 284 221
Width: 572
GlyphClass: 2
Flags: W
LayerCount: 2
Fore
SplineSet
339 779 m 1,0,-1
 494 930 l 1,1,-1
 547 930 l 1,2,-1
 634 779 l 1,3,-1
 558 779 l 1,4,-1
 510 865 l 1,5,-1
 421 779 l 1,6,-1
 339 779 l 1,0,-1
322 -10 m 0,7,8
 113 -10 113 -10 113 186 c 0,9,10
 113 383 113 383 198 536 c 0,11,12
 240 611 240 611 310.5 656.5 c 128,-1,13
 381 702 381 702 469 702 c 0,14,15
 554 702 554 702 640 678 c 1,16,-1
 668 671 l 1,17,-1
 649 613 l 1,18,19
 549 634 549 634 459 634 c 0,20,21
 405 634 405 634 360 605.5 c 128,-1,22
 315 577 315 577 285 530.5 c 128,-1,23
 255 484 255 484 234 424 c 0,24,25
 193 312 193 312 193 185 c 128,-1,26
 193 58 193 58 330 58 c 0,27,28
 374 58 374 58 433 70 c 1,29,-1
 451 73 l 1,30,-1
 503 293 l 1,31,-1
 398 293 l 1,32,-1
 413 359 l 1,33,-1
 595 359 l 1,34,-1
 515 17 l 1,35,36
 427 -10 427 -10 322 -10 c 0,7,8
EndSplineSet
Position2: "'cpsp' Capital Spacing in Latin lookup 0 subtable" dx=5 dy=0 dh=10 dv=0
EndChar

StartChar: gcircumflex
Encoding: 285 285 222
Width: 468
GlyphClass: 2
Flags: W
LayerCount: 2
Fore
SplineSet
197 -235 m 0,0,1
 114 -235 114 -235 66 -200.5 c 128,-1,2
 18 -166 18 -166 18 -104 c 0,3,4
 18 -19 18 -19 150 49 c 1,5,6
 134 65 134 65 134 88.5 c 128,-1,7
 134 112 134 112 148 136 c 128,-1,8
 162 160 162 160 176 174 c 1,9,-1
 189 189 l 1,10,11
 120 221 120 221 120 304 c 128,-1,12
 120 387 120 387 175 448.5 c 128,-1,13
 230 510 230 510 321 510 c 0,14,15
 367 510 367 510 404 498 c 2,16,-1
 417 494 l 1,17,-1
 565 500 l 1,18,-1
 550 436 l 1,19,-1
 461 436 l 1,20,21
 478 408 478 408 478 367 c 0,22,23
 478 292 478 292 421.5 231 c 128,-1,24
 365 170 365 170 267 170 c 1,25,-1
 234 173 l 1,26,27
 203 133 203 133 203 112 c 128,-1,28
 203 91 203 91 222 83.5 c 128,-1,29
 241 76 241 76 308 67.5 c 128,-1,30
 375 59 375 59 411 32.5 c 128,-1,31
 447 6 447 6 447 -50 c 0,32,33
 447 -127 447 -127 378.5 -181 c 128,-1,34
 310 -235 310 -235 197 -235 c 0,0,1
119 -27 m 128,-1,36
 89 -57 89 -57 89 -91 c 128,-1,37
 89 -125 89 -125 117 -148 c 128,-1,38
 145 -171 145 -171 208.5 -171 c 128,-1,39
 272 -171 272 -171 323 -140 c 128,-1,40
 374 -109 374 -109 374 -56 c 0,41,42
 374 -26 374 -26 352.5 -13 c 128,-1,43
 331 0 331 0 273 7 c 128,-1,44
 215 14 215 14 189 23 c 1,45,35
 149 3 149 3 119 -27 c 128,-1,36
274 232 m 0,46,47
 337 232 337 232 372 274.5 c 128,-1,48
 407 317 407 317 407 361 c 128,-1,49
 407 405 407 405 386 426 c 128,-1,50
 365 447 365 447 312.5 447 c 128,-1,51
 260 447 260 447 225.5 404.5 c 128,-1,52
 191 362 191 362 191 312 c 0,53,54
 191 232 191 232 274 232 c 0,46,47
211 587 m 1,55,-1
 366 738 l 1,56,-1
 406 738 l 1,57,-1
 493 587 l 1,58,-1
 424 587 l 1,59,-1
 376 673 l 1,60,-1
 287 587 l 1,61,-1
 211 587 l 1,55,-1
EndSplineSet
EndChar

StartChar: Gbreve
Encoding: 286 286 223
Width: 572
GlyphClass: 2
Flags: W
LayerCount: 2
Fore
SplineSet
447 923 m 1,0,1
 446 916 446 916 446 897 c 128,-1,2
 446 878 446 878 462 863 c 128,-1,3
 478 848 478 848 512 848 c 128,-1,4
 546 848 546 848 571.5 868.5 c 128,-1,5
 597 889 597 889 606 923 c 1,6,-1
 678 923 l 1,7,8
 659 858 659 858 609 818 c 128,-1,9
 559 778 559 778 496 778 c 128,-1,10
 433 778 433 778 403.5 808 c 128,-1,11
 374 838 374 838 372 886 c 0,12,13
 372 904 372 904 375 923 c 1,14,-1
 447 923 l 1,0,1
322 -10 m 0,15,16
 113 -10 113 -10 113 186 c 0,17,18
 113 383 113 383 198 536 c 0,19,20
 240 611 240 611 310.5 656.5 c 128,-1,21
 381 702 381 702 469 702 c 0,22,23
 554 702 554 702 640 678 c 1,24,-1
 668 671 l 1,25,-1
 649 613 l 1,26,27
 549 634 549 634 459 634 c 0,28,29
 405 634 405 634 360 605.5 c 128,-1,30
 315 577 315 577 285 530.5 c 128,-1,31
 255 484 255 484 234 424 c 0,32,33
 193 312 193 312 193 185 c 128,-1,34
 193 58 193 58 330 58 c 0,35,36
 374 58 374 58 433 70 c 1,37,-1
 451 73 l 1,38,-1
 503 293 l 1,39,-1
 398 293 l 1,40,-1
 413 359 l 1,41,-1
 595 359 l 1,42,-1
 515 17 l 1,43,44
 427 -10 427 -10 322 -10 c 0,15,16
EndSplineSet
Position2: "'cpsp' Capital Spacing in Latin lookup 0 subtable" dx=5 dy=0 dh=10 dv=0
EndChar

StartChar: gbreve
Encoding: 287 287 224
Width: 468
GlyphClass: 2
Flags: W
LayerCount: 2
Fore
SplineSet
197 -235 m 0,0,1
 114 -235 114 -235 66 -200.5 c 128,-1,2
 18 -166 18 -166 18 -104 c 0,3,4
 18 -19 18 -19 150 49 c 1,5,6
 134 65 134 65 134 88.5 c 128,-1,7
 134 112 134 112 148 136 c 128,-1,8
 162 160 162 160 176 174 c 1,9,-1
 189 189 l 1,10,11
 120 221 120 221 120 304 c 128,-1,12
 120 387 120 387 175 448.5 c 128,-1,13
 230 510 230 510 321 510 c 0,14,15
 367 510 367 510 404 498 c 2,16,-1
 417 494 l 1,17,-1
 565 500 l 1,18,-1
 550 436 l 1,19,-1
 461 436 l 1,20,21
 478 408 478 408 478 367 c 0,22,23
 478 292 478 292 421.5 231 c 128,-1,24
 365 170 365 170 267 170 c 1,25,-1
 234 173 l 1,26,27
 203 133 203 133 203 112 c 128,-1,28
 203 91 203 91 222 83.5 c 128,-1,29
 241 76 241 76 308 67.5 c 128,-1,30
 375 59 375 59 411 32.5 c 128,-1,31
 447 6 447 6 447 -50 c 0,32,33
 447 -127 447 -127 378.5 -181 c 128,-1,34
 310 -235 310 -235 197 -235 c 0,0,1
119 -27 m 128,-1,36
 89 -57 89 -57 89 -91 c 128,-1,37
 89 -125 89 -125 117 -148 c 128,-1,38
 145 -171 145 -171 208.5 -171 c 128,-1,39
 272 -171 272 -171 323 -140 c 128,-1,40
 374 -109 374 -109 374 -56 c 0,41,42
 374 -26 374 -26 352.5 -13 c 128,-1,43
 331 0 331 0 273 7 c 128,-1,44
 215 14 215 14 189 23 c 1,45,35
 149 3 149 3 119 -27 c 128,-1,36
274 232 m 0,46,47
 337 232 337 232 372 274.5 c 128,-1,48
 407 317 407 317 407 361 c 128,-1,49
 407 405 407 405 386 426 c 128,-1,50
 365 447 365 447 312.5 447 c 128,-1,51
 260 447 260 447 225.5 404.5 c 128,-1,52
 191 362 191 362 191 312 c 0,53,54
 191 232 191 232 274 232 c 0,46,47
331 731 m 1,55,56
 328 719 328 719 328 704.5 c 128,-1,57
 328 690 328 690 341 672.5 c 128,-1,58
 354 655 354 655 392 655 c 0,59,60
 468 655 468 655 490 731 c 1,61,-1
 555 731 l 1,62,63
 515 593 515 593 374 593 c 0,64,65
 309 593 309 593 282 630 c 0,66,67
 262 656 262 656 262 695 c 0,68,69
 262 712 262 712 266 731 c 1,70,-1
 331 731 l 1,55,56
EndSplineSet
EndChar

StartChar: Gdotaccent
Encoding: 288 288 225
Width: 572
GlyphClass: 2
Flags: W
LayerCount: 2
Fore
SplineSet
465 797 m 1,0,-1
 486 886 l 1,1,-1
 556 886 l 1,2,-1
 535 797 l 1,3,-1
 465 797 l 1,0,-1
322 -10 m 0,4,5
 113 -10 113 -10 113 186 c 0,6,7
 113 383 113 383 198 536 c 0,8,9
 240 611 240 611 310.5 656.5 c 128,-1,10
 381 702 381 702 469 702 c 0,11,12
 554 702 554 702 640 678 c 1,13,-1
 668 671 l 1,14,-1
 649 613 l 1,15,16
 549 634 549 634 459 634 c 0,17,18
 405 634 405 634 360 605.5 c 128,-1,19
 315 577 315 577 285 530.5 c 128,-1,20
 255 484 255 484 234 424 c 0,21,22
 193 312 193 312 193 185 c 128,-1,23
 193 58 193 58 330 58 c 0,24,25
 374 58 374 58 433 70 c 1,26,-1
 451 73 l 1,27,-1
 503 293 l 1,28,-1
 398 293 l 1,29,-1
 413 359 l 1,30,-1
 595 359 l 1,31,-1
 515 17 l 1,32,33
 427 -10 427 -10 322 -10 c 0,4,5
EndSplineSet
Position2: "'cpsp' Capital Spacing in Latin lookup 0 subtable" dx=5 dy=0 dh=10 dv=0
EndChar

StartChar: gdotaccent
Encoding: 289 289 226
Width: 468
GlyphClass: 2
Flags: W
LayerCount: 2
Fore
SplineSet
197 -235 m 0,0,1
 114 -235 114 -235 66 -200.5 c 128,-1,2
 18 -166 18 -166 18 -104 c 0,3,4
 18 -19 18 -19 150 49 c 1,5,6
 134 65 134 65 134 88.5 c 128,-1,7
 134 112 134 112 148 136 c 128,-1,8
 162 160 162 160 176 174 c 1,9,-1
 189 189 l 1,10,11
 120 221 120 221 120 304 c 128,-1,12
 120 387 120 387 175 448.5 c 128,-1,13
 230 510 230 510 321 510 c 0,14,15
 367 510 367 510 404 498 c 2,16,-1
 417 494 l 1,17,-1
 565 500 l 1,18,-1
 550 436 l 1,19,-1
 461 436 l 1,20,21
 478 408 478 408 478 367 c 0,22,23
 478 292 478 292 421.5 231 c 128,-1,24
 365 170 365 170 267 170 c 1,25,-1
 234 173 l 1,26,27
 203 133 203 133 203 112 c 128,-1,28
 203 91 203 91 222 83.5 c 128,-1,29
 241 76 241 76 308 67.5 c 128,-1,30
 375 59 375 59 411 32.5 c 128,-1,31
 447 6 447 6 447 -50 c 0,32,33
 447 -127 447 -127 378.5 -181 c 128,-1,34
 310 -235 310 -235 197 -235 c 0,0,1
119 -27 m 128,-1,36
 89 -57 89 -57 89 -91 c 128,-1,37
 89 -125 89 -125 117 -148 c 128,-1,38
 145 -171 145 -171 208.5 -171 c 128,-1,39
 272 -171 272 -171 323 -140 c 128,-1,40
 374 -109 374 -109 374 -56 c 0,41,42
 374 -26 374 -26 352.5 -13 c 128,-1,43
 331 0 331 0 273 7 c 128,-1,44
 215 14 215 14 189 23 c 1,45,35
 149 3 149 3 119 -27 c 128,-1,36
274 232 m 0,46,47
 337 232 337 232 372 274.5 c 128,-1,48
 407 317 407 317 407 361 c 128,-1,49
 407 405 407 405 386 426 c 128,-1,50
 365 447 365 447 312.5 447 c 128,-1,51
 260 447 260 447 225.5 404.5 c 128,-1,52
 191 362 191 362 191 312 c 0,53,54
 191 232 191 232 274 232 c 0,46,47
324 605 m 1,55,-1
 345 694 l 1,56,-1
 409 694 l 1,57,-1
 388 605 l 1,58,-1
 324 605 l 1,55,-1
EndSplineSet
EndChar

StartChar: Gcommaaccent
Encoding: 290 290 227
Width: 572
GlyphClass: 2
Flags: W
LayerCount: 2
Fore
SplineSet
322 -10 m 0,0,1
 113 -10 113 -10 113 186 c 0,2,3
 113 383 113 383 198 536 c 0,4,5
 240 611 240 611 310.5 656.5 c 128,-1,6
 381 702 381 702 469 702 c 0,7,8
 554 702 554 702 640 678 c 1,9,-1
 668 671 l 1,10,-1
 649 613 l 1,11,12
 549 634 549 634 459 634 c 0,13,14
 405 634 405 634 360 605.5 c 128,-1,15
 315 577 315 577 285 530.5 c 128,-1,16
 255 484 255 484 234 424 c 0,17,18
 193 312 193 312 193 185 c 128,-1,19
 193 58 193 58 330 58 c 0,20,21
 374 58 374 58 433 70 c 1,22,-1
 451 73 l 1,23,-1
 503 293 l 1,24,-1
 398 293 l 1,25,-1
 413 359 l 1,26,-1
 595 359 l 1,27,-1
 515 17 l 1,28,29
 427 -10 427 -10 322 -10 c 0,0,1
257 -73 m 1,30,-1
 327 -73 l 1,31,-1
 231 -283 l 1,32,-1
 170 -283 l 1,33,-1
 257 -73 l 1,30,-1
EndSplineSet
Position2: "'cpsp' Capital Spacing in Latin lookup 0 subtable" dx=5 dy=0 dh=10 dv=0
EndChar

StartChar: gcommaaccent
Encoding: 291 291 228
Width: 468
GlyphClass: 2
Flags: W
LayerCount: 2
Fore
SplineSet
409 794 m 1,0,-1
 470 794 l 1,1,-1
 383 584 l 1,2,-1
 313 584 l 1,3,-1
 409 794 l 1,0,-1
197 -235 m 0,4,5
 114 -235 114 -235 66 -200.5 c 128,-1,6
 18 -166 18 -166 18 -104 c 0,7,8
 18 -19 18 -19 150 49 c 1,9,10
 134 65 134 65 134 88.5 c 128,-1,11
 134 112 134 112 148 136 c 128,-1,12
 162 160 162 160 176 174 c 1,13,-1
 189 189 l 1,14,15
 120 221 120 221 120 304 c 128,-1,16
 120 387 120 387 175 448.5 c 128,-1,17
 230 510 230 510 321 510 c 0,18,19
 367 510 367 510 404 498 c 2,20,-1
 417 494 l 1,21,-1
 565 500 l 1,22,-1
 550 436 l 1,23,-1
 461 436 l 1,24,25
 478 408 478 408 478 367 c 0,26,27
 478 292 478 292 421.5 231 c 128,-1,28
 365 170 365 170 267 170 c 1,29,-1
 234 173 l 1,30,31
 203 133 203 133 203 112 c 128,-1,32
 203 91 203 91 222 83.5 c 128,-1,33
 241 76 241 76 308 67.5 c 128,-1,34
 375 59 375 59 411 32.5 c 128,-1,35
 447 6 447 6 447 -50 c 0,36,37
 447 -127 447 -127 378.5 -181 c 128,-1,38
 310 -235 310 -235 197 -235 c 0,4,5
119 -27 m 128,-1,40
 89 -57 89 -57 89 -91 c 128,-1,41
 89 -125 89 -125 117 -148 c 128,-1,42
 145 -171 145 -171 208.5 -171 c 128,-1,43
 272 -171 272 -171 323 -140 c 128,-1,44
 374 -109 374 -109 374 -56 c 0,45,46
 374 -26 374 -26 352.5 -13 c 128,-1,47
 331 0 331 0 273 7 c 128,-1,48
 215 14 215 14 189 23 c 1,49,39
 149 3 149 3 119 -27 c 128,-1,40
274 232 m 0,50,51
 337 232 337 232 372 274.5 c 128,-1,52
 407 317 407 317 407 361 c 128,-1,53
 407 405 407 405 386 426 c 128,-1,54
 365 447 365 447 312.5 447 c 128,-1,55
 260 447 260 447 225.5 404.5 c 128,-1,56
 191 362 191 362 191 312 c 0,57,58
 191 232 191 232 274 232 c 0,50,51
EndSplineSet
EndChar

StartChar: Hcircumflex
Encoding: 292 292 229
Width: 624
GlyphClass: 2
Flags: W
LayerCount: 2
Fore
SplineSet
469 0 m 1,0,-1
 542 316 l 1,1,-1
 227 316 l 1,2,-1
 154 0 l 1,3,-1
 78 0 l 1,4,-1
 238 692 l 1,5,-1
 314 692 l 1,6,-1
 243 383 l 1,7,-1
 558 383 l 1,8,-1
 629 692 l 1,9,-1
 706 692 l 1,10,-1
 546 0 l 1,11,-1
 469 0 l 1,0,-1
335 793 m 1,12,-1
 499 931 l 1,13,-1
 540 931 l 1,14,-1
 636 793 l 1,15,-1
 567 793 l 1,16,-1
 513 874 l 1,17,-1
 417 793 l 1,18,-1
 335 793 l 1,12,-1
EndSplineSet
Position2: "'cpsp' Capital Spacing in Latin lookup 0 subtable" dx=5 dy=0 dh=10 dv=0
EndChar

StartChar: hcircumflex
Encoding: 293 293 230
Width: 499
GlyphClass: 2
Flags: W
LayerCount: 2
Fore
SplineSet
398 510 m 0,0,1
 456 510 456 510 486 476 c 128,-1,2
 516 442 516 442 516 390 c 128,-1,3
 516 338 516 338 495 252 c 1,4,-1
 437 0 l 1,5,-1
 363 0 l 1,6,-1
 421 249 l 1,7,8
 439 331 439 331 439 369 c 0,9,10
 439 444 439 444 372 444 c 0,11,12
 323 444 323 444 252 371 c 0,13,14
 236 354 236 354 226 342 c 2,15,-1
 217 331 l 1,16,-1
 141 0 l 1,17,-1
 66 0 l 1,18,-1
 232 718 l 1,19,-1
 307 718 l 1,20,-1
 236 412 l 1,21,22
 245 423 245 423 260 439.5 c 128,-1,23
 275 456 275 456 317.5 483 c 128,-1,24
 360 510 360 510 398 510 c 0,0,1
290 763 m 1,25,-1
 454 901 l 1,26,-1
 495 901 l 1,27,-1
 591 763 l 1,28,-1
 522 763 l 1,29,-1
 468 844 l 1,30,-1
 372 763 l 1,31,-1
 290 763 l 1,25,-1
EndSplineSet
EndChar

StartChar: Hbar
Encoding: 294 294 231
Width: 638
GlyphClass: 2
Flags: W
LayerCount: 2
Fore
SplineSet
122 503 m 1,0,-1
 122 504 l 1,1,-1
 137 572 l 1,2,-1
 217 572 l 1,3,-1
 245 692 l 1,4,-1
 318 692 l 1,5,-1
 290 572 l 1,6,-1
 612 572 l 1,7,-1
 640 692 l 1,8,-1
 713 692 l 1,9,-1
 685 572 l 1,10,-1
 764 572 l 1,11,-1
 746 503 l 1,12,-1
 669 503 l 1,13,-1
 554 0 l 1,14,-1
 480 0 l 1,15,-1
 552 312 l 1,16,-1
 230 312 l 1,17,-1
 158 0 l 1,18,-1
 85 0 l 1,19,-1
 201 503 l 1,20,-1
 122 503 l 1,0,-1
247 385 m 1,21,-1
 569 385 l 1,22,-1
 596 503 l 1,23,-1
 274 503 l 1,24,-1
 247 385 l 1,21,-1
EndSplineSet
Position2: "'cpsp' Capital Spacing in Latin lookup 0 subtable" dx=5 dy=0 dh=10 dv=0
EndChar

StartChar: hbar
Encoding: 295 295 232
Width: 499
GlyphClass: 2
Flags: W
LayerCount: 2
Fore
SplineSet
398 510 m 0,0,1
 456 510 456 510 486 476 c 128,-1,2
 516 442 516 442 516 390 c 128,-1,3
 516 338 516 338 495 252 c 1,4,-1
 437 0 l 1,5,-1
 363 0 l 1,6,-1
 421 249 l 1,7,8
 439 331 439 331 439 369 c 0,9,10
 439 444 439 444 372 444 c 0,11,12
 323 444 323 444 252 371 c 0,13,14
 236 354 236 354 226 342 c 2,15,-1
 217 331 l 1,16,-1
 141 0 l 1,17,-1
 66 0 l 1,18,-1
 200 579 l 1,19,-1
 145 579 l 1,20,-1
 160 644 l 1,21,-1
 215 644 l 1,22,-1
 232 718 l 1,23,-1
 307 718 l 1,24,-1
 289 644 l 1,25,-1
 435 644 l 1,26,-1
 419 579 l 1,27,-1
 274 579 l 1,28,-1
 236 412 l 1,29,30
 245 423 245 423 260 439.5 c 128,-1,31
 275 456 275 456 317.5 483 c 128,-1,32
 360 510 360 510 398 510 c 0,0,1
EndSplineSet
EndChar

StartChar: Itilde
Encoding: 296 296 233
Width: 232
GlyphClass: 2
Flags: W
LayerCount: 2
Fore
SplineSet
374 798 m 0,0,1
 350 798 350 798 299 826 c 128,-1,2
 248 854 248 854 236 854 c 0,3,4
 213 854 213 854 163 818 c 1,5,-1
 146 805 l 1,6,-1
 144 859 l 1,7,8
 211 919 211 919 249 919 c 0,9,10
 276 919 276 919 326.5 891.5 c 128,-1,11
 377 864 377 864 388 864 c 0,12,13
 407 864 407 864 455 898 c 1,14,-1
 471 910 l 1,15,-1
 474 857 l 1,16,17
 411 798 411 798 374 798 c 0,0,1
78 0 m 1,18,-1
 238 692 l 1,19,-1
 314 692 l 1,20,-1
 154 0 l 1,21,-1
 78 0 l 1,18,-1
EndSplineSet
Position2: "'cpsp' Capital Spacing in Latin lookup 0 subtable" dx=5 dy=0 dh=10 dv=0
EndChar

StartChar: itilde
Encoding: 297 297 234
Width: 206
GlyphClass: 2
Flags: W
LayerCount: 2
Fore
SplineSet
66 0 m 1,0,-1
 181 500 l 1,1,-1
 256 500 l 1,2,-1
 140 0 l 1,3,-1
 66 0 l 1,0,-1
304 614 m 0,4,5
 283 614 283 614 236 638 c 128,-1,6
 189 662 189 662 178 662 c 0,7,8
 157 662 157 662 111 630 c 1,9,-1
 96 619 l 1,10,-1
 93 675 l 1,11,12
 155 728 155 728 192 728 c 0,13,14
 216 728 216 728 261.5 704 c 128,-1,15
 307 680 307 680 317 680 c 0,16,17
 336 680 336 680 378 710 c 2,18,-1
 393 721 l 1,19,-1
 398 665 l 1,20,21
 341 614 341 614 304 614 c 0,4,5
EndSplineSet
EndChar

StartChar: Imacron
Encoding: 298 298 235
Width: 232
GlyphClass: 2
Flags: W
LayerCount: 2
Fore
SplineSet
153 833 m 1,0,-1
 166 893 l 1,1,-1
 460 893 l 1,2,-1
 446 833 l 1,3,-1
 153 833 l 1,0,-1
78 0 m 1,4,-1
 238 692 l 1,5,-1
 314 692 l 1,6,-1
 154 0 l 1,7,-1
 78 0 l 1,4,-1
EndSplineSet
Position2: "'cpsp' Capital Spacing in Latin lookup 0 subtable" dx=5 dy=0 dh=10 dv=0
EndChar

StartChar: imacron
Encoding: 299 299 236
Width: 206
GlyphClass: 2
Flags: W
LayerCount: 2
Fore
SplineSet
66 0 m 1,0,-1
 181 500 l 1,1,-1
 256 500 l 1,2,-1
 140 0 l 1,3,-1
 66 0 l 1,0,-1
105 639 m 1,4,-1
 119 698 l 1,5,-1
 394 698 l 1,6,-1
 379 639 l 1,7,-1
 105 639 l 1,4,-1
EndSplineSet
EndChar

StartChar: Ibreve
Encoding: 300 300 237
Width: 232
GlyphClass: 2
Flags: W
LayerCount: 2
Fore
SplineSet
298 795 m 0,0,1
 183 795 183 795 183 892 c 0,2,3
 183 906 183 906 186 922 c 1,4,-1
 252 922 l 1,5,6
 250 912 250 912 250 896.5 c 128,-1,7
 250 881 250 881 263.5 868 c 128,-1,8
 277 855 277 855 309.5 855 c 128,-1,9
 342 855 342 855 367.5 873.5 c 128,-1,10
 393 892 393 892 402 922 c 1,11,-1
 468 922 l 1,12,13
 431 795 431 795 298 795 c 0,0,1
78 0 m 1,14,-1
 238 692 l 1,15,-1
 314 692 l 1,16,-1
 154 0 l 1,17,-1
 78 0 l 1,14,-1
EndSplineSet
Position2: "'cpsp' Capital Spacing in Latin lookup 0 subtable" dx=5 dy=0 dh=10 dv=0
EndChar

StartChar: ibreve
Encoding: 301 301 238
Width: 206
GlyphClass: 2
Flags: W
LayerCount: 2
Fore
SplineSet
66 0 m 1,0,-1
 181 500 l 1,1,-1
 256 500 l 1,2,-1
 140 0 l 1,3,-1
 66 0 l 1,0,-1
187 731 m 1,4,5
 184 719 184 719 184 704.5 c 128,-1,6
 184 690 184 690 197 672.5 c 128,-1,7
 210 655 210 655 248 655 c 0,8,9
 324 655 324 655 346 731 c 1,10,-1
 411 731 l 1,11,12
 371 593 371 593 230 593 c 0,13,14
 165 593 165 593 138 630 c 0,15,16
 118 656 118 656 118 695 c 0,17,18
 118 712 118 712 122 731 c 1,19,-1
 187 731 l 1,4,5
EndSplineSet
EndChar

StartChar: Iogonek
Encoding: 302 302 239
Width: 232
GlyphClass: 2
Flags: W
LayerCount: 2
Fore
SplineSet
48 -204 m 0,0,1
 -23 -204 -23 -204 -23 -141 c 0,2,3
 -23 -82 -23 -82 78 3 c 1,4,-1
 238 692 l 1,5,-1
 314 692 l 1,6,-1
 154 0 l 1,7,8
 123 -20 123 -20 91 -56.5 c 128,-1,9
 59 -93 59 -93 59 -117 c 0,10,11
 59 -137 59 -137 83 -137 c 1,12,-1
 132 -132 l 1,13,-1
 124 -195 l 1,14,15
 80 -204 80 -204 48 -204 c 0,0,1
EndSplineSet
Position2: "'cpsp' Capital Spacing in Latin lookup 0 subtable" dx=5 dy=0 dh=10 dv=0
EndChar

StartChar: iogonek
Encoding: 303 303 240
Width: 207
GlyphClass: 2
Flags: W
LayerCount: 2
Fore
SplineSet
35 -204 m 0,0,1
 -36 -204 -36 -204 -36 -141 c 0,2,3
 -36 -107 -36 -107 -3.5 -66 c 128,-1,4
 29 -25 29 -25 67 6 c 1,5,-1
 182 500 l 1,6,-1
 257 500 l 1,7,-1
 141 0 l 1,8,9
 109 -23 109 -23 77.5 -58 c 128,-1,10
 46 -93 46 -93 46 -117 c 0,11,12
 46 -137 46 -137 70 -137 c 1,13,-1
 119 -132 l 1,14,-1
 111 -195 l 1,15,16
 67 -204 67 -204 35 -204 c 0,0,1
205 604 m 1,17,-1
 226 694 l 1,18,-1
 302 694 l 1,19,-1
 281 604 l 1,20,-1
 205 604 l 1,17,-1
EndSplineSet
EndChar

StartChar: Idotaccent
Encoding: 304 304 241
Width: 232
GlyphClass: 2
Flags: W
LayerCount: 2
Fore
SplineSet
270 830 m 1,0,-1
 290 920 l 1,1,-1
 354 920 l 1,2,-1
 333 830 l 1,3,-1
 270 830 l 1,0,-1
78 0 m 1,4,-1
 238 692 l 1,5,-1
 314 692 l 1,6,-1
 154 0 l 1,7,-1
 78 0 l 1,4,-1
EndSplineSet
Position2: "'cpsp' Capital Spacing in Latin lookup 0 subtable" dx=5 dy=0 dh=10 dv=0
EndChar

StartChar: dotlessi
Encoding: 305 305 242
Width: 207
GlyphClass: 2
Flags: W
LayerCount: 2
Fore
SplineSet
66 0 m 1,0,-1
 181 500 l 1,1,-1
 256 500 l 1,2,-1
 140 0 l 1,3,-1
 66 0 l 1,0,-1
EndSplineSet
EndChar

StartChar: Jcircumflex
Encoding: 308 308 243
Width: 265
GlyphClass: 2
Flags: W
LayerCount: 2
Fore
SplineSet
350 692 m 1,0,-1
 218 118 l 2,1,2
 198 32 198 32 179 -4 c 128,-1,3
 160 -40 160 -40 123 -55 c 128,-1,4
 86 -70 86 -70 7 -70 c 1,5,-1
 19 -2 l 1,6,7
 81 -2 81 -2 102 19.5 c 128,-1,8
 123 41 123 41 142 124 c 2,9,-1
 274 692 l 1,10,-1
 350 692 l 1,0,-1
174 793 m 1,11,-1
 338 931 l 1,12,-1
 379 931 l 1,13,-1
 475 793 l 1,14,-1
 406 793 l 1,15,-1
 352 874 l 1,16,-1
 256 793 l 1,17,-1
 174 793 l 1,11,-1
EndSplineSet
Position2: "'cpsp' Capital Spacing in Latin lookup 0 subtable" dx=5 dy=0 dh=10 dv=0
EndChar

StartChar: jcircumflex
Encoding: 309 309 244
Width: 206
GlyphClass: 2
Flags: W
LayerCount: 2
Fore
SplineSet
66 0 m 2,0,-1
 181 500 l 1,1,-1
 256 500 l 1,2,-1
 140 0 l 2,3,4
 115 -111 115 -111 84 -146.5 c 128,-1,5
 53 -182 53 -182 -63 -235 c 1,6,-1
 -87 -175 l 1,7,8
 2 -129 2 -129 25 -103 c 128,-1,9
 48 -77 48 -77 66 0 c 2,0,-1
89 587 m 1,10,-1
 244 738 l 1,11,-1
 284 738 l 1,12,-1
 371 587 l 1,13,-1
 302 587 l 1,14,-1
 254 673 l 1,15,-1
 165 587 l 1,16,-1
 89 587 l 1,10,-1
EndSplineSet
EndChar

StartChar: Kcommaaccent
Encoding: 310 310 245
Width: 521
GlyphClass: 2
Flags: W
LayerCount: 2
Fore
SplineSet
229 -73 m 1,0,-1
 299 -73 l 1,1,-1
 203 -283 l 1,2,-1
 142 -283 l 1,3,-1
 229 -73 l 1,0,-1
422 0 m 1,4,-1
 324 307 l 1,5,-1
 224 304 l 1,6,-1
 154 0 l 1,7,-1
 78 0 l 1,8,-1
 238 692 l 1,9,-1
 314 692 l 1,10,-1
 240 372 l 1,11,-1
 331 375 l 1,12,-1
 576 692 l 1,13,-1
 662 692 l 1,14,-1
 393 343 l 1,15,-1
 503 0 l 1,16,-1
 422 0 l 1,4,-1
EndSplineSet
Position2: "'cpsp' Capital Spacing in Latin lookup 0 subtable" dx=5 dy=0 dh=10 dv=0
EndChar

StartChar: kcommaaccent
Encoding: 311 311 246
Width: 445
GlyphClass: 2
Flags: W
LayerCount: 2
Fore
SplineSet
91 -283 m 1,0,-1
 178 -73 l 1,1,-1
 248 -73 l 1,2,-1
 152 -283 l 1,3,-1
 91 -283 l 1,0,-1
141 0 m 1,4,-1
 66 0 l 1,5,-1
 232 718 l 1,6,-1
 307 718 l 1,7,-1
 210 300 l 1,8,-1
 274 303 l 1,9,-1
 455 500 l 1,10,-1
 542 500 l 1,11,-1
 330 268 l 1,12,-1
 425 0 l 1,13,-1
 346 0 l 1,14,-1
 262 239 l 1,15,-1
 195 237 l 1,16,-1
 141 0 l 1,4,-1
EndSplineSet
EndChar

StartChar: Lacute
Encoding: 313 313 247
Width: 433
GlyphClass: 2
Flags: W
LayerCount: 2
Fore
SplineSet
316 785 m 1,0,-1
 307 842 l 1,1,-1
 535 936 l 1,2,-1
 544 871 l 1,3,-1
 316 785 l 1,0,-1
427 0 m 1,4,-1
 78 0 l 1,5,-1
 238 692 l 1,6,-1
 314 692 l 1,7,-1
 170 68 l 1,8,-1
 442 68 l 1,9,-1
 427 0 l 1,4,-1
EndSplineSet
Position2: "'cpsp' Capital Spacing in Latin lookup 0 subtable" dx=5 dy=0 dh=10 dv=0
EndChar

StartChar: lacute
Encoding: 314 314 248
Width: 215
GlyphClass: 2
Flags: W
LayerCount: 2
Fore
SplineSet
70 0 m 1,0,-1
 236 718 l 1,1,-1
 310 718 l 1,2,-1
 145 0 l 1,3,-1
 70 0 l 1,0,-1
249 785 m 1,4,-1
 240 842 l 1,5,-1
 468 936 l 1,6,-1
 477 871 l 1,7,-1
 249 785 l 1,4,-1
EndSplineSet
EndChar

StartChar: Lcommaaccent
Encoding: 315 315 249
Width: 433
GlyphClass: 2
Flags: W
LayerCount: 2
Fore
SplineSet
207 -73 m 1,0,-1
 277 -73 l 1,1,-1
 181 -283 l 1,2,-1
 120 -283 l 1,3,-1
 207 -73 l 1,0,-1
427 0 m 1,4,-1
 78 0 l 1,5,-1
 238 692 l 1,6,-1
 314 692 l 1,7,-1
 170 68 l 1,8,-1
 442 68 l 1,9,-1
 427 0 l 1,4,-1
EndSplineSet
Position2: "'cpsp' Capital Spacing in Latin lookup 0 subtable" dx=5 dy=0 dh=10 dv=0
EndChar

StartChar: lcommaaccent
Encoding: 316 316 250
Width: 215
GlyphClass: 2
Flags: W
LayerCount: 2
Fore
SplineSet
57 -73 m 1,0,-1
 127 -73 l 1,1,-1
 31 -283 l 1,2,-1
 -30 -283 l 1,3,-1
 57 -73 l 1,0,-1
70 0 m 1,4,-1
 236 718 l 1,5,-1
 310 718 l 1,6,-1
 145 0 l 1,7,-1
 70 0 l 1,4,-1
EndSplineSet
EndChar

StartChar: Lcaron
Encoding: 317 317 251
Width: 453
GlyphClass: 2
Flags: W
LayerCount: 2
Fore
SplineSet
554 692 m 1,0,-1
 499 460 l 1,1,-1
 431 460 l 1,2,-1
 486 692 l 1,3,-1
 554 692 l 1,0,-1
427 0 m 1,4,-1
 78 0 l 1,5,-1
 238 692 l 1,6,-1
 314 692 l 1,7,-1
 170 68 l 1,8,-1
 442 68 l 1,9,-1
 427 0 l 1,4,-1
EndSplineSet
Position2: "'cpsp' Capital Spacing in Latin lookup 0 subtable" dx=5 dy=0 dh=10 dv=0
EndChar

StartChar: lcaron
Encoding: 318 318 252
Width: 262
GlyphClass: 2
Flags: W
LayerCount: 2
Fore
SplineSet
432 692 m 1,0,-1
 377 460 l 1,1,-1
 309 460 l 1,2,-1
 364 692 l 1,3,-1
 432 692 l 1,0,-1
70 0 m 1,4,-1
 236 718 l 1,5,-1
 310 718 l 1,6,-1
 145 0 l 1,7,-1
 70 0 l 1,4,-1
EndSplineSet
EndChar

StartChar: Lslash
Encoding: 321 321 253
Width: 434
GlyphClass: 2
Flags: W
LayerCount: 2
Fore
SplineSet
429 0 m 1,0,-1
 80 0 l 1,1,-1
 142 268 l 1,2,-1
 88 234 l 1,3,-1
 88 235 l 1,4,-1
 63 289 l 1,5,-1
 161 350 l 1,6,-1
 240 692 l 1,7,-1
 316 692 l 1,8,-1
 250 405 l 1,9,-1
 398 498 l 1,10,-1
 421 443 l 1,11,-1
 231 324 l 1,12,-1
 172 68 l 1,13,-1
 444 68 l 1,14,-1
 429 0 l 1,0,-1
EndSplineSet
Position2: "'cpsp' Capital Spacing in Latin lookup 0 subtable" dx=5 dy=0 dh=10 dv=0
EndChar

StartChar: lslash
Encoding: 322 322 254
Width: 270
GlyphClass: 2
Flags: W
LayerCount: 2
Fore
SplineSet
95 0 m 1,0,-1
 159 278 l 1,1,-1
 94 238 l 1,2,-1
 68 291 l 1,3,-1
 178 359 l 1,4,-1
 261 718 l 1,5,-1
 335 718 l 1,6,-1
 265 413 l 1,7,-1
 334 456 l 1,8,-1
 358 402 l 1,9,-1
 246 332 l 1,10,-1
 170 0 l 1,11,-1
 95 0 l 1,0,-1
EndSplineSet
EndChar

StartChar: Nacute
Encoding: 323 323 255
Width: 631
GlyphClass: 2
Flags: W
LayerCount: 2
Fore
SplineSet
402 785 m 1,0,-1
 393 842 l 1,1,-1
 621 936 l 1,2,-1
 630 871 l 1,3,-1
 402 785 l 1,0,-1
78 0 m 1,4,-1
 238 692 l 1,5,-1
 374 692 l 1,6,-1
 478 79 l 1,7,-1
 497 79 l 1,8,-1
 638 692 l 1,9,-1
 713 692 l 1,10,-1
 553 0 l 1,11,-1
 422 0 l 1,12,-1
 314 617 l 1,13,-1
 294 617 l 1,14,-1
 151 0 l 1,15,-1
 78 0 l 1,4,-1
EndSplineSet
Position2: "'cpsp' Capital Spacing in Latin lookup 0 subtable" dx=5 dy=0 dh=10 dv=0
EndChar

StartChar: nacute
Encoding: 324 324 256
Width: 498
GlyphClass: 2
Flags: W
LayerCount: 2
Fore
SplineSet
371 444 m 0,0,1
 352 444 352 444 329 432 c 0,2,3
 274 403 274 403 227 344 c 1,4,-1
 217 332 l 1,5,-1
 140 0 l 1,6,-1
 66 0 l 1,7,-1
 181 500 l 1,8,-1
 254 500 l 1,9,-1
 236 413 l 1,10,-1
 258 438 l 2,11,12
 279 462 279 462 319 486 c 128,-1,13
 359 510 359 510 397 510 c 0,14,15
 455 510 455 510 485 476 c 128,-1,16
 515 442 515 442 515 388 c 128,-1,17
 515 334 515 334 495 254 c 1,18,-1
 436 0 l 1,19,-1
 362 0 l 1,20,-1
 420 249 l 1,21,22
 439 325 439 325 439 369 c 0,23,24
 439 444 439 444 371 444 c 0,0,1
300 596 m 1,25,-1
 293 654 l 1,26,-1
 521 748 l 1,27,-1
 528 682 l 1,28,-1
 300 596 l 1,25,-1
EndSplineSet
EndChar

StartChar: Ncommaaccent
Encoding: 325 325 257
Width: 631
GlyphClass: 2
Flags: W
LayerCount: 2
Fore
SplineSet
280 -73 m 1,0,-1
 350 -73 l 1,1,-1
 254 -283 l 1,2,-1
 193 -283 l 1,3,-1
 280 -73 l 1,0,-1
78 0 m 1,4,-1
 238 692 l 1,5,-1
 374 692 l 1,6,-1
 478 79 l 1,7,-1
 497 79 l 1,8,-1
 638 692 l 1,9,-1
 713 692 l 1,10,-1
 553 0 l 1,11,-1
 422 0 l 1,12,-1
 314 617 l 1,13,-1
 294 617 l 1,14,-1
 151 0 l 1,15,-1
 78 0 l 1,4,-1
EndSplineSet
Position2: "'cpsp' Capital Spacing in Latin lookup 0 subtable" dx=5 dy=0 dh=10 dv=0
EndChar

StartChar: ncommaaccent
Encoding: 326 326 258
Width: 498
GlyphClass: 2
Flags: W
LayerCount: 2
Fore
SplineSet
397 510 m 0,0,1
 455 510 455 510 485 476 c 128,-1,2
 515 442 515 442 515 388 c 128,-1,3
 515 334 515 334 495 254 c 1,4,-1
 436 0 l 1,5,-1
 362 0 l 1,6,-1
 420 249 l 1,7,8
 439 325 439 325 439 369 c 0,9,10
 439 444 439 444 371 444 c 0,11,12
 341 444 341 444 302.5 416 c 128,-1,13
 264 388 264 388 240 360 c 2,14,-1
 217 332 l 1,15,-1
 140 0 l 1,16,-1
 66 0 l 1,17,-1
 181 500 l 1,18,-1
 254 500 l 1,19,-1
 236 413 l 1,20,21
 245 424 245 424 259.5 440 c 128,-1,22
 274 456 274 456 316.5 483 c 128,-1,23
 359 510 359 510 397 510 c 0,0,1
125 -283 m 1,24,-1
 212 -73 l 1,25,-1
 282 -73 l 1,26,-1
 186 -283 l 1,27,-1
 125 -283 l 1,24,-1
EndSplineSet
EndChar

StartChar: Ncaron
Encoding: 327 327 259
Width: 631
GlyphClass: 2
Flags: W
LayerCount: 2
Fore
SplineSet
669 926 m 1,0,-1
 512 789 l 1,1,-1
 465 789 l 1,2,-1
 367 926 l 1,3,-1
 441 926 l 1,4,-1
 499 844 l 1,5,-1
 592 926 l 1,6,-1
 669 926 l 1,0,-1
78 0 m 1,7,-1
 238 692 l 1,8,-1
 374 692 l 1,9,-1
 478 79 l 1,10,-1
 497 79 l 1,11,-1
 638 692 l 1,12,-1
 713 692 l 1,13,-1
 553 0 l 1,14,-1
 422 0 l 1,15,-1
 314 617 l 1,16,-1
 294 617 l 1,17,-1
 151 0 l 1,18,-1
 78 0 l 1,7,-1
EndSplineSet
Position2: "'cpsp' Capital Spacing in Latin lookup 0 subtable" dx=5 dy=0 dh=10 dv=0
EndChar

StartChar: ncaron
Encoding: 328 328 260
Width: 498
GlyphClass: 2
Flags: W
LayerCount: 2
Fore
SplineSet
397 510 m 0,0,1
 455 510 455 510 485 476 c 128,-1,2
 515 442 515 442 515 388 c 128,-1,3
 515 334 515 334 495 254 c 1,4,-1
 436 0 l 1,5,-1
 362 0 l 1,6,-1
 420 249 l 1,7,8
 439 325 439 325 439 369 c 0,9,10
 439 444 439 444 371 444 c 0,11,12
 341 444 341 444 302.5 416 c 128,-1,13
 264 388 264 388 240 360 c 2,14,-1
 217 332 l 1,15,-1
 140 0 l 1,16,-1
 66 0 l 1,17,-1
 181 500 l 1,18,-1
 254 500 l 1,19,-1
 236 413 l 1,20,21
 245 424 245 424 259.5 440 c 128,-1,22
 274 456 274 456 316.5 483 c 128,-1,23
 359 510 359 510 397 510 c 0,0,1
403 587 m 1,24,-1
 361 587 l 1,25,-1
 276 738 l 1,26,-1
 345 738 l 1,27,-1
 396 649 l 1,28,-1
 486 738 l 1,29,-1
 561 738 l 1,30,-1
 403 587 l 1,24,-1
EndSplineSet
EndChar

StartChar: Eng
Encoding: 330 330 261
Width: 631
GlyphClass: 2
Flags: W
LayerCount: 2
Fore
SplineSet
78 0 m 1,0,-1
 238 692 l 1,1,-1
 375 692 l 1,2,-1
 479 79 l 1,3,-1
 497 79 l 1,4,-1
 639 692 l 1,5,-1
 713 692 l 1,6,-1
 554 2 l 2,7,8
 539 -64 539 -64 527.5 -96 c 128,-1,9
 516 -128 516 -128 492.5 -151.5 c 128,-1,10
 469 -175 469 -175 437 -181 c 128,-1,11
 405 -187 405 -187 346 -187 c 1,12,-1
 358 -119 l 1,13,14
 419 -118 419 -118 440 -97.5 c 128,-1,15
 461 -77 461 -77 479 0 c 1,16,-1
 421 0 l 1,17,-1
 314 617 l 1,18,-1
 294 617 l 1,19,-1
 151 0 l 1,20,-1
 78 0 l 1,0,-1
EndSplineSet
Position2: "'cpsp' Capital Spacing in Latin lookup 0 subtable" dx=5 dy=0 dh=10 dv=0
EndChar

StartChar: eng
Encoding: 331 331 262
Width: 492
GlyphClass: 2
Flags: W
LayerCount: 2
Fore
SplineSet
236 435 m 1,0,1
 322 510 322 510 387 510 c 128,-1,2
 452 510 452 510 479.5 485.5 c 128,-1,3
 507 461 507 461 510 405 c 0,4,5
 511 399 511 399 511 391 c 0,6,7
 511 347 511 347 491 259 c 2,8,-1
 430 0 l 2,9,10
 408 -92 408 -92 367 -138.5 c 128,-1,11
 326 -185 326 -185 223 -235 c 1,12,-1
 207 -169 l 1,13,14
 289 -125 289 -125 317 -92.5 c 128,-1,15
 345 -60 345 -60 363 13 c 2,16,-1
 421 259 l 2,17,18
 438 333 438 333 438 370 c 128,-1,19
 438 407 438 407 420.5 422.5 c 128,-1,20
 403 438 403 438 370.5 438 c 128,-1,21
 338 438 338 438 301.5 420.5 c 128,-1,22
 265 403 265 403 243 386 c 2,23,-1
 221 368 l 1,24,-1
 135 0 l 1,25,-1
 65 0 l 1,26,-1
 182 500 l 1,27,-1
 253 500 l 1,28,-1
 236 435 l 1,0,1
EndSplineSet
EndChar

StartChar: Omacron
Encoding: 332 332 263
Width: 628
GlyphClass: 2
Flags: W
LayerCount: 2
Fore
SplineSet
225 90.5 m 128,-1,1
 257 58 257 58 329.5 58 c 128,-1,2
 402 58 402 58 451 98 c 0,3,4
 519 154 519 154 555.5 266 c 128,-1,5
 592 378 592 378 592 490 c 0,6,7
 592 565 592 565 558.5 599.5 c 128,-1,8
 525 634 525 634 456.5 634 c 128,-1,9
 388 634 388 634 342 597 c 0,10,11
 273 540 273 540 233 424 c 128,-1,12
 193 308 193 308 193 215.5 c 128,-1,0
 193 123 193 123 225 90.5 c 128,-1,1
629.5 239 m 128,-1,14
 587 118 587 118 509 54 c 128,-1,15
 431 -10 431 -10 323.5 -10 c 128,-1,16
 216 -10 216 -10 165 38.5 c 128,-1,17
 114 87 114 87 114 206 c 128,-1,18
 114 325 114 325 155.5 443 c 128,-1,19
 197 561 197 561 274 631.5 c 128,-1,20
 351 702 351 702 457 702 c 0,21,22
 672 702 672 702 672 495 c 0,23,13
 672 360 672 360 629.5 239 c 128,-1,14
351 823 m 1,24,-1
 364 883 l 1,25,-1
 658 883 l 1,26,-1
 644 823 l 1,27,-1
 351 823 l 1,24,-1
EndSplineSet
Position2: "'cpsp' Capital Spacing in Latin lookup 0 subtable" dx=5 dy=0 dh=10 dv=0
EndChar

StartChar: omacron
Encoding: 333 333 264
Width: 494
GlyphClass: 2
Flags: W
LayerCount: 2
Fore
SplineSet
343 510 m 0,0,1
 516 510 516 510 516 340 c 0,2,3
 516 247 516 247 486.5 168 c 128,-1,4
 457 89 457 89 398 39.5 c 128,-1,5
 339 -10 339 -10 262 -10 c 0,6,7
 91 -10 91 -10 91 154 c 0,8,9
 91 298 91 298 162.5 404 c 128,-1,10
 234 510 234 510 343 510 c 0,0,1
262 55 m 0,11,12
 342 55 342 55 391.5 139.5 c 128,-1,13
 441 224 441 224 441 341 c 0,14,15
 441 389 441 389 416.5 417 c 128,-1,16
 392 445 392 445 343 445 c 0,17,18
 265 445 265 445 215.5 357.5 c 128,-1,19
 166 270 166 270 166 153 c 0,20,21
 166 55 166 55 262 55 c 0,11,12
245 639 m 1,22,-1
 259 698 l 1,23,-1
 534 698 l 1,24,-1
 519 639 l 1,25,-1
 245 639 l 1,22,-1
EndSplineSet
EndChar

StartChar: Obreve
Encoding: 334 334 265
Width: 628
GlyphClass: 2
Flags: W
LayerCount: 2
Fore
SplineSet
489 796 m 0,0,1
 374 796 374 796 374 893 c 0,2,3
 374 907 374 907 377 923 c 1,4,-1
 443 923 l 1,5,6
 441 913 441 913 441 897.5 c 128,-1,7
 441 882 441 882 454.5 869 c 128,-1,8
 468 856 468 856 500.5 856 c 128,-1,9
 533 856 533 856 558.5 874.5 c 128,-1,10
 584 893 584 893 593 923 c 1,11,-1
 659 923 l 1,12,13
 622 796 622 796 489 796 c 0,0,1
225 90.5 m 128,-1,15
 257 58 257 58 329.5 58 c 128,-1,16
 402 58 402 58 451 98 c 0,17,18
 519 154 519 154 555.5 266 c 128,-1,19
 592 378 592 378 592 490 c 0,20,21
 592 565 592 565 558.5 599.5 c 128,-1,22
 525 634 525 634 456.5 634 c 128,-1,23
 388 634 388 634 342 597 c 0,24,25
 273 540 273 540 233 424 c 128,-1,26
 193 308 193 308 193 215.5 c 128,-1,14
 193 123 193 123 225 90.5 c 128,-1,15
629.5 239 m 128,-1,28
 587 118 587 118 509 54 c 128,-1,29
 431 -10 431 -10 323.5 -10 c 128,-1,30
 216 -10 216 -10 165 38.5 c 128,-1,31
 114 87 114 87 114 206 c 128,-1,32
 114 325 114 325 155.5 443 c 128,-1,33
 197 561 197 561 274 631.5 c 128,-1,34
 351 702 351 702 457 702 c 0,35,36
 672 702 672 702 672 495 c 0,37,27
 672 360 672 360 629.5 239 c 128,-1,28
EndSplineSet
Position2: "'cpsp' Capital Spacing in Latin lookup 0 subtable" dx=5 dy=0 dh=10 dv=0
EndChar

StartChar: obreve
Encoding: 335 335 266
Width: 494
GlyphClass: 2
Flags: W
LayerCount: 2
Fore
SplineSet
343 510 m 0,0,1
 516 510 516 510 516 340 c 0,2,3
 516 247 516 247 486.5 168 c 128,-1,4
 457 89 457 89 398 39.5 c 128,-1,5
 339 -10 339 -10 262 -10 c 0,6,7
 91 -10 91 -10 91 154 c 0,8,9
 91 298 91 298 162.5 404 c 128,-1,10
 234 510 234 510 343 510 c 0,0,1
262 55 m 0,11,12
 342 55 342 55 391.5 139.5 c 128,-1,13
 441 224 441 224 441 341 c 0,14,15
 441 389 441 389 416.5 417 c 128,-1,16
 392 445 392 445 343 445 c 0,17,18
 265 445 265 445 215.5 357.5 c 128,-1,19
 166 270 166 270 166 153 c 0,20,21
 166 55 166 55 262 55 c 0,11,12
329 731 m 1,22,23
 326 719 326 719 326 704.5 c 128,-1,24
 326 690 326 690 339 672.5 c 128,-1,25
 352 655 352 655 390 655 c 0,26,27
 466 655 466 655 488 731 c 1,28,-1
 553 731 l 1,29,30
 513 593 513 593 372 593 c 0,31,32
 307 593 307 593 280 630 c 0,33,34
 260 656 260 656 260 695 c 0,35,36
 260 712 260 712 264 731 c 1,37,-1
 329 731 l 1,22,23
EndSplineSet
EndChar

StartChar: Ohungarumlaut
Encoding: 336 336 267
Width: 628
GlyphClass: 2
Flags: W
LayerCount: 2
Fore
SplineSet
577 771 m 1,0,-1
 535 801 l 1,1,-1
 699 932 l 1,2,-1
 748 900 l 1,3,-1
 577 771 l 1,0,-1
388 772 m 1,4,-1
 345 801 l 1,5,-1
 511 933 l 1,6,-1
 557 901 l 1,7,-1
 388 772 l 1,4,-1
225 90.5 m 128,-1,9
 257 58 257 58 329.5 58 c 128,-1,10
 402 58 402 58 451 98 c 0,11,12
 519 154 519 154 555.5 266 c 128,-1,13
 592 378 592 378 592 490 c 0,14,15
 592 565 592 565 558.5 599.5 c 128,-1,16
 525 634 525 634 456.5 634 c 128,-1,17
 388 634 388 634 342 597 c 0,18,19
 273 540 273 540 233 424 c 128,-1,20
 193 308 193 308 193 215.5 c 128,-1,8
 193 123 193 123 225 90.5 c 128,-1,9
629.5 239 m 128,-1,22
 587 118 587 118 509 54 c 128,-1,23
 431 -10 431 -10 323.5 -10 c 128,-1,24
 216 -10 216 -10 165 38.5 c 128,-1,25
 114 87 114 87 114 206 c 128,-1,26
 114 325 114 325 155.5 443 c 128,-1,27
 197 561 197 561 274 631.5 c 128,-1,28
 351 702 351 702 457 702 c 0,29,30
 672 702 672 702 672 495 c 0,31,21
 672 360 672 360 629.5 239 c 128,-1,22
EndSplineSet
Position2: "'cpsp' Capital Spacing in Latin lookup 0 subtable" dx=5 dy=0 dh=10 dv=0
EndChar

StartChar: ohungarumlaut
Encoding: 337 337 268
Width: 494
GlyphClass: 2
Flags: W
LayerCount: 2
Fore
SplineSet
343 510 m 0,0,1
 516 510 516 510 516 340 c 0,2,3
 516 247 516 247 486.5 168 c 128,-1,4
 457 89 457 89 398 39.5 c 128,-1,5
 339 -10 339 -10 262 -10 c 0,6,7
 91 -10 91 -10 91 154 c 0,8,9
 91 298 91 298 162.5 404 c 128,-1,10
 234 510 234 510 343 510 c 0,0,1
262 55 m 0,11,12
 342 55 342 55 391.5 139.5 c 128,-1,13
 441 224 441 224 441 341 c 0,14,15
 441 389 441 389 416.5 417 c 128,-1,16
 392 445 392 445 343 445 c 0,17,18
 265 445 265 445 215.5 357.5 c 128,-1,19
 166 270 166 270 166 153 c 0,20,21
 166 55 166 55 262 55 c 0,11,12
446 582 m 1,22,-1
 407 623 l 1,23,-1
 576 762 l 1,24,-1
 619 719 l 1,25,-1
 446 582 l 1,22,-1
264 582 m 1,26,-1
 225 623 l 1,27,-1
 393 761 l 1,28,-1
 436 719 l 1,29,-1
 264 582 l 1,26,-1
EndSplineSet
EndChar

StartChar: OE
Encoding: 338 338 269
Width: 858
GlyphClass: 2
Flags: W
LayerCount: 2
Fore
SplineSet
295 -10 m 0,0,1
 199 -10 199 -10 154 33 c 0,2,3
 107 78 107 78 107 159.5 c 128,-1,4
 107 241 107 241 131 345 c 0,5,6
 174 528 174 528 252.5 617 c 128,-1,7
 331 706 331 706 463 706 c 0,8,9
 532 706 532 706 594 696 c 1,10,-1
 979 696 l 1,11,-1
 963 621 l 1,12,-1
 649 621 l 1,13,-1
 592 388 l 1,14,-1
 849 388 l 1,15,-1
 833 315 l 1,16,-1
 577 317 l 1,17,-1
 520 75 l 1,18,-1
 833 75 l 1,19,-1
 815 -1 l 1,20,-1
 432 -1 l 1,21,22
 331 -10 331 -10 295 -10 c 0,0,1
319 65 m 0,23,24
 345 65 345 65 446 73 c 1,25,-1
 577 624 l 1,26,27
 526 631 526 631 453 631 c 0,28,29
 353 631 353 631 297.5 563.5 c 128,-1,30
 242 496 242 496 207 346 c 0,31,32
 184 251 184 251 184 189 c 128,-1,33
 184 127 184 127 215.5 96 c 128,-1,34
 247 65 247 65 319 65 c 0,23,24
EndSplineSet
Position2: "'cpsp' Capital Spacing in Latin lookup 0 subtable" dx=5 dy=0 dh=10 dv=0
EndChar

StartChar: oe
Encoding: 339 339 270
Width: 799
GlyphClass: 2
Flags: W
LayerCount: 2
Fore
SplineSet
487 143 m 0,0,1
 487 60 487 60 581 60 c 0,2,3
 651 60 651 60 726 66 c 1,4,-1
 754 69 l 1,5,-1
 742 6 l 1,6,7
 641 -10 641 -10 560 -10 c 0,8,9
 448 -10 448 -10 426 74 c 1,10,11
 366 -10 366 -10 245 -10 c 0,12,13
 168 -10 168 -10 130 20 c 0,14,15
 88 52 88 52 88 132 c 0,16,17
 88 189 88 189 105 257 c 0,18,19
 136 387 136 387 194.5 448.5 c 128,-1,20
 253 510 253 510 369.5 510 c 128,-1,21
 486 510 486 510 508 416 c 1,22,23
 569 510 569 510 689 510 c 0,24,25
 832 510 832 510 836 379 c 0,26,27
 836 373 836 373 836 347.5 c 128,-1,28
 836 322 836 322 823 274 c 1,29,-1
 806 217 l 1,30,-1
 498 219 l 1,31,32
 487 169 487 169 487 143 c 0,0,1
445 344 m 0,33,34
 445 441 445 441 351 441 c 0,35,36
 280 441 280 441 241 398 c 128,-1,37
 202 355 202 355 182 267.5 c 128,-1,38
 162 180 162 180 162 143 c 0,39,40
 162 137 162 137 162 132 c 0,41,42
 164 94 164 94 186.5 76.5 c 128,-1,43
 209 59 209 59 255.5 59 c 128,-1,44
 302 59 302 59 331.5 73 c 128,-1,45
 361 87 361 87 380.5 118 c 128,-1,46
 400 149 400 149 410 178 c 0,47,48
 445 281 445 281 445 344 c 0,33,34
751 278 m 1,49,50
 763 325 763 325 763 343.5 c 128,-1,51
 763 362 763 362 763 365 c 0,52,53
 762 439 762 439 675 439 c 0,54,55
 612 439 612 439 572 401 c 128,-1,56
 532 363 532 363 512 280 c 1,57,-1
 751 278 l 1,49,50
EndSplineSet
EndChar

StartChar: Racute
Encoding: 340 340 271
Width: 564
GlyphClass: 2
Flags: W
LayerCount: 2
Fore
SplineSet
575.5 353 m 128,-1,1
 522 289 522 289 451 269 c 1,2,-1
 527 0 l 1,3,-1
 450 0 l 1,4,-1
 379 259 l 1,5,-1
 215 259 l 1,6,-1
 154 0 l 1,7,-1
 78 0 l 1,8,-1
 238 692 l 1,9,-1
 449 692 l 2,10,11
 540 692 540 692 584.5 653 c 128,-1,12
 629 614 629 614 629 515.5 c 128,-1,0
 629 417 629 417 575.5 353 c 128,-1,1
549 523 m 0,13,14
 549 579 549 579 524 602 c 128,-1,15
 499 625 499 625 441 625 c 2,16,-1
 299 625 l 1,17,-1
 230 326 l 1,18,-1
 377 326 l 2,19,20
 455 326 455 326 502 381 c 128,-1,21
 549 436 549 436 549 523 c 0,13,14
357 785 m 1,22,-1
 348 842 l 1,23,-1
 576 936 l 1,24,-1
 585 871 l 1,25,-1
 357 785 l 1,22,-1
EndSplineSet
Position2: "'cpsp' Capital Spacing in Latin lookup 0 subtable" dx=5 dy=0 dh=10 dv=0
EndChar

StartChar: racute
Encoding: 341 341 272
Width: 316
GlyphClass: 2
Flags: W
LayerCount: 2
Fore
SplineSet
66 0 m 1,0,-1
 182 500 l 1,1,-1
 256 500 l 1,2,-1
 238 426 l 1,3,4
 331 493 331 493 419 511 c 1,5,-1
 399 434 l 1,6,7
 345 420 345 420 254 374 c 2,8,-1
 224 359 l 1,9,-1
 141 0 l 1,10,-1
 66 0 l 1,0,-1
202 596 m 1,11,-1
 195 654 l 1,12,-1
 423 748 l 1,13,-1
 430 682 l 1,14,-1
 202 596 l 1,11,-1
EndSplineSet
EndChar

StartChar: Rcommaaccent
Encoding: 342 342 273
Width: 564
GlyphClass: 2
Flags: W
LayerCount: 2
Fore
SplineSet
164 -283 m 1,0,-1
 251 -73 l 1,1,-1
 321 -73 l 1,2,-1
 225 -283 l 1,3,-1
 164 -283 l 1,0,-1
449 692 m 2,4,5
 540 692 540 692 584.5 653 c 128,-1,6
 629 614 629 614 629 515.5 c 128,-1,7
 629 417 629 417 575.5 353 c 128,-1,8
 522 289 522 289 451 269 c 1,9,-1
 527 0 l 1,10,-1
 450 0 l 1,11,-1
 379 259 l 1,12,-1
 215 259 l 1,13,-1
 154 0 l 1,14,-1
 78 0 l 1,15,-1
 238 692 l 1,16,-1
 449 692 l 2,4,5
549 523 m 0,17,18
 549 579 549 579 524 602 c 128,-1,19
 499 625 499 625 441 625 c 2,20,-1
 299 625 l 1,21,-1
 230 326 l 1,22,-1
 377 326 l 2,23,24
 455 326 455 326 502 381 c 128,-1,25
 549 436 549 436 549 523 c 0,17,18
EndSplineSet
Position2: "'cpsp' Capital Spacing in Latin lookup 0 subtable" dx=5 dy=0 dh=10 dv=0
EndChar

StartChar: rcommaaccent
Encoding: 343 343 274
Width: 316
GlyphClass: 2
Flags: W
LayerCount: 2
Fore
SplineSet
66 0 m 1,0,-1
 182 500 l 1,1,-1
 256 500 l 1,2,-1
 238 426 l 1,3,4
 331 493 331 493 419 511 c 1,5,-1
 399 434 l 1,6,7
 345 420 345 420 254 374 c 2,8,-1
 224 359 l 1,9,-1
 141 0 l 1,10,-1
 66 0 l 1,0,-1
58 -73 m 1,11,-1
 128 -73 l 1,12,-1
 32 -283 l 1,13,-1
 -29 -283 l 1,14,-1
 58 -73 l 1,11,-1
EndSplineSet
EndChar

StartChar: Rcaron
Encoding: 344 344 275
Width: 564
GlyphClass: 2
Flags: W
LayerCount: 2
Fore
SplineSet
614 926 m 1,0,-1
 457 789 l 1,1,-1
 410 789 l 1,2,-1
 312 926 l 1,3,-1
 386 926 l 1,4,-1
 444 844 l 1,5,-1
 537 926 l 1,6,-1
 614 926 l 1,0,-1
575.5 353 m 128,-1,8
 522 289 522 289 451 269 c 1,9,-1
 527 0 l 1,10,-1
 450 0 l 1,11,-1
 379 259 l 1,12,-1
 215 259 l 1,13,-1
 154 0 l 1,14,-1
 78 0 l 1,15,-1
 238 692 l 1,16,-1
 449 692 l 2,17,18
 540 692 540 692 584.5 653 c 128,-1,19
 629 614 629 614 629 515.5 c 128,-1,7
 629 417 629 417 575.5 353 c 128,-1,8
549 523 m 0,20,21
 549 579 549 579 524 602 c 128,-1,22
 499 625 499 625 441 625 c 2,23,-1
 299 625 l 1,24,-1
 230 326 l 1,25,-1
 377 326 l 2,26,27
 455 326 455 326 502 381 c 128,-1,28
 549 436 549 436 549 523 c 0,20,21
EndSplineSet
Position2: "'cpsp' Capital Spacing in Latin lookup 0 subtable" dx=5 dy=0 dh=10 dv=0
EndChar

StartChar: rcaron
Encoding: 345 345 276
Width: 316
GlyphClass: 2
Flags: W
LayerCount: 2
Fore
SplineSet
66 0 m 1,0,-1
 182 500 l 1,1,-1
 256 500 l 1,2,-1
 238 426 l 1,3,4
 331 493 331 493 419 511 c 1,5,-1
 399 434 l 1,6,7
 345 420 345 420 254 374 c 2,8,-1
 224 359 l 1,9,-1
 141 0 l 1,10,-1
 66 0 l 1,0,-1
316 587 m 1,11,-1
 274 587 l 1,12,-1
 189 738 l 1,13,-1
 258 738 l 1,14,-1
 309 649 l 1,15,-1
 399 738 l 1,16,-1
 474 738 l 1,17,-1
 316 587 l 1,11,-1
EndSplineSet
EndChar

StartChar: Sacute
Encoding: 346 346 277
Width: 499
GlyphClass: 2
Flags: W
LayerCount: 2
Fore
SplineSet
577 617 m 1,0,1
 471 635 471 635 398 635 c 128,-1,2
 325 635 325 635 282.5 597.5 c 128,-1,3
 240 560 240 560 240 489 c 0,4,5
 240 449 240 449 264.5 431 c 128,-1,6
 289 413 289 413 366.5 385.5 c 128,-1,7
 444 358 444 358 474.5 326 c 128,-1,8
 505 294 505 294 505 229 c 0,9,10
 505 117 505 117 438 53.5 c 128,-1,11
 371 -10 371 -10 257 -10 c 0,12,13
 172 -10 172 -10 85 10 c 1,14,-1
 56 16 l 1,15,-1
 69 76 l 1,16,17
 185 58 185 58 262 58 c 128,-1,18
 339 58 339 58 382.5 100.5 c 128,-1,19
 426 143 426 143 426 222 c 0,20,21
 426 263 426 263 404 282.5 c 128,-1,22
 382 302 382 302 307 328 c 128,-1,23
 232 354 232 354 197 386 c 128,-1,24
 162 418 162 418 162 483 c 0,25,26
 162 585 162 585 227.5 643.5 c 128,-1,27
 293 702 293 702 404 702 c 0,28,29
 486 702 486 702 564 681 c 2,30,-1
 590 674 l 1,31,-1
 577 617 l 1,0,1
352 785 m 1,32,-1
 343 842 l 1,33,-1
 571 936 l 1,34,-1
 580 871 l 1,35,-1
 352 785 l 1,32,-1
EndSplineSet
Position2: "'cpsp' Capital Spacing in Latin lookup 0 subtable" dx=5 dy=0 dh=10 dv=0
EndChar

StartChar: sacute
Encoding: 347 347 278
Width: 429
GlyphClass: 2
Flags: W
LayerCount: 2
Fore
SplineSet
470 431 m 1,0,1
 375 445 375 445 317.5 445 c 128,-1,2
 260 445 260 445 229 416.5 c 128,-1,3
 198 388 198 388 198 348 c 0,4,5
 198 324 198 324 216 312 c 128,-1,6
 234 300 234 300 299.5 283 c 128,-1,7
 365 266 365 266 396 244.5 c 128,-1,8
 427 223 427 223 427 172 c 0,9,10
 427 84 427 84 366 37 c 128,-1,11
 305 -10 305 -10 209 -10 c 0,12,13
 145 -10 145 -10 74 8 c 1,14,-1
 51 13 l 1,15,-1
 65 71 l 1,16,17
 157 55 157 55 217.5 55 c 128,-1,18
 278 55 278 55 314 81 c 128,-1,19
 350 107 350 107 350 157 c 0,20,21
 350 185 350 185 331 196.5 c 128,-1,22
 312 208 312 208 248.5 223.5 c 128,-1,23
 185 239 185 239 154 261 c 128,-1,24
 123 283 123 283 123 330 c 0,25,26
 123 410 123 410 179 460 c 128,-1,27
 235 510 235 510 320 510 c 0,28,29
 395 510 395 510 462 494 c 1,30,-1
 485 489 l 1,31,-1
 470 431 l 1,0,1
277 596 m 1,32,-1
 270 654 l 1,33,-1
 498 748 l 1,34,-1
 505 682 l 1,35,-1
 277 596 l 1,32,-1
EndSplineSet
EndChar

StartChar: Scircumflex
Encoding: 348 348 279
Width: 499
GlyphClass: 2
Flags: W
LayerCount: 2
Fore
SplineSet
577 617 m 1,0,1
 471 635 471 635 398 635 c 128,-1,2
 325 635 325 635 282.5 597.5 c 128,-1,3
 240 560 240 560 240 489 c 0,4,5
 240 449 240 449 264.5 431 c 128,-1,6
 289 413 289 413 366.5 385.5 c 128,-1,7
 444 358 444 358 474.5 326 c 128,-1,8
 505 294 505 294 505 229 c 0,9,10
 505 117 505 117 438 53.5 c 128,-1,11
 371 -10 371 -10 257 -10 c 0,12,13
 172 -10 172 -10 85 10 c 1,14,-1
 56 16 l 1,15,-1
 69 76 l 1,16,17
 185 58 185 58 262 58 c 128,-1,18
 339 58 339 58 382.5 100.5 c 128,-1,19
 426 143 426 143 426 222 c 0,20,21
 426 263 426 263 404 282.5 c 128,-1,22
 382 302 382 302 307 328 c 128,-1,23
 232 354 232 354 197 386 c 128,-1,24
 162 418 162 418 162 483 c 0,25,26
 162 585 162 585 227.5 643.5 c 128,-1,27
 293 702 293 702 404 702 c 0,28,29
 486 702 486 702 564 681 c 2,30,-1
 590 674 l 1,31,-1
 577 617 l 1,0,1
279 793 m 1,32,-1
 443 931 l 1,33,-1
 484 931 l 1,34,-1
 580 793 l 1,35,-1
 511 793 l 1,36,-1
 457 874 l 1,37,-1
 361 793 l 1,38,-1
 279 793 l 1,32,-1
EndSplineSet
Position2: "'cpsp' Capital Spacing in Latin lookup 0 subtable" dx=5 dy=0 dh=10 dv=0
EndChar

StartChar: scircumflex
Encoding: 349 349 280
Width: 429
GlyphClass: 2
Flags: W
LayerCount: 2
Fore
SplineSet
470 431 m 1,0,1
 375 445 375 445 317.5 445 c 128,-1,2
 260 445 260 445 229 416.5 c 128,-1,3
 198 388 198 388 198 348 c 0,4,5
 198 324 198 324 216 312 c 128,-1,6
 234 300 234 300 299.5 283 c 128,-1,7
 365 266 365 266 396 244.5 c 128,-1,8
 427 223 427 223 427 172 c 0,9,10
 427 84 427 84 366 37 c 128,-1,11
 305 -10 305 -10 209 -10 c 0,12,13
 145 -10 145 -10 74 8 c 1,14,-1
 51 13 l 1,15,-1
 65 71 l 1,16,17
 157 55 157 55 217.5 55 c 128,-1,18
 278 55 278 55 314 81 c 128,-1,19
 350 107 350 107 350 157 c 0,20,21
 350 185 350 185 331 196.5 c 128,-1,22
 312 208 312 208 248.5 223.5 c 128,-1,23
 185 239 185 239 154 261 c 128,-1,24
 123 283 123 283 123 330 c 0,25,26
 123 410 123 410 179 460 c 128,-1,27
 235 510 235 510 320 510 c 0,28,29
 395 510 395 510 462 494 c 1,30,-1
 485 489 l 1,31,-1
 470 431 l 1,0,1
213 587 m 1,32,-1
 368 738 l 1,33,-1
 408 738 l 1,34,-1
 495 587 l 1,35,-1
 426 587 l 1,36,-1
 378 673 l 1,37,-1
 289 587 l 1,38,-1
 213 587 l 1,32,-1
EndSplineSet
EndChar

